<svg width="375" height="472" viewBox="0 0 375 472" fill="none" xmlns="http://www.w3.org/2000/svg">
<rect width="375" height="257" fill="#FFE0B2"/>
<ellipse cx="187.5" cy="265.555" rx="187.5" ry="176.445" fill="#FFE0B2"/>
<g clip-path="url(#clip0)">
<path d="M183.289 299.024C183.342 298.833 183.385 298.641 183.42 298.448C183.42 298.376 183.42 298.305 183.451 298.238C183.482 298.171 183.49 297.97 183.499 297.836C183.508 297.702 183.499 297.648 183.499 297.554C183.499 297.46 183.499 297.322 183.499 297.206C183.499 297.089 183.499 297.018 183.499 296.929C183.499 296.839 183.499 296.678 183.473 296.553C183.447 296.428 183.451 296.397 183.442 296.321C183.442 296.178 183.398 296.035 183.372 295.874V295.807L173.613 250.896C167.285 251.789 170.651 251.003 167.285 251.789C163.92 252.576 167.285 251.789 161.386 253.746L163.841 265.041L155.054 251.57C154.558 250.793 153.902 250.136 153.131 249.646C152.359 249.156 151.492 248.844 150.59 248.733C148.409 248.495 146.251 248.078 144.136 247.487C142.639 247.044 141.089 246.82 139.532 246.821H124.653C123.094 246.819 121.542 247.044 120.045 247.487C117.929 248.078 115.771 248.495 113.59 248.733C112.688 248.844 111.821 249.156 111.05 249.646C110.279 250.136 109.622 250.793 109.126 251.57L86.5584 286.197L64.7652 256.798C59.5532 260.287 62.2751 258.084 59.5531 260.287C56.8312 262.49 59.5531 260.287 54.8619 264.795L81.9022 301.258C82.4226 301.96 83.0805 302.543 83.834 302.971C84.5874 303.399 85.4199 303.661 86.2783 303.742H86.4271H86.8122H87.1448H87.3505C87.5168 303.742 87.6875 303.707 87.8581 303.68H87.88C88.7405 303.541 89.563 303.22 90.2942 302.737C91.0254 302.254 91.6491 301.619 92.1249 300.874L107.38 278.087L109.678 315.663C109.678 321.324 114.561 325.939 119.992 325.939H144.197C149.628 325.939 154.074 321.31 154.074 315.663L155.956 278.087L172.064 300.874C172.064 300.901 172.104 300.927 172.121 300.959C172.139 300.99 172.222 301.097 172.274 301.169C172.327 301.24 172.436 301.392 172.528 301.499C172.528 301.526 172.572 301.548 172.589 301.575C173.24 302.338 174.059 302.932 174.979 303.309C175.003 303.316 175.026 303.325 175.049 303.336C175.206 303.394 175.364 303.452 175.526 303.501C175.606 303.526 175.688 303.547 175.771 303.564L176.099 303.644C176.204 303.666 176.313 303.68 176.423 303.698L176.694 303.733H177.005H177.316H177.556C177.692 303.733 177.823 303.733 177.959 303.707L178.108 303.684C178.274 303.684 178.445 303.631 178.611 303.595H178.659C178.849 303.551 179.036 303.495 179.219 303.429H179.241C179.769 303.247 180.271 302.993 180.733 302.674C181.977 301.802 182.875 300.507 183.267 299.02L183.289 299.024Z" fill="url(#paint0_linear)"/>
<path d="M123.016 441.01H110.89V456.438H123.016V441.01Z" fill="url(#paint1_linear)"/>
<path d="M153.129 441.01H141.002V456.438H153.129V441.01Z" fill="url(#paint2_linear)"/>
<path d="M142.411 307.589H122.557C109.796 307.589 105.49 318.138 105.49 330.594L109.341 446.225H126.771V355.32C126.781 353.909 127.297 352.55 128.222 351.501C129.147 350.452 130.416 349.785 131.79 349.628C135.243 349.226 138.206 351.862 138.206 355.168V446.225H155.632L160.17 330.594C160.165 318.138 155.168 307.589 142.411 307.589Z" fill="url(#paint3_linear)"/>
<path d="M123.016 456.443V472.004H105.779C105.41 472.022 105.045 471.924 104.732 471.722C104.42 471.521 104.176 471.227 104.033 470.88C103.89 470.532 103.854 470.148 103.932 469.78C104.009 469.411 104.196 469.076 104.466 468.819C107.927 465.566 112.343 460.441 110.89 456.443" fill="url(#paint4_linear)"/>
<path d="M141.195 456.443V472.004H158.437C158.806 472.022 159.171 471.924 159.483 471.722C159.795 471.521 160.039 471.227 160.182 470.88C160.326 470.532 160.361 470.148 160.284 469.78C160.206 469.411 160.02 469.076 159.75 468.819C156.292 465.566 151.873 460.441 153.325 456.443" fill="url(#paint5_linear)"/>
<path d="M123.213 439.612H111.739V454.879H123.213V439.612Z" fill="#FFD9CB"/>
<path d="M151.706 439.612H140.232V454.879H151.706V439.612Z" fill="#FFD9CB"/>
<path d="M141.562 307.589H122.776C110.702 307.589 106.623 318.026 106.623 330.353L110.268 444.772H126.762V354.833C126.748 353.466 127.223 352.141 128.097 351.106C128.971 350.071 130.184 349.396 131.51 349.208C132.27 349.115 133.041 349.187 133.772 349.419C134.503 349.652 135.177 350.04 135.751 350.558C136.324 351.076 136.783 351.712 137.099 352.424C137.414 353.136 137.578 353.908 137.58 354.69V444.772H154.074L158.362 330.353C158.362 318.026 153.636 307.589 141.562 307.589Z" fill="#212121"/>
<path d="M123.213 454.879V470.28H106.916C106.558 470.279 106.209 470.169 105.913 469.964C105.617 469.759 105.387 469.469 105.254 469.13C105.121 468.79 105.09 468.418 105.166 468.061C105.241 467.704 105.42 467.378 105.678 467.125C108.951 463.909 113.117 458.837 111.756 454.879" fill="#212121"/>
<path d="M140.416 454.879V470.28H156.73C157.088 470.279 157.437 470.169 157.734 469.964C158.03 469.759 158.259 469.469 158.392 469.13C158.526 468.79 158.556 468.418 158.481 468.061C158.405 467.704 158.227 467.378 157.969 467.125C154.695 463.909 150.529 458.837 151.89 454.879" fill="#212121"/>
<path d="M132.298 252.325C155.998 252.325 175.211 231.658 175.211 206.163C175.211 180.668 155.998 160 132.298 160C108.598 160 89.3854 180.668 89.3854 206.163C89.3854 231.658 108.598 252.325 132.298 252.325Z" fill="url(#paint6_linear)"/>
<path d="M132.298 250.024C154.816 250.024 173.071 230.387 173.071 206.163C173.071 181.939 154.816 162.301 132.298 162.301C109.78 162.301 91.5254 181.939 91.5254 206.163C91.5254 230.387 109.78 250.024 132.298 250.024Z" fill="#F9A826"/>
<path d="M131.699 244.524C150.272 244.524 165.329 228.793 165.329 209.389C165.329 189.984 150.272 174.253 131.699 174.253C113.125 174.253 98.0677 189.984 98.0677 209.389C98.0677 228.793 113.125 244.524 131.699 244.524Z" fill="#F9A826"/>
<path opacity="0.3" d="M132.136 243.184C150.71 243.184 165.767 227.453 165.767 208.048C165.767 188.643 150.71 172.912 132.136 172.912C113.562 172.912 98.5053 188.643 98.5053 208.048C98.5053 227.453 113.562 243.184 132.136 243.184Z" fill="black"/>
<path d="M162.165 228.232L156.615 248.109C156.319 249.169 156.921 250.274 157.96 250.577L165.691 252.827C166.73 253.129 167.813 252.514 168.109 251.454L173.658 231.577C173.955 230.516 173.352 229.411 172.313 229.108L164.582 226.859C163.543 226.556 162.461 227.171 162.165 228.232Z" fill="#BDBDBD"/>
<path d="M57.1274 244.119L56.4605 244.466C56.0318 244.688 55.8612 245.224 56.0793 245.661L60.144 253.816C60.3621 254.254 60.8864 254.428 61.3151 254.206L61.982 253.859C62.4106 253.636 62.5813 253.101 62.3632 252.663L58.2985 244.508C58.0804 244.071 57.5561 243.896 57.1274 244.119Z" fill="#FFCFBE"/>
<path d="M50.4889 248.128L50.1148 248.79C49.8743 249.215 50.017 249.759 50.4335 250.005L58.0511 254.495C58.4677 254.74 59.0003 254.595 59.2408 254.169L59.6149 253.508C59.8554 253.082 59.7127 252.539 59.2962 252.293L51.6785 247.803C51.262 247.557 50.7294 247.703 50.4889 248.128Z" fill="#FFCFBE"/>
<path d="M55.5971 253.818C54.6169 254.385 49.5011 257.794 56.0785 264.031C56.4819 264.411 57.0024 264.635 57.5504 264.666C58.0983 264.696 58.6394 264.53 59.0805 264.197L63.7193 260.689C64.1218 260.385 64.4189 259.957 64.5676 259.469C64.7164 258.981 64.7089 258.457 64.5463 257.973L63.2335 254.023C63.0401 253.446 62.7121 252.925 62.2778 252.506C61.8435 252.088 61.3159 251.783 60.7405 251.618C60.1652 251.454 59.5592 251.435 58.975 251.563C58.3908 251.69 57.8458 251.961 57.387 252.352L55.9472 253.581C55.839 253.672 55.7216 253.751 55.5971 253.818V253.818Z" fill="#FFCFBE"/>
<path d="M171.705 238.662H170.957C170.476 238.662 170.086 239.06 170.086 239.552V244.801C170.086 245.292 170.476 245.69 170.957 245.69H171.705C172.186 245.69 172.576 245.292 172.576 244.801V239.552C172.576 239.06 172.186 238.662 171.705 238.662Z" fill="#FFCFBE"/>
<path d="M165.754 244.136C165.754 244.136 157.098 244.287 162.607 255.435L171.797 253.523L172.773 244.14C172.8 243.92 172.774 243.697 172.695 243.49C172.617 243.283 172.49 243.099 172.325 242.955C172.161 242.811 171.963 242.71 171.751 242.663C171.539 242.616 171.319 242.623 171.11 242.683L165.754 244.136Z" fill="#FFCFBE"/>
<path d="M165.082 234.771L164.405 235.096C163.969 235.305 163.782 235.835 163.987 236.279L167.943 244.867C168.148 245.311 168.667 245.502 169.102 245.293L169.779 244.968C170.214 244.759 170.401 244.229 170.197 243.785L166.24 235.197C166.036 234.753 165.517 234.562 165.082 234.771Z" fill="#FFCFBE"/>
<path d="M163.466 236.152L162.789 236.477C162.354 236.686 162.167 237.216 162.371 237.66L165.692 244.869C165.897 245.313 166.416 245.504 166.851 245.295L167.528 244.97C167.964 244.761 168.15 244.231 167.946 243.787L164.625 236.578C164.42 236.134 163.901 235.943 163.466 236.152Z" fill="#FFCFBE"/>
<path d="M161.771 238.435L161.094 238.76C160.659 238.969 160.472 239.498 160.677 239.943L163.787 246.695C163.992 247.139 164.511 247.33 164.946 247.121L165.623 246.796C166.058 246.587 166.245 246.057 166.04 245.613L162.93 238.861C162.725 238.416 162.206 238.226 161.771 238.435Z" fill="#FFCFBE"/>
<path d="M160.385 241.353L159.708 241.678C159.273 241.887 159.086 242.417 159.29 242.861L161.935 248.603C162.14 249.047 162.659 249.238 163.094 249.029L163.771 248.703C164.206 248.494 164.393 247.965 164.188 247.52L161.544 241.779C161.339 241.335 160.82 241.144 160.385 241.353Z" fill="#FFCFBE"/>
<path d="M182.44 298.019C182.488 297.836 182.532 297.648 182.567 297.46C182.567 297.393 182.567 297.326 182.598 297.259C182.628 297.192 182.637 297 182.646 296.871C182.654 296.741 182.646 296.687 182.646 296.594C182.646 296.5 182.646 296.37 182.646 296.258C182.646 296.147 182.646 296.08 182.646 295.99C182.646 295.901 182.646 295.745 182.624 295.624C182.602 295.503 182.624 295.477 182.593 295.401C182.563 295.325 182.549 295.124 182.523 294.985C182.523 294.985 182.523 294.94 182.523 294.923L172.869 251.351C166.611 252.218 169.937 251.459 166.611 252.218C163.286 252.978 166.611 252.218 160.774 254.117L163.202 265.068L154.516 252.008C154.019 251.25 153.367 250.612 152.604 250.136C151.842 249.661 150.988 249.361 150.1 249.256C147.944 249.027 145.809 248.623 143.715 248.049C142.235 247.619 140.703 247.401 139.164 247.402H124.443C122.904 247.402 121.372 247.62 119.892 248.049C117.798 248.623 115.663 249.027 113.507 249.256C112.622 249.363 111.77 249.664 111.01 250.139C110.25 250.614 109.6 251.252 109.104 252.008L86.786 285.576L65.2334 257.075C60.0783 260.457 62.7696 258.326 60.0783 260.457C57.387 262.588 60.0783 260.457 55.4396 264.831L82.1779 300.186C82.6966 300.871 83.3492 301.439 84.0942 301.854C84.8392 302.268 85.6605 302.52 86.5059 302.594C86.554 302.594 86.6066 302.594 86.6547 302.594H87.0354H87.3593H87.5649C87.7312 302.594 87.8975 302.563 88.0682 302.536H88.0988C88.9451 302.405 89.7555 302.095 90.4786 301.628C91.2018 301.16 91.822 300.544 92.2999 299.819L108.229 275.813L110.054 314.153C110.062 316.796 111.094 319.328 112.925 321.197C114.756 323.065 117.237 324.118 119.826 324.125H143.759C146.348 324.118 148.829 323.065 150.66 321.197C152.491 319.328 153.523 316.796 153.531 314.153L155.352 275.813L171.333 299.828L171.395 299.909L171.543 300.11C171.622 300.222 171.705 300.333 171.793 300.436L171.858 300.507C172.505 301.248 173.313 301.823 174.217 302.187C174.241 302.194 174.265 302.203 174.287 302.214C174.445 302.272 174.602 302.33 174.76 302.375L175.001 302.438L175.324 302.514C175.429 302.536 175.539 302.549 175.644 302.563L175.915 302.598H176.226H176.528H176.769C176.9 302.598 177.035 302.598 177.167 302.572L177.311 302.549C177.477 302.527 177.644 302.5 177.81 302.464H177.858C178.042 302.42 178.23 302.366 178.414 302.308C178.936 302.133 179.432 301.887 179.889 301.575C181.114 300.742 182.004 299.486 182.396 298.037L182.44 298.019Z" fill="#F9A826"/>
<path d="M131.808 239.163C148.105 239.163 161.316 225.674 161.316 209.036C161.316 192.397 148.105 178.908 131.808 178.908C115.511 178.908 102.299 192.397 102.299 209.036C102.299 225.674 115.511 239.163 131.808 239.163Z" fill="#E53935"/>
<path d="M138.315 237.997C138.315 234.601 135.62 231.849 132.296 231.849C128.971 231.849 126.276 234.601 126.276 237.997V248.483C126.276 251.878 128.971 254.631 132.296 254.631C135.62 254.631 138.315 251.878 138.315 248.483V237.997Z" fill="#FFE0B2"/>
<path d="M131.808 237.559C144.412 237.559 154.63 227.127 154.63 214.259C154.63 201.39 144.412 190.958 131.808 190.958C119.204 190.958 108.986 201.39 108.986 214.259C108.986 227.127 119.204 237.559 131.808 237.559Z" fill="#FFE0B2"/>
<path d="M124.198 209.237C124.959 209.237 125.576 208.606 125.576 207.829C125.576 207.052 124.959 206.422 124.198 206.422C123.436 206.422 122.819 207.052 122.819 207.829C122.819 208.606 123.436 209.237 124.198 209.237Z" fill="#DB7657"/>
<path d="M139.414 209.237C140.175 209.237 140.792 208.606 140.792 207.829C140.792 207.052 140.175 206.422 139.414 206.422C138.652 206.422 138.035 207.052 138.035 207.829C138.035 208.606 138.652 209.237 139.414 209.237Z" fill="#DB7657"/>
<path d="M137.444 222.1C137.444 223.981 134.919 225.509 131.804 225.509C128.688 225.509 126.171 223.963 126.171 222.1C126.171 220.237 137.444 220.219 137.444 222.1Z" fill="white"/>
<path d="M120.526 188.952C120.526 188.952 116.855 207.717 156.201 203.951L146.494 187.616L120.526 188.952Z" fill="#E53935"/>
<path d="M110.35 216.769C111.577 216.322 111.961 214.21 111.207 212.051C110.453 209.891 108.847 208.503 107.62 208.95C106.393 209.396 106.009 211.509 106.763 213.668C107.517 215.827 109.123 217.216 110.35 216.769Z" fill="#FFCFBE"/>
<path d="M135.151 206.426H129.445V209.237H135.151V206.426Z" fill="#F9A826"/>
<path d="M166.97 234.194C167.649 234.194 168.2 233.632 168.2 232.939C168.2 232.246 167.649 231.683 166.97 231.683C166.291 231.683 165.741 232.246 165.741 232.939C165.741 233.632 166.291 234.194 166.97 234.194Z" fill="white"/>
<path d="M130.845 278.775C129.181 277.084 126.927 276.138 124.579 276.144C122.231 276.15 119.981 277.107 118.325 278.807C116.669 280.506 115.742 282.807 115.747 285.205C115.753 287.602 116.691 289.899 118.356 291.589L130.906 304.336L143.392 291.527C144.236 290.691 144.908 289.692 145.37 288.588C145.832 287.484 146.074 286.298 146.081 285.097C146.089 283.897 145.863 282.707 145.415 281.597C144.967 280.487 144.308 279.479 143.474 278.632C142.641 277.785 141.651 277.116 140.562 276.664C139.473 276.212 138.306 275.987 137.13 276C135.955 276.013 134.793 276.266 133.714 276.742C132.635 277.219 131.66 277.91 130.845 278.775V278.775Z" fill="white"/>
<path d="M157.621 214.536C158.384 212.381 158.01 210.268 156.786 209.816C155.561 209.364 153.95 210.744 153.186 212.899C152.423 215.053 152.797 217.167 154.021 217.619C155.246 218.071 156.857 216.691 157.621 214.536Z" fill="#FFCFBE"/>
<path d="M123.283 247.397C124.206 247.397 124.955 246.633 124.955 245.69C124.955 244.748 124.206 243.984 123.283 243.984C122.36 243.984 121.611 244.748 121.611 245.69C121.611 246.633 122.36 247.397 123.283 247.397Z" fill="white"/>
<path d="M123.436 245.69H122.999C122.721 245.69 122.495 245.92 122.495 246.204V262.651C122.495 262.934 122.721 263.164 122.999 263.164H123.436C123.714 263.164 123.94 262.934 123.94 262.651V246.204C123.94 245.92 123.714 245.69 123.436 245.69Z" fill="white"/>
<path d="M142.144 247.397C143.068 247.397 143.816 246.633 143.816 245.69C143.816 244.748 143.068 243.984 142.144 243.984C141.221 243.984 140.473 244.748 140.473 245.69C140.473 246.633 141.221 247.397 142.144 247.397Z" fill="white"/>
<path d="M142.363 245.69H141.926C141.648 245.69 141.422 245.92 141.422 246.204V259.738C141.422 260.021 141.648 260.251 141.926 260.251H142.363C142.641 260.251 142.866 260.021 142.866 259.738V246.204C142.866 245.92 142.641 245.69 142.363 245.69Z" fill="white"/>
<path d="M119.375 219.173C125.512 219.173 130.486 214.094 130.486 207.829C130.486 201.564 125.512 196.485 119.375 196.485C113.239 196.485 108.264 201.564 108.264 207.829C108.264 214.094 113.239 219.173 119.375 219.173Z" fill="#F9A826"/>
<path opacity="0.3" d="M119.375 215.778C123.675 215.778 127.16 212.219 127.16 207.829C127.16 203.439 123.675 199.881 119.375 199.881C115.076 199.881 111.59 203.439 111.59 207.829C111.59 212.219 115.076 215.778 119.375 215.778Z" fill="black"/>
<path d="M145.09 219.173C151.226 219.173 156.201 214.094 156.201 207.829C156.201 201.564 151.226 196.485 145.09 196.485C138.953 196.485 133.978 201.564 133.978 207.829C133.978 214.094 138.953 219.173 145.09 219.173Z" fill="#F9A826"/>
<path opacity="0.3" d="M145.09 215.778C149.389 215.778 152.875 212.219 152.875 207.829C152.875 203.439 149.389 199.881 145.09 199.881C140.79 199.881 137.304 203.439 137.304 207.829C137.304 212.219 140.79 215.778 145.09 215.778Z" fill="black"/>
<path d="M322.411 386.944C322.267 397.421 313.607 405.709 303.34 405.709H301.914C300.65 405.703 299.436 406.204 298.531 407.103C297.844 407.761 297.365 408.614 297.157 409.552C297.06 409.929 297.011 410.318 297.012 410.709V429.211C297.017 432.767 296.021 436.251 294.141 439.246C291.408 443.488 289.926 448.443 289.87 453.521V453.521C289.87 454.707 289.639 455.881 289.191 456.975C288.742 458.069 288.084 459.06 287.256 459.892C286.428 460.724 285.446 461.379 284.367 461.819C283.289 462.259 282.135 462.476 280.974 462.457C276.16 462.367 272.409 458.154 272.409 453.253V448.601L270.029 448.887V453.521C270.029 454.707 269.798 455.882 269.349 456.976C268.9 458.07 268.242 459.062 267.413 459.894C266.584 460.725 265.602 461.38 264.523 461.82C263.444 462.26 262.29 462.477 261.128 462.457C256.314 462.367 252.564 458.154 252.564 453.253V450.889C250.183 451.899 236.691 451.899 232.945 450.92L231.93 450.84V453.521C231.93 454.707 231.699 455.882 231.25 456.976C230.801 458.07 230.143 459.062 229.314 459.894C228.486 460.725 227.503 461.38 226.424 461.82C225.345 462.26 224.191 462.477 223.029 462.457C218.215 462.367 214.465 458.154 214.465 453.253V449.401L213.673 449.33V453.543C213.676 454.73 213.448 455.906 213 457.001C212.553 458.097 211.895 459.09 211.066 459.923C210.237 460.755 209.254 461.41 208.174 461.849C207.094 462.288 205.938 462.502 204.776 462.479C200.4 462.398 196.868 458.873 196.291 454.522C196.24 454.108 196.214 453.692 196.212 453.275V433.871C196.208 427.229 198.389 420.778 202.404 415.552C203.101 414.627 203.491 413.498 203.518 412.331C203.545 411.164 203.207 410.018 202.553 409.06C198.107 402.416 191.538 391.189 191.748 383.254C191.805 380.953 192.426 378.933 193.831 377.369C193.919 377.271 194.006 377.173 194.094 377.083C200.487 370.247 211.752 375.627 210.776 385.027C210.447 388.171 210.676 391.349 211.45 394.41C211.898 396.142 212.503 397.828 213.257 399.445C214.002 401.072 215.231 402.418 216.769 403.291C218.306 404.163 220.074 404.519 221.821 404.306C223.009 404.161 224.204 404.088 225.401 404.087H262.112C264.267 404.087 266.368 403.397 268.119 402.115C269.87 400.833 271.184 399.023 271.876 396.939C272.247 395.847 272.434 394.699 272.431 393.543V364.381C272.431 363.621 272.58 362.869 272.87 362.169C273.16 361.468 273.585 360.835 274.119 360.306C274.653 359.777 275.286 359.362 275.98 359.088C276.675 358.813 277.416 358.683 278.16 358.707C278.886 358.732 279.6 358.906 280.258 359.219C280.917 359.533 281.507 359.978 281.993 360.53C282.988 361.649 283.54 363.106 283.542 364.618C283.542 365.012 283.619 365.403 283.767 365.768C283.915 366.132 284.132 366.464 284.405 366.742C284.679 367.021 285.004 367.242 285.361 367.393C285.718 367.544 286.101 367.621 286.488 367.62H303.782C306.255 367.619 308.704 368.12 310.985 369.094C313.267 370.068 315.336 371.496 317.072 373.294C318.807 375.092 320.175 377.226 321.096 379.569C322.016 381.912 322.471 384.419 322.433 386.944H322.411Z" fill="#F3AD55"/>
<path d="M213.401 455.732C212.91 457.676 211.792 459.395 210.227 460.61C208.662 461.826 206.742 462.469 204.776 462.434C200.4 462.354 196.868 458.829 196.291 454.477C201.577 453.02 208.903 452.015 213.401 455.732Z" fill="#FBDCA3"/>
<path d="M231.659 455.732C231.167 457.677 230.048 459.396 228.483 460.612C226.917 461.828 224.996 462.47 223.029 462.434C218.653 462.354 215.126 458.829 214.548 454.477C219.821 453.02 227.16 452.015 231.659 455.732Z" fill="#FBDCA3"/>
<path d="M269.758 455.732C269.266 457.677 268.147 459.396 266.582 460.612C265.016 461.828 263.095 462.47 261.128 462.434C256.752 462.354 253.224 458.829 252.647 454.477C257.933 453.02 265.259 452.015 269.758 455.732Z" fill="#FBDCA3"/>
<path d="M289.599 455.732C289.108 457.676 287.99 459.395 286.425 460.61C284.86 461.826 282.94 462.469 280.974 462.434C276.597 462.354 273.066 458.829 272.488 454.477C277.775 453.02 285.1 452.015 289.599 455.732Z" fill="#FBDCA3"/>
<path d="M211.45 394.405C205.284 391.877 197.757 387.257 191.757 383.236C191.814 380.935 192.435 378.915 193.84 377.351C193.927 377.253 194.015 377.155 194.102 377.065C200.496 370.229 211.76 375.609 210.784 385.009C210.452 388.157 210.677 391.34 211.45 394.405V394.405Z" fill="#FBDCA3"/>
<path d="M218.915 404.141C218.915 404.141 235.899 425.967 263.679 404.087Z" fill="#FBDCA3"/>
<path d="M272.409 363.572C272.409 363.572 282.729 377.347 272.409 394.365Z" fill="#FBDCA3"/>
<path d="M297.012 410.57C297.012 410.57 287.927 422.102 296.898 431.261Z" fill="#FBDCA3"/>
<path opacity="0.1" d="M297.809 408.14C297.135 408.788 297.371 409.413 297.157 410.374L267.648 402.483C269.232 401.232 271.202 399.749 271.854 397.774C275.398 400.562 282.4 405.263 297.809 408.14Z" fill="black"/>
<path d="M298.531 407.103C297.844 407.761 297.365 408.614 297.157 409.552L268.397 401.894C270.004 400.631 271.208 398.909 271.858 396.948C275.398 399.754 283.109 404.226 298.531 407.103Z" fill="#383F4D"/>
<path opacity="0.1" d="M272.935 398.57C272.935 398.57 281.932 405.481 297.003 407.622Z" fill="black"/>
<path d="M272.935 397.765C272.935 397.765 281.932 404.673 297.003 406.813Z" fill="#F3AD55"/>
<path opacity="0.1" d="M295.428 398.418C295.428 398.418 310.508 403.279 314.477 387.882L295.428 398.418Z" fill="black"/>
<path d="M295.428 397.605C295.428 397.605 310.508 402.47 314.477 387.069L295.428 397.605Z" fill="#FBDCA3"/>
<path d="M322.416 387.882C323.293 387.882 324.004 386.612 324.004 385.045C324.004 383.478 323.293 382.208 322.416 382.208C321.538 382.208 320.827 383.478 320.827 385.045C320.827 386.612 321.538 387.882 322.416 387.882Z" fill="#383F4D"/>
<path opacity="0.1" d="M202.163 443.392L205.34 417.478C205.34 417.478 195.814 432.874 202.163 443.392Z" fill="black"/>
<path d="M206.133 417.46C206.133 417.46 196.61 432.856 202.96 443.374L206.133 417.46Z" fill="#FBDCA3"/>
</g>
<path d="M122.113 106.272C122.113 106.8 120.649 107.232 117.721 107.568C114.793 107.856 111.841 108 108.865 108C105.937 108 104.065 107.88 103.249 107.64C102.433 107.352 102.025 106.896 102.025 106.272V61.488C102.025 60.432 103.417 59.4 106.201 58.392C108.985 57.336 112.105 56.808 115.561 56.808C118.633 56.808 120.649 57.456 121.609 58.752C121.945 59.232 122.113 59.712 122.113 60.192V106.272ZM148.06 105.912C148.06 106.536 146.596 107.04 143.668 107.424C140.74 107.808 137.788 108 134.812 108C131.884 108 129.988 107.832 129.124 107.496C128.308 107.16 127.9 106.632 127.9 105.912V59.616C127.9 58.368 129.46 57.48 132.58 56.952C135.748 56.424 139.732 56.16 144.532 56.16C149.332 56.16 152.428 56.184 153.82 56.232C155.26 56.232 156.94 56.304 158.86 56.448C160.78 56.592 162.292 56.832 163.396 57.168C164.548 57.504 165.796 57.936 167.14 58.464C168.532 58.992 169.612 59.688 170.38 60.552C171.148 61.368 171.892 62.352 172.612 63.504C173.908 65.568 174.556 68.52 174.556 72.36C174.556 76.152 173.908 79.368 172.612 82.008C171.364 84.6 169.684 86.568 167.572 87.912C173.092 96.6 175.852 102.12 175.852 104.472C175.852 106.824 171.124 108 161.668 108C158.932 108 157.036 107.88 155.98 107.64C154.924 107.4 154.252 106.872 153.964 106.056L149.284 91.224L148.06 91.152V105.912ZM148.06 80.064H149.932C152.716 80.064 154.108 77.904 154.108 73.584C154.108 71.376 153.724 69.816 152.956 68.904C152.236 67.992 151.396 67.536 150.436 67.536H148.06V80.064ZM203.775 108.648C199.791 108.648 196.359 108.288 193.479 107.568C190.647 106.8 188.031 105.456 185.631 103.536C180.783 99.744 178.359 92.472 178.359 81.72C178.359 77.208 179.007 73.272 180.303 69.912C181.647 66.552 183.495 63.888 185.847 61.92C190.455 58.08 196.431 56.16 203.775 56.16C207.567 56.16 210.855 56.496 213.639 57.168C216.471 57.84 219.135 59.064 221.631 60.84C226.671 64.488 229.191 71.448 229.191 81.72C229.191 90.936 226.911 97.728 222.351 102.096C217.791 106.464 211.599 108.648 203.775 108.648ZM201.399 96.336C201.975 97.008 202.767 97.344 203.775 97.344C204.783 97.344 205.575 97.008 206.151 96.336C206.727 95.616 207.207 94.128 207.591 91.872C207.975 89.568 208.167 86.376 208.167 82.296C208.167 78.216 207.975 75.072 207.591 72.864C207.207 70.656 206.727 69.216 206.151 68.544C205.575 67.872 204.783 67.536 203.775 67.536C202.767 67.536 201.975 67.872 201.399 68.544C200.823 69.216 200.343 70.656 199.959 72.864C199.575 75.072 199.383 78.216 199.383 82.296C199.383 86.376 199.575 89.568 199.959 91.872C200.343 94.128 200.823 95.616 201.399 96.336ZM253.948 105.912C253.948 106.536 252.46 107.04 249.484 107.424C246.556 107.808 243.628 108 240.7 108C237.772 108 235.9 107.832 235.084 107.496C234.268 107.16 233.86 106.632 233.86 105.912V61.704C233.86 60.504 235.228 59.4 237.964 58.392C240.748 57.384 243.892 56.88 247.396 56.88C248.644 56.88 249.58 56.928 250.204 57.024C251.836 57.264 252.988 58.296 253.66 60.12L260.572 78.696H260.86V61.704C260.86 60.504 262.228 59.4 264.964 58.392C267.7 57.384 270.82 56.88 274.324 56.88C277.348 56.88 279.268 57.456 280.084 58.608C280.66 59.424 280.948 60.168 280.948 60.84V105.912C280.948 106.536 279.46 107.04 276.484 107.424C273.556 107.808 270.316 108 266.764 108C263.26 108 261.34 107.544 261.004 106.632L254.308 88.92H253.948V105.912ZM115.993 190H99.0005C96.6485 190 95.0645 189.832 94.2485 189.496C93.4325 189.16 93.0245 188.608 93.0245 187.84V142.408C93.0245 141.16 93.5525 140.272 94.6085 139.744C95.6645 139.168 97.4885 138.88 100.081 138.88H116.281C125.497 138.88 131.857 140.704 135.361 144.352C138.865 147.952 140.617 154.528 140.617 164.08C140.617 173.632 138.793 180.352 135.145 184.24C131.497 188.08 125.113 190 115.993 190ZM115.417 149.608C114.265 149.608 113.497 149.704 113.113 149.896V178.984L115.849 179.272C117.289 179.272 118.369 178.12 119.089 175.816C119.857 173.512 120.241 169.528 120.241 163.864C120.241 158.2 119.857 154.408 119.089 152.488C118.321 150.568 117.097 149.608 115.417 149.608ZM170.025 190.648C166.041 190.648 162.609 190.288 159.729 189.568C156.897 188.8 154.281 187.456 151.881 185.536C147.033 181.744 144.609 174.472 144.609 163.72C144.609 159.208 145.257 155.272 146.553 151.912C147.897 148.552 149.745 145.888 152.097 143.92C156.705 140.08 162.681 138.16 170.025 138.16C173.817 138.16 177.105 138.496 179.889 139.168C182.721 139.84 185.385 141.064 187.881 142.84C192.921 146.488 195.441 153.448 195.441 163.72C195.441 172.936 193.161 179.728 188.601 184.096C184.041 188.464 177.849 190.648 170.025 190.648ZM167.649 178.336C168.225 179.008 169.017 179.344 170.025 179.344C171.033 179.344 171.825 179.008 172.401 178.336C172.977 177.616 173.457 176.128 173.841 173.872C174.225 171.568 174.417 168.376 174.417 164.296C174.417 160.216 174.225 157.072 173.841 154.864C173.457 152.656 172.977 151.216 172.401 150.544C171.825 149.872 171.033 149.536 170.025 149.536C169.017 149.536 168.225 149.872 167.649 150.544C167.073 151.216 166.593 152.656 166.209 154.864C165.825 157.072 165.633 160.216 165.633 164.296C165.633 168.376 165.825 171.568 166.209 173.872C166.593 176.128 167.073 177.616 167.649 178.336ZM215.734 190.576C214.102 190.576 212.59 190.408 211.198 190.072C209.806 189.736 208.342 189.04 206.806 187.984C205.318 186.88 204.046 185.44 202.99 183.664C200.59 179.632 199.39 173.56 199.39 165.448C199.39 160.984 199.99 157.048 201.19 153.64C202.39 150.232 203.902 147.592 205.726 145.72C207.55 143.8 209.734 142.24 212.278 141.04C214.822 139.84 217.198 139.072 219.406 138.736C221.614 138.352 223.966 138.16 226.462 138.16C232.222 138.16 236.278 138.664 238.63 139.672C240.982 140.632 242.158 142.504 242.158 145.288C242.158 147.496 241.75 149.896 240.934 152.488C240.118 155.032 238.918 156.304 237.334 156.304C236.95 156.304 235.318 155.944 232.438 155.224C229.558 154.456 227.398 154.072 225.958 154.072C221.83 154.072 219.766 157.552 219.766 164.512C219.766 168.016 220.246 170.632 221.206 172.36C222.166 174.04 223.366 174.976 224.806 175.168V168.688C224.806 167.488 226.03 166.384 228.478 165.376C230.926 164.368 233.278 163.864 235.534 163.864C237.79 163.864 239.422 164.008 240.43 164.296C241.486 164.584 242.206 164.992 242.59 165.52C243.262 166.384 243.598 167.152 243.598 167.824V187.768C243.598 188.392 242.326 188.896 239.782 189.28C237.286 189.664 234.67 189.856 231.934 189.856C229.246 189.856 227.542 189.736 226.822 189.496C226.102 189.208 225.694 188.464 225.598 187.264L225.094 183.016H224.518C224.182 185.08 223.318 186.856 221.926 188.344C220.582 189.832 218.518 190.576 215.734 190.576ZM285.274 186.976C283.834 188.032 281.818 188.92 279.226 189.64C276.682 190.312 273.37 190.648 269.29 190.648C265.258 190.648 261.418 190.312 257.77 189.64C254.122 188.968 251.506 188.224 249.922 187.408C248.338 186.592 247.546 185.8 247.546 185.032C247.546 182.344 247.93 179.56 248.698 176.68C249.466 173.752 250.378 172.288 251.434 172.288C251.626 172.288 253.618 172.936 257.41 174.232C261.202 175.528 264.058 176.176 265.978 176.176C267.898 176.176 269.146 175.984 269.722 175.6C270.298 175.168 270.586 174.568 270.586 173.8C270.586 173.032 270.058 172.36 269.002 171.784C267.946 171.16 266.626 170.632 265.042 170.2C263.458 169.72 261.73 169.048 259.858 168.184C258.034 167.32 256.33 166.36 254.746 165.304C253.162 164.248 251.842 162.76 250.786 160.84C249.73 158.872 249.202 156.64 249.202 154.144C249.202 143.488 255.562 138.16 268.282 138.16C273.034 138.16 277.138 138.472 280.594 139.096C284.05 139.672 286.474 140.344 287.866 141.112C289.306 141.832 290.026 142.552 290.026 143.272C290.026 145.768 289.426 148.456 288.226 151.336C287.074 154.216 285.946 155.656 284.842 155.656C284.65 155.656 284.026 155.44 282.97 155.008C279.802 153.616 277.162 152.92 275.05 152.92C272.986 152.92 271.57 153.112 270.802 153.496C270.082 153.88 269.722 154.48 269.722 155.296C269.722 156.064 270.25 156.712 271.306 157.24C272.362 157.72 273.658 158.176 275.194 158.608C276.778 158.992 278.482 159.616 280.306 160.48C282.178 161.296 283.906 162.28 285.49 163.432C287.074 164.536 288.394 166.12 289.45 168.184C290.506 170.248 291.034 172.648 291.034 175.384C291.034 178.264 290.29 180.88 288.802 183.232C287.89 184.672 286.714 185.92 285.274 186.976Z" fill="black"/>
<path d="M117.721 107.568L117.818 108.563L117.826 108.562L117.835 108.561L117.721 107.568ZM103.249 107.64L102.916 108.583L102.941 108.592L102.966 108.599L103.249 107.64ZM106.201 58.392L106.541 59.3323L106.548 59.3297L106.555 59.327L106.201 58.392ZM121.609 58.752L122.428 58.1785L122.42 58.1675L122.412 58.1568L121.609 58.752ZM121.113 106.272C121.113 105.891 121.379 105.755 121.29 105.814C121.228 105.854 121.062 105.935 120.732 106.033C120.084 106.224 119.056 106.408 117.607 106.575L117.835 108.561C119.313 108.392 120.481 108.192 121.298 107.951C121.699 107.833 122.082 107.686 122.386 107.486C122.663 107.305 123.113 106.917 123.113 106.272H121.113ZM117.623 106.573C114.728 106.858 111.808 107 108.865 107V109C111.873 109 114.858 108.854 117.818 108.563L117.623 106.573ZM108.865 107C107.411 107 106.235 106.97 105.329 106.912C104.4 106.853 103.824 106.767 103.531 106.681L102.966 108.599C103.489 108.753 104.257 108.847 105.201 108.908C106.166 108.97 107.39 109 108.865 109V107ZM103.581 106.697C103.27 106.587 103.131 106.477 103.076 106.415C103.039 106.375 103.025 106.343 103.025 106.272H101.025C101.025 106.825 101.214 107.333 101.585 107.749C101.938 108.143 102.411 108.405 102.916 108.583L103.581 106.697ZM103.025 106.272V61.488H101.025V106.272H103.025ZM103.025 61.488C103.025 61.4359 103.059 61.1736 103.664 60.7253C104.246 60.2938 105.185 59.8231 106.541 59.3323L105.86 57.4517C104.432 57.9689 103.283 58.5182 102.473 59.1187C101.686 59.7024 101.025 60.4841 101.025 61.488H103.025ZM106.555 59.327C109.209 58.3203 112.207 57.808 115.561 57.808V55.808C112.003 55.808 108.76 56.3517 105.846 57.457L106.555 59.327ZM115.561 57.808C118.583 57.808 120.15 58.463 120.805 59.3472L122.412 58.1568C121.147 56.449 118.682 55.808 115.561 55.808V57.808ZM120.789 59.3255C121.034 59.675 121.113 59.9588 121.113 60.192H123.113C123.113 59.4652 122.855 58.789 122.428 58.1785L120.789 59.3255ZM121.113 60.192V106.272H123.113V60.192H121.113ZM143.668 107.424L143.537 106.432L143.537 106.432L143.668 107.424ZM129.124 107.496L128.743 108.421L128.752 108.424L128.761 108.428L129.124 107.496ZM132.58 56.952L132.415 55.9656L132.413 55.966L132.58 56.952ZM153.82 56.232L153.785 57.2314L153.802 57.232H153.82V56.232ZM158.86 56.448L158.785 57.4452L158.785 57.4452L158.86 56.448ZM163.396 57.168L163.104 58.1247L163.116 58.128L163.396 57.168ZM167.14 58.464L166.774 59.3948L166.785 59.399L167.14 58.464ZM170.38 60.552L169.632 61.2164L169.642 61.227L169.651 61.2374L170.38 60.552ZM172.612 63.504L171.764 64.034L171.765 64.0358L172.612 63.504ZM172.612 82.008L171.714 81.5673L171.711 81.5742L172.612 82.008ZM167.572 87.912L167.035 87.0683L166.192 87.6048L166.727 88.4483L167.572 87.912ZM155.98 107.64L155.758 108.615L155.758 108.615L155.98 107.64ZM153.964 106.056L153.01 106.357L153.015 106.373L153.021 106.389L153.964 106.056ZM149.284 91.224L150.237 90.9231L150.03 90.2662L149.342 90.2257L149.284 91.224ZM148.06 91.152L148.118 90.1537L147.06 90.0914V91.152H148.06ZM148.06 80.064H147.06V81.064H148.06V80.064ZM152.956 68.904L152.171 69.5236L152.18 69.536L152.191 69.5481L152.956 68.904ZM148.06 67.536V66.536H147.06V67.536H148.06ZM147.06 105.912C147.06 105.63 147.235 105.519 147.175 105.565C147.116 105.61 146.959 105.701 146.636 105.812C146.001 106.031 144.983 106.243 143.537 106.432L143.798 108.416C145.28 108.221 146.458 107.989 147.287 107.704C147.696 107.563 148.088 107.387 148.395 107.15C148.702 106.914 149.06 106.506 149.06 105.912H147.06ZM143.537 106.432C140.653 106.811 137.744 107 134.812 107V109C137.831 109 140.826 108.805 143.798 108.416L143.537 106.432ZM134.812 107C133.363 107 132.189 106.958 131.282 106.878C130.351 106.795 129.779 106.678 129.486 106.564L128.761 108.428C129.332 108.65 130.14 108.785 131.105 108.87C132.094 108.958 133.332 109 134.812 109V107ZM129.504 106.571C129.208 106.449 129.065 106.324 128.997 106.237C128.939 106.162 128.9 106.069 128.9 105.912H126.9C126.9 106.475 127.064 107.006 127.414 107.459C127.754 107.9 128.223 108.207 128.743 108.421L129.504 106.571ZM128.9 105.912V59.616H126.9V105.912H128.9ZM128.9 59.616C128.9 59.4974 128.945 59.2357 129.564 58.8831C130.193 58.525 131.228 58.195 132.746 57.938L132.413 55.966C130.811 56.237 129.506 56.615 128.575 57.1449C127.634 57.6803 126.9 58.4866 126.9 59.616H128.9ZM132.744 57.9384C135.838 57.4227 139.762 57.16 144.532 57.16V55.16C139.701 55.16 135.657 55.4253 132.415 55.9656L132.744 57.9384ZM144.532 57.16C149.336 57.16 152.414 57.1841 153.785 57.2314L153.854 55.2326C152.441 55.1839 149.327 55.16 144.532 55.16V57.16ZM153.82 57.232C155.228 57.232 156.882 57.3025 158.785 57.4452L158.934 55.4508C156.997 55.3055 155.291 55.232 153.82 55.232V57.232ZM158.785 57.4452C160.673 57.5868 162.102 57.8196 163.104 58.1247L163.687 56.2113C162.481 55.8444 160.886 55.5972 158.934 55.4508L158.785 57.4452ZM163.116 58.128C164.233 58.4541 165.453 58.8757 166.774 59.3947L167.505 57.5332C166.139 56.9963 164.862 56.5539 163.676 56.208L163.116 58.128ZM166.785 59.399C168.068 59.8858 168.998 60.5026 169.632 61.2164L171.127 59.8876C170.225 58.8734 168.995 58.0982 167.494 57.529L166.785 59.399ZM169.651 61.2374C170.366 61.9968 171.071 62.9263 171.764 64.034L173.46 62.974C172.712 61.7777 171.929 60.7392 171.108 59.8666L169.651 61.2374ZM171.765 64.0358C172.919 65.8734 173.556 68.6091 173.556 72.36H175.556C175.556 68.4309 174.897 65.2626 173.458 62.9722L171.765 64.0358ZM173.556 72.36C173.556 76.0419 172.926 79.0982 171.714 81.5673L173.509 82.4487C174.889 79.6378 175.556 76.2621 175.556 72.36H173.556ZM171.711 81.5742C170.531 84.0239 168.967 85.8386 167.035 87.0683L168.108 88.7557C170.4 87.2974 172.196 85.1761 173.513 82.4418L171.711 81.5742ZM166.727 88.4483C169.48 92.7797 171.529 96.2991 172.887 99.0152C173.566 100.374 174.064 101.515 174.39 102.445C174.722 103.391 174.852 104.052 174.852 104.472H176.852C176.852 103.716 176.636 102.805 176.278 101.783C175.914 100.745 175.377 99.5224 174.676 98.1208C173.274 95.3169 171.184 91.7323 168.416 87.3757L166.727 88.4483ZM174.852 104.472C174.852 104.665 174.776 104.909 174.367 105.214C173.93 105.54 173.19 105.867 172.064 106.148C169.822 106.705 166.375 107 161.668 107V109C166.416 109 170.061 108.707 172.547 108.088C173.785 107.781 174.818 107.373 175.563 106.817C176.336 106.24 176.852 105.455 176.852 104.472H174.852ZM161.668 107C158.927 107 157.135 106.877 156.201 106.665L155.758 108.615C156.936 108.883 158.936 109 161.668 109V107ZM156.201 106.665C155.384 106.479 155.051 106.132 154.907 105.723L153.021 106.389C153.452 107.612 154.464 108.321 155.758 108.615L156.201 106.665ZM154.917 105.755L150.237 90.9231L148.33 91.5249L153.01 106.357L154.917 105.755ZM149.342 90.2257L148.118 90.1537L148.001 92.1503L149.225 92.2223L149.342 90.2257ZM147.06 91.152V105.912H149.06V91.152H147.06ZM148.06 81.064H149.932V79.064H148.06V81.064ZM149.932 81.064C151.63 81.064 153.006 80.3787 153.904 78.9857C154.753 77.6681 155.108 75.8194 155.108 73.584H153.108C153.108 75.6686 152.766 77.0599 152.223 77.9023C151.729 78.6693 151.017 79.064 149.932 79.064V81.064ZM155.108 73.584C155.108 71.317 154.725 69.4523 153.72 68.2599L152.191 69.5481C152.722 70.1797 153.108 71.435 153.108 73.584H155.108ZM153.74 68.2844C152.875 67.1883 151.767 66.536 150.436 66.536V68.536C151.024 68.536 151.596 68.7957 152.171 69.5236L153.74 68.2844ZM150.436 66.536H148.06V68.536H150.436V66.536ZM147.06 67.536V80.064H149.06V67.536H147.06ZM193.479 107.568L193.217 108.533L193.226 108.536L193.236 108.538L193.479 107.568ZM185.631 103.536L186.255 102.755L186.247 102.748L185.631 103.536ZM180.303 69.912L179.374 69.5406L179.37 69.5521L180.303 69.912ZM185.847 61.92L185.206 61.1518L185.205 61.1531L185.847 61.92ZM213.639 57.168L213.404 58.1401L213.408 58.141L213.639 57.168ZM221.631 60.84L222.217 60.0299L222.21 60.0252L221.631 60.84ZM222.351 102.096L223.042 102.818L223.042 102.818L222.351 102.096ZM201.399 96.336L200.618 96.9607L200.628 96.9739L200.639 96.9868L201.399 96.336ZM206.151 96.336L206.91 96.9868L206.921 96.9739L206.931 96.9607L206.151 96.336ZM207.591 91.872L208.576 92.0398L208.577 92.0364L207.591 91.872ZM207.591 72.864L208.576 72.6927L208.576 72.6927L207.591 72.864ZM201.399 68.544L202.158 69.1948L202.158 69.1948L201.399 68.544ZM199.959 72.864L200.944 73.0353L200.944 73.0353L199.959 72.864ZM199.959 91.872L198.972 92.0364L198.973 92.0398L199.959 91.872ZM203.775 107.648C199.846 107.648 196.5 107.293 193.721 106.598L193.236 108.538C196.217 109.283 199.735 109.648 203.775 109.648V107.648ZM193.74 106.603C191.047 105.872 188.553 104.594 186.255 102.755L185.006 104.317C187.508 106.318 190.246 107.728 193.217 108.533L193.74 106.603ZM186.247 102.748C181.774 99.2497 179.359 92.3856 179.359 81.72H177.359C177.359 92.5584 179.791 100.238 185.014 104.324L186.247 102.748ZM179.359 81.72C179.359 77.3011 179.994 73.4921 181.236 70.2719L179.37 69.5521C178.02 73.0519 177.359 77.1149 177.359 81.72H179.359ZM181.231 70.2834C182.525 67.0493 184.284 64.5312 186.488 62.6869L185.205 61.1531C182.705 63.2448 180.768 66.0547 179.374 69.5406L181.231 70.2834ZM186.487 62.6882C190.877 59.0294 196.61 57.16 203.775 57.16V55.16C196.251 55.16 190.032 57.1306 185.206 61.1518L186.487 62.6882ZM203.775 57.16C207.511 57.16 210.717 57.4915 213.404 58.1401L213.873 56.1959C210.992 55.5005 207.622 55.16 203.775 55.16V57.16ZM213.408 58.141C216.108 58.7817 218.654 59.9495 221.051 61.6548L222.21 60.0252C219.615 58.1785 216.833 56.8983 213.869 56.195L213.408 58.141ZM221.044 61.6501C225.692 65.0141 228.191 71.5597 228.191 81.72H230.191C230.191 71.3363 227.649 63.9619 222.217 60.0299L221.044 61.6501ZM228.191 81.72C228.191 90.7893 225.946 97.2668 221.659 101.374L223.042 102.818C227.875 98.1892 230.191 91.0827 230.191 81.72H228.191ZM221.659 101.374C217.327 105.523 211.406 107.648 203.775 107.648V109.648C211.792 109.648 218.254 107.405 223.042 102.818L221.659 101.374ZM200.639 96.9868C201.433 97.9126 202.52 98.344 203.775 98.344V96.344C203.013 96.344 202.516 96.1034 202.158 95.6852L200.639 96.9868ZM203.775 98.344C205.029 98.344 206.116 97.9126 206.91 96.9868L205.391 95.6852C205.033 96.1034 204.536 96.344 203.775 96.344V98.344ZM206.931 96.9607C207.33 96.4624 207.639 95.7775 207.894 94.987C208.154 94.1819 208.38 93.1955 208.576 92.0398L206.605 91.7042C206.417 92.8045 206.211 93.6901 205.991 94.373C205.766 95.0705 205.547 95.4896 205.37 95.7113L206.931 96.9607ZM208.577 92.0364C208.974 89.6524 209.167 86.3969 209.167 82.296H207.167C207.167 86.3551 206.975 89.4836 206.604 91.7076L208.577 92.0364ZM209.167 82.296C209.167 78.197 208.975 74.9855 208.576 72.6927L206.605 73.0353C206.975 75.1585 207.167 78.235 207.167 82.296H209.167ZM208.576 72.6927C208.379 71.5603 208.153 70.5956 207.891 69.8118C207.635 69.0442 207.322 68.3736 206.91 67.8932L205.391 69.1948C205.556 69.3864 205.77 69.7718 205.994 70.4442C206.213 71.1004 206.418 71.9597 206.605 73.0353L208.576 72.6927ZM206.91 67.8932C206.116 66.9674 205.029 66.536 203.775 66.536V68.536C204.536 68.536 205.033 68.7766 205.391 69.1948L206.91 67.8932ZM203.775 66.536C202.52 66.536 201.433 66.9674 200.639 67.8932L202.158 69.1948C202.516 68.7766 203.013 68.536 203.775 68.536V66.536ZM200.639 67.8932C200.228 68.3736 199.914 69.0442 199.658 69.8118C199.397 70.5956 199.17 71.5603 198.973 72.6927L200.944 73.0353C201.131 71.9597 201.337 71.1004 201.555 70.4442C201.779 69.7718 201.994 69.3864 202.158 69.1948L200.639 67.8932ZM198.973 72.6927C198.575 74.9855 198.383 78.197 198.383 82.296H200.383C200.383 78.235 200.575 75.1585 200.944 73.0353L198.973 72.6927ZM198.383 82.296C198.383 86.3969 198.575 89.6524 198.972 92.0364L200.945 91.7076C200.574 89.4836 200.383 86.3551 200.383 82.296H198.383ZM198.973 92.0398C199.169 93.1955 199.395 94.1819 199.655 94.987C199.91 95.7775 200.219 96.4624 200.618 96.9607L202.179 95.7113C202.002 95.4896 201.783 95.0705 201.558 94.373C201.338 93.6901 201.132 92.8045 200.944 91.7042L198.973 92.0398ZM249.484 107.424L249.356 106.432L249.354 106.432L249.484 107.424ZM235.084 107.496L235.465 106.571L235.465 106.571L235.084 107.496ZM237.964 58.392L237.624 57.4517L237.619 57.4537L237.964 58.392ZM250.204 57.024L250.052 58.0124L250.059 58.0134L250.204 57.024ZM253.66 60.12L252.722 60.4657L252.723 60.4687L253.66 60.12ZM260.572 78.696L259.635 79.0447L259.878 79.696H260.572V78.696ZM260.86 78.696V79.696H261.86V78.696H260.86ZM264.964 58.392L265.31 59.3303L265.31 59.3303L264.964 58.392ZM280.084 58.608L280.901 58.0313L280.9 58.03L280.084 58.608ZM276.484 107.424L276.356 106.432L276.354 106.432L276.484 107.424ZM261.004 106.632L261.943 106.286L261.94 106.278L261.004 106.632ZM254.308 88.92L255.244 88.5664L254.999 87.92H254.308V88.92ZM253.948 88.92V87.92H252.948V88.92H253.948ZM252.948 105.912C252.948 105.623 253.13 105.512 253.065 105.561C253.004 105.607 252.841 105.699 252.512 105.811C251.864 106.03 250.827 106.243 249.356 106.432L249.612 108.416C251.118 108.221 252.313 107.99 253.153 107.705C253.568 107.565 253.963 107.39 254.274 107.154C254.581 106.921 254.948 106.513 254.948 105.912H252.948ZM249.354 106.432C246.469 106.811 243.585 107 240.7 107V109C243.672 109 246.644 108.805 249.615 108.416L249.354 106.432ZM240.7 107C239.252 107 238.085 106.958 237.19 106.878C236.267 106.795 235.724 106.678 235.465 106.571L234.704 108.421C235.261 108.65 236.062 108.785 237.011 108.87C237.988 108.958 239.221 109 240.7 109V107ZM235.465 106.571C235.169 106.449 235.026 106.324 234.958 106.237C234.9 106.162 234.86 106.069 234.86 105.912H232.86C232.86 106.475 233.025 107.006 233.375 107.459C233.715 107.9 234.184 108.207 234.704 108.421L235.465 106.571ZM234.86 105.912V61.704H232.86V105.912H234.86ZM234.86 61.704C234.86 61.5265 234.953 61.2075 235.514 60.7542C236.076 60.3009 236.986 59.8181 238.31 59.3303L237.619 57.4537C236.207 57.9739 235.065 58.5471 234.258 59.1978C233.452 59.8485 232.86 60.6815 232.86 61.704H234.86ZM238.305 59.3323C240.962 58.3703 243.988 57.88 247.396 57.88V55.88C243.797 55.88 240.535 56.3977 237.624 57.4517L238.305 59.3323ZM247.396 57.88C248.633 57.88 249.506 57.9284 250.052 58.0124L250.357 56.0356C249.654 55.9276 248.656 55.88 247.396 55.88V57.88ZM250.059 58.0134C251.257 58.1896 252.15 58.9116 252.722 60.4657L254.599 59.7743C253.827 57.6804 252.416 56.3384 250.35 56.0346L250.059 58.0134ZM252.723 60.4687L259.635 79.0447L261.51 78.3473L254.598 59.7713L252.723 60.4687ZM260.572 79.696H260.86V77.696H260.572V79.696ZM261.86 78.696V61.704H259.86V78.696H261.86ZM261.86 61.704C261.86 61.5265 261.953 61.2075 262.514 60.7542C263.076 60.3009 263.986 59.8181 265.31 59.3303L264.619 57.4537C263.207 57.9739 262.065 58.5471 261.258 59.1978C260.452 59.8485 259.86 60.6815 259.86 61.704H261.86ZM265.31 59.3303C267.916 58.3704 270.915 57.88 274.324 57.88V55.88C270.726 55.88 267.485 56.3976 264.619 57.4537L265.31 59.3303ZM274.324 57.88C275.783 57.88 276.913 58.0201 277.745 58.2698C278.579 58.52 279.034 58.8547 279.268 59.186L280.9 58.03C280.319 57.2093 279.406 56.68 278.32 56.3542C277.232 56.0279 275.89 55.88 274.324 55.88V57.88ZM279.268 59.1847C279.779 59.9097 279.948 60.4527 279.948 60.84H281.948C281.948 59.8833 281.542 58.9383 280.901 58.0313L279.268 59.1847ZM279.948 60.84V105.912H281.948V60.84H279.948ZM279.948 105.912C279.948 105.623 280.13 105.512 280.065 105.561C280.004 105.607 279.841 105.699 279.512 105.811C278.864 106.03 277.827 106.243 276.356 106.432L276.612 108.416C278.118 108.221 279.313 107.99 280.153 107.705C280.568 107.565 280.963 107.39 281.274 107.154C281.581 106.921 281.948 106.513 281.948 105.912H279.948ZM276.354 106.432C273.477 106.81 270.281 107 266.764 107V109C270.352 109 273.636 108.806 276.615 108.416L276.354 106.432ZM266.764 107C265.04 107 263.775 106.886 262.928 106.685C262.504 106.584 262.232 106.473 262.072 106.375C261.915 106.28 261.925 106.237 261.943 106.286L260.066 106.978C260.252 107.483 260.628 107.839 261.035 108.086C261.439 108.33 261.929 108.504 262.465 108.631C263.538 108.886 264.985 109 266.764 109V107ZM261.94 106.278L255.244 88.5664L253.373 89.2736L260.069 106.986L261.94 106.278ZM254.308 87.92H253.948V89.92H254.308V87.92ZM252.948 88.92V105.912H254.948V88.92H252.948ZM94.2485 189.496L94.6293 188.571L94.6293 188.571L94.2485 189.496ZM94.6085 139.744L95.0557 140.638L95.0717 140.63L95.0874 140.622L94.6085 139.744ZM135.361 144.352L134.639 145.045L134.644 145.049L135.361 144.352ZM135.145 184.24L135.87 184.929L135.874 184.924L135.145 184.24ZM113.113 149.896L112.665 149.002L112.113 149.278V149.896H113.113ZM113.113 178.984H112.113V179.884L113.008 179.979L113.113 178.984ZM115.849 179.272L115.744 180.267L115.796 180.272H115.849V179.272ZM119.089 175.816L118.14 175.5L118.137 175.509L118.134 175.518L119.089 175.816ZM119.089 152.488L118.16 152.859L118.16 152.859L119.089 152.488ZM115.993 189H99.0005V191H115.993V189ZM99.0005 189C97.8449 189 96.8988 188.959 96.154 188.88C95.3936 188.799 94.9054 188.685 94.6293 188.571L93.8678 190.421C94.4076 190.643 95.1194 190.781 95.9431 190.868C96.7823 190.957 97.8042 191 99.0005 191V189ZM94.6293 188.571C94.3426 188.453 94.2035 188.329 94.1347 188.236C94.0729 188.152 94.0245 188.037 94.0245 187.84H92.0245C92.0245 188.411 92.1802 188.956 92.5264 189.424C92.8656 189.883 93.3385 190.203 93.8678 190.421L94.6293 188.571ZM94.0245 187.84V142.408H92.0245V187.84H94.0245ZM94.0245 142.408C94.0245 141.926 94.1254 141.577 94.2801 141.317C94.4328 141.06 94.674 140.829 95.0557 140.638L94.1613 138.85C93.4871 139.187 92.9363 139.664 92.561 140.295C92.1876 140.923 92.0245 141.642 92.0245 142.408H94.0245ZM95.0874 140.622C95.9047 140.176 97.5046 139.88 100.081 139.88V137.88C97.4724 137.88 95.4243 138.16 94.1297 138.866L95.0874 140.622ZM100.081 139.88H116.281V137.88H100.081V139.88ZM116.281 139.88C125.429 139.88 131.43 141.703 134.639 145.045L136.082 143.659C132.283 139.705 125.564 137.88 116.281 137.88V139.88ZM134.644 145.049C137.86 148.354 139.617 154.58 139.617 164.08H141.617C141.617 154.476 139.869 147.55 136.077 143.655L134.644 145.049ZM139.617 164.08C139.617 173.56 137.795 179.953 134.415 183.556L135.874 184.924C139.79 180.751 141.617 173.704 141.617 164.08H139.617ZM134.42 183.551C131.058 187.089 125.024 189 115.993 189V191C125.201 191 131.935 189.071 135.87 184.929L134.42 183.551ZM115.417 148.608C114.817 148.608 114.292 148.633 113.852 148.688C113.431 148.74 113.01 148.829 112.665 149.002L113.56 150.79C113.6 150.771 113.754 150.716 114.101 150.672C114.429 150.631 114.864 150.608 115.417 150.608V148.608ZM112.113 149.896V178.984H114.113V149.896H112.113ZM113.008 179.979L115.744 180.267L115.953 178.277L113.217 177.989L113.008 179.979ZM115.849 180.272C117.99 180.272 119.294 178.511 120.043 176.114L118.134 175.518C117.443 177.729 116.587 178.272 115.849 178.272V180.272ZM120.037 176.132C120.861 173.66 121.241 169.531 121.241 163.864H119.241C119.241 169.525 118.852 173.364 118.14 175.5L120.037 176.132ZM121.241 163.864C121.241 161.013 121.144 158.613 120.947 156.671C120.753 154.747 120.453 153.208 120.017 152.117L118.16 152.859C118.492 153.688 118.769 155.005 118.958 156.873C119.145 158.723 119.241 161.051 119.241 163.864H121.241ZM120.017 152.117C119.588 151.045 119.001 150.16 118.212 149.541C117.409 148.912 116.461 148.608 115.417 148.608V150.608C116.052 150.608 116.556 150.784 116.977 151.115C117.413 151.456 117.821 152.011 118.16 152.859L120.017 152.117ZM159.729 189.568L159.467 190.533L159.476 190.536L159.486 190.538L159.729 189.568ZM151.881 185.536L152.505 184.755L152.497 184.748L151.881 185.536ZM146.553 151.912L145.624 151.541L145.62 151.552L146.553 151.912ZM152.097 143.92L151.456 143.152L151.455 143.153L152.097 143.92ZM179.889 139.168L179.654 140.14L179.658 140.141L179.889 139.168ZM187.881 142.84L188.467 142.03L188.46 142.025L187.881 142.84ZM188.601 184.096L189.292 184.818L189.292 184.818L188.601 184.096ZM167.649 178.336L166.868 178.961L166.878 178.974L166.889 178.987L167.649 178.336ZM172.401 178.336L173.16 178.987L173.171 178.974L173.181 178.961L172.401 178.336ZM173.841 173.872L174.826 174.04L174.827 174.036L173.841 173.872ZM173.841 154.864L174.826 154.693L174.826 154.693L173.841 154.864ZM167.649 150.544L168.408 151.195L168.408 151.195L167.649 150.544ZM166.209 154.864L167.194 155.035L167.194 155.035L166.209 154.864ZM166.209 173.872L165.222 174.036L165.223 174.04L166.209 173.872ZM170.025 189.648C166.096 189.648 162.75 189.293 159.971 188.598L159.486 190.538C162.467 191.283 165.985 191.648 170.025 191.648V189.648ZM159.99 188.603C157.297 187.872 154.803 186.594 152.505 184.755L151.256 186.317C153.758 188.318 156.496 189.728 159.467 190.533L159.99 188.603ZM152.497 184.748C148.024 181.25 145.609 174.386 145.609 163.72H143.609C143.609 174.558 146.041 182.238 151.264 186.324L152.497 184.748ZM145.609 163.72C145.609 159.301 146.244 155.492 147.486 152.272L145.62 151.552C144.27 155.052 143.609 159.115 143.609 163.72H145.609ZM147.481 152.283C148.775 149.049 150.534 146.531 152.738 144.687L151.455 143.153C148.955 145.245 147.018 148.055 145.624 151.541L147.481 152.283ZM152.737 144.688C157.127 141.029 162.86 139.16 170.025 139.16V137.16C162.501 137.16 156.282 139.131 151.456 143.152L152.737 144.688ZM170.025 139.16C173.761 139.16 176.967 139.491 179.654 140.14L180.123 138.196C177.242 137.501 173.872 137.16 170.025 137.16V139.16ZM179.658 140.141C182.358 140.782 184.904 141.95 187.301 143.655L188.46 142.025C185.865 140.178 183.083 138.898 180.119 138.195L179.658 140.141ZM187.294 143.65C191.942 147.014 194.441 153.56 194.441 163.72H196.441C196.441 153.336 193.899 145.962 188.467 142.03L187.294 143.65ZM194.441 163.72C194.441 172.789 192.196 179.267 187.909 183.374L189.292 184.818C194.125 180.189 196.441 173.083 196.441 163.72H194.441ZM187.909 183.374C183.577 187.523 177.656 189.648 170.025 189.648V191.648C178.042 191.648 184.504 189.405 189.292 184.818L187.909 183.374ZM166.889 178.987C167.683 179.913 168.77 180.344 170.025 180.344V178.344C169.263 178.344 168.766 178.103 168.408 177.685L166.889 178.987ZM170.025 180.344C171.279 180.344 172.366 179.913 173.16 178.987L171.641 177.685C171.283 178.103 170.786 178.344 170.025 178.344V180.344ZM173.181 178.961C173.58 178.462 173.889 177.778 174.144 176.987C174.404 176.182 174.63 175.195 174.826 174.04L172.855 173.704C172.667 174.805 172.461 175.69 172.241 176.373C172.016 177.07 171.797 177.49 171.62 177.711L173.181 178.961ZM174.827 174.036C175.224 171.652 175.417 168.397 175.417 164.296H173.417C173.417 168.355 173.225 171.484 172.854 173.708L174.827 174.036ZM175.417 164.296C175.417 160.197 175.225 156.986 174.826 154.693L172.855 155.035C173.225 157.158 173.417 160.235 173.417 164.296H175.417ZM174.826 154.693C174.629 153.56 174.403 152.596 174.141 151.812C173.885 151.044 173.572 150.374 173.16 149.893L171.641 151.195C171.806 151.386 172.02 151.772 172.244 152.444C172.463 153.1 172.668 153.96 172.855 155.035L174.826 154.693ZM173.16 149.893C172.366 148.967 171.279 148.536 170.025 148.536V150.536C170.786 150.536 171.283 150.777 171.641 151.195L173.16 149.893ZM170.025 148.536C168.77 148.536 167.683 148.967 166.889 149.893L168.408 151.195C168.766 150.777 169.263 150.536 170.025 150.536V148.536ZM166.889 149.893C166.478 150.374 166.164 151.044 165.908 151.812C165.647 152.596 165.42 153.56 165.223 154.693L167.194 155.035C167.381 153.96 167.587 153.1 167.805 152.444C168.029 151.772 168.244 151.386 168.408 151.195L166.889 149.893ZM165.223 154.693C164.825 156.986 164.633 160.197 164.633 164.296H166.633C166.633 160.235 166.825 157.158 167.194 155.035L165.223 154.693ZM164.633 164.296C164.633 168.397 164.825 171.652 165.222 174.036L167.195 173.708C166.824 171.484 166.633 168.355 166.633 164.296H164.633ZM165.223 174.04C165.419 175.195 165.645 176.182 165.905 176.987C166.16 177.778 166.469 178.462 166.868 178.961L168.429 177.711C168.252 177.49 168.033 177.07 167.808 176.373C167.588 175.69 167.382 174.805 167.194 173.704L165.223 174.04ZM211.198 190.072L211.433 189.1L211.198 190.072ZM206.806 187.984L206.211 188.787L206.225 188.798L206.24 188.808L206.806 187.984ZM202.99 183.664L203.85 183.153L203.85 183.153L202.99 183.664ZM201.19 153.64L202.134 153.972L202.134 153.972L201.19 153.64ZM205.726 145.72L206.443 146.418L206.451 146.409L205.726 145.72ZM212.278 141.04L212.705 141.944L212.705 141.944L212.278 141.04ZM219.406 138.736L219.557 139.725L219.567 139.723L219.578 139.721L219.406 138.736ZM238.63 139.672L238.237 140.591L238.245 140.595L238.253 140.598L238.63 139.672ZM240.934 152.488L241.887 152.793L241.888 152.788L240.934 152.488ZM232.438 155.224L232.181 156.19L232.188 156.192L232.196 156.194L232.438 155.224ZM221.206 172.36L220.332 172.846L220.338 172.856L221.206 172.36ZM224.806 175.168L224.674 176.159L225.806 176.31V175.168H224.806ZM240.43 164.296L240.156 165.258L240.167 165.261L240.43 164.296ZM242.59 165.52L241.782 166.108L241.791 166.121L241.801 166.134L242.59 165.52ZM239.782 189.28L239.633 188.291L239.63 188.292L239.782 189.28ZM226.822 189.496L226.451 190.424L226.478 190.435L226.506 190.445L226.822 189.496ZM225.598 187.264L226.595 187.184L226.594 187.165L226.592 187.146L225.598 187.264ZM225.094 183.016L226.088 182.898L225.983 182.016H225.094V183.016ZM224.518 183.016V182.016H223.668L223.531 182.855L224.518 183.016ZM221.926 188.344L221.196 187.661L221.19 187.667L221.184 187.674L221.926 188.344ZM215.734 189.576C214.171 189.576 212.738 189.415 211.433 189.1L210.964 191.044C212.442 191.401 214.034 191.576 215.734 191.576V189.576ZM211.433 189.1C210.19 188.8 208.837 188.167 207.373 187.16L206.24 188.808C207.848 189.913 209.423 190.672 210.964 191.044L211.433 189.1ZM207.402 187.181C206.032 186.164 204.846 184.828 203.85 183.153L202.131 184.175C203.247 186.052 204.605 187.596 206.211 188.787L207.402 187.181ZM203.85 183.153C201.587 179.351 200.39 173.495 200.39 165.448H198.39C198.39 173.625 199.594 179.913 202.131 184.175L203.85 183.153ZM200.39 165.448C200.39 161.071 200.979 157.252 202.134 153.972L200.247 153.308C199.002 156.844 198.39 160.897 198.39 165.448H200.39ZM202.134 153.972C203.303 150.652 204.751 148.154 206.443 146.418L205.01 145.022C203.054 147.03 201.478 149.812 200.247 153.308L202.134 153.972ZM206.451 146.409C208.185 144.584 210.266 143.095 212.705 141.944L211.852 140.136C209.203 141.385 206.916 143.016 205.001 145.031L206.451 146.409ZM212.705 141.944C215.183 140.776 217.466 140.043 219.557 139.725L219.256 137.747C216.931 138.101 214.462 138.904 211.852 140.136L212.705 141.944ZM219.578 139.721C221.723 139.348 224.018 139.16 226.462 139.16V137.16C223.915 137.16 221.506 137.356 219.235 137.751L219.578 139.721ZM226.462 139.16C232.215 139.16 236.089 139.671 238.237 140.591L239.024 138.753C236.468 137.657 232.23 137.16 226.462 137.16V139.16ZM238.253 140.598C239.265 141.011 239.969 141.595 240.43 142.328C240.895 143.068 241.158 144.036 241.158 145.288H243.158C243.158 143.756 242.834 142.396 242.123 141.264C241.408 140.125 240.348 139.293 239.008 138.746L238.253 140.598ZM241.158 145.288C241.158 147.374 240.773 149.671 239.981 152.188L241.888 152.788C242.728 150.121 243.158 147.618 243.158 145.288H241.158ZM239.982 152.183C239.195 154.637 238.22 155.304 237.334 155.304V157.304C239.617 157.304 241.042 155.427 241.887 152.793L239.982 152.183ZM237.334 155.304C237.339 155.304 237.247 155.298 236.988 155.252C236.755 155.21 236.44 155.146 236.038 155.057C235.235 154.88 234.118 154.613 232.681 154.254L232.196 156.194C233.639 156.555 234.778 156.828 235.607 157.011C236.021 157.102 236.366 157.173 236.637 157.221C236.882 157.265 237.138 157.304 237.334 157.304V155.304ZM232.696 154.258C229.802 153.486 227.536 153.072 225.958 153.072V155.072C227.261 155.072 229.315 155.426 232.181 156.19L232.696 154.258ZM225.958 153.072C223.55 153.072 221.671 154.121 220.454 156.172C219.286 158.141 218.766 160.966 218.766 164.512H220.766C220.766 161.098 221.278 158.703 222.175 157.192C223.022 155.763 224.239 155.072 225.958 155.072V153.072ZM218.766 164.512C218.766 168.073 219.248 170.894 220.332 172.846L222.081 171.874C221.245 170.37 220.766 167.959 220.766 164.512H218.766ZM220.338 172.856C221.397 174.71 222.829 175.913 224.674 176.159L224.939 174.177C223.904 174.039 222.936 173.37 222.075 171.864L220.338 172.856ZM225.806 175.168V168.688H223.806V175.168H225.806ZM225.806 168.688C225.806 168.465 225.911 168.139 226.394 167.703C226.885 167.26 227.685 166.784 228.859 166.301L228.098 164.451C226.824 164.976 225.788 165.556 225.055 166.217C224.314 166.885 223.806 167.711 223.806 168.688H225.806ZM228.859 166.301C231.207 165.334 233.43 164.864 235.534 164.864V162.864C233.127 162.864 230.646 163.402 228.098 164.451L228.859 166.301ZM235.534 164.864C237.779 164.864 239.291 165.011 240.156 165.258L240.705 163.334C239.554 163.005 237.802 162.864 235.534 162.864V164.864ZM240.167 165.261C241.14 165.526 241.596 165.852 241.782 166.108L243.399 164.932C242.817 164.132 241.833 163.642 240.694 163.331L240.167 165.261ZM241.801 166.134C242.416 166.924 242.598 167.476 242.598 167.824H244.598C244.598 166.828 244.109 165.844 243.38 164.906L241.801 166.134ZM242.598 167.824V187.768H244.598V167.824H242.598ZM242.598 187.768C242.598 187.545 242.723 187.442 242.696 187.465C242.661 187.497 242.544 187.578 242.276 187.684C241.748 187.894 240.884 188.102 239.633 188.291L239.932 190.269C241.225 190.074 242.269 189.838 243.013 189.544C243.381 189.398 243.741 189.212 244.023 188.962C244.315 188.703 244.598 188.303 244.598 187.768H242.598ZM239.63 188.292C237.189 188.667 234.624 188.856 231.934 188.856V190.856C234.717 190.856 237.384 190.661 239.935 190.268L239.63 188.292ZM231.934 188.856C230.602 188.856 229.53 188.826 228.711 188.768C227.865 188.709 227.369 188.624 227.139 188.547L226.506 190.445C226.996 190.608 227.712 190.703 228.57 190.764C229.455 190.826 230.579 190.856 231.934 190.856V188.856ZM227.194 188.568C227 188.49 226.679 188.236 226.595 187.184L224.602 187.344C224.71 188.692 225.205 189.926 226.451 190.424L227.194 188.568ZM226.592 187.146L226.088 182.898L224.101 183.134L224.605 187.382L226.592 187.146ZM225.094 182.016H224.518V184.016H225.094V182.016ZM223.531 182.855C223.226 184.729 222.449 186.322 221.196 187.661L222.657 189.027C224.188 187.39 225.138 185.431 225.505 183.177L223.531 182.855ZM221.184 187.674C220.095 188.88 218.349 189.576 215.734 189.576V191.576C218.688 191.576 221.07 190.784 222.669 189.014L221.184 187.674ZM285.274 186.976L284.683 186.17L284.683 186.17L285.274 186.976ZM279.226 189.64L279.482 190.607L279.494 190.604L279.226 189.64ZM249.922 187.408L249.464 188.297L249.464 188.297L249.922 187.408ZM248.698 176.68L249.664 176.938L249.665 176.934L248.698 176.68ZM257.41 174.232L257.733 173.286L257.733 173.286L257.41 174.232ZM269.722 175.6L270.277 176.432L270.3 176.417L270.322 176.4L269.722 175.6ZM269.002 171.784L268.493 172.645L268.508 172.654L268.523 172.662L269.002 171.784ZM265.042 170.2L264.752 171.157L264.765 171.161L264.779 171.165L265.042 170.2ZM259.858 168.184L259.43 169.088L259.439 169.092L259.858 168.184ZM254.746 165.304L255.301 164.472L255.301 164.472L254.746 165.304ZM250.786 160.84L249.905 161.313L249.91 161.322L250.786 160.84ZM280.594 139.096L280.416 140.08L280.43 140.082L280.594 139.096ZM287.866 141.112L287.383 141.988L287.401 141.997L287.419 142.006L287.866 141.112ZM288.226 151.336L287.303 150.951L287.3 150.958L287.298 150.965L288.226 151.336ZM282.97 155.008L282.568 155.924L282.58 155.929L282.591 155.934L282.97 155.008ZM270.802 153.496L270.355 152.602L270.343 152.607L270.332 152.614L270.802 153.496ZM271.306 157.24L270.859 158.134L270.875 158.143L270.892 158.15L271.306 157.24ZM275.194 158.608L274.923 159.571L274.941 159.576L274.958 159.58L275.194 158.608ZM280.306 160.48L279.878 161.384L279.892 161.39L279.907 161.397L280.306 160.48ZM285.49 163.432L284.902 164.241L284.91 164.247L284.918 164.252L285.49 163.432ZM289.45 168.184L290.34 167.729L290.34 167.729L289.45 168.184ZM288.802 183.232L289.647 183.767L289.647 183.767L288.802 183.232ZM284.683 186.17C283.377 187.127 281.487 187.974 278.958 188.676L279.494 190.604C282.149 189.866 284.292 188.937 285.865 187.782L284.683 186.17ZM278.971 188.673C276.543 189.315 273.326 189.648 269.29 189.648V191.648C273.415 191.648 276.822 191.309 279.481 190.607L278.971 188.673ZM269.29 189.648C265.314 189.648 261.535 189.317 257.951 188.657L257.589 190.623C261.302 191.307 265.203 191.648 269.29 191.648V189.648ZM257.951 188.657C254.319 187.987 251.826 187.264 250.38 186.519L249.464 188.297C251.186 189.184 253.925 189.949 257.589 190.623L257.951 188.657ZM250.38 186.519C249.632 186.134 249.14 185.788 248.847 185.495C248.553 185.201 248.546 185.05 248.546 185.032H246.546C246.546 185.782 246.935 186.411 247.433 186.909C247.932 187.408 248.628 187.866 249.464 188.297L250.38 186.519ZM248.546 185.032C248.546 182.44 248.916 179.743 249.664 176.938L247.732 176.422C246.944 179.377 246.546 182.248 246.546 185.032H248.546ZM249.665 176.934C250.04 175.505 250.429 174.521 250.807 173.915C251.2 173.284 251.429 173.288 251.434 173.288V171.288C250.383 171.288 249.628 172.024 249.109 172.857C248.575 173.715 248.124 174.927 247.731 176.426L249.665 176.934ZM251.434 173.288C251.378 173.288 251.337 173.283 251.326 173.281C251.317 173.28 251.311 173.279 251.307 173.278C251.303 173.278 251.301 173.277 251.301 173.277C251.3 173.277 251.303 173.278 251.312 173.28C251.32 173.282 251.331 173.284 251.346 173.288C251.407 173.303 251.5 173.329 251.631 173.368C251.892 173.445 252.267 173.564 252.763 173.725C253.752 174.047 255.192 174.531 257.087 175.178L257.733 173.286C255.836 172.637 254.385 172.149 253.381 171.823C252.881 171.66 252.486 171.536 252.2 171.451C252.058 171.409 251.935 171.374 251.835 171.349C251.786 171.336 251.733 171.324 251.682 171.314C251.65 171.308 251.55 171.288 251.434 171.288V173.288ZM257.087 175.178C260.895 176.48 263.883 177.176 265.978 177.176V175.176C264.233 175.176 261.509 174.576 257.733 173.286L257.087 175.178ZM265.978 177.176C266.966 177.176 267.813 177.127 268.506 177.02C269.175 176.918 269.805 176.747 270.277 176.432L269.167 174.768C269.063 174.837 268.782 174.954 268.202 175.044C267.647 175.129 266.91 175.176 265.978 175.176V177.176ZM270.322 176.4C271.169 175.765 271.586 174.858 271.586 173.8H269.586C269.586 174.278 269.427 174.571 269.122 174.8L270.322 176.4ZM271.586 173.8C271.586 172.487 270.662 171.55 269.481 170.906L268.523 172.662C269.454 173.17 269.586 173.577 269.586 173.8H271.586ZM269.511 170.923C268.357 170.241 266.948 169.683 265.305 169.235L264.779 171.165C266.304 171.581 267.535 172.079 268.493 172.645L269.511 170.923ZM265.332 169.243C263.801 168.779 262.117 168.125 260.277 167.276L259.439 169.092C261.343 169.971 263.115 170.661 264.752 171.157L265.332 169.243ZM260.286 167.28C258.503 166.436 256.842 165.499 255.301 164.472L254.191 166.136C255.818 167.221 257.565 168.204 259.43 169.088L260.286 167.28ZM255.301 164.472C253.869 163.518 252.653 162.159 251.662 160.358L249.91 161.322C251.032 163.361 252.455 164.978 254.191 166.136L255.301 164.472ZM251.667 160.367C250.698 158.561 250.202 156.495 250.202 154.144H248.202C248.202 156.785 248.762 159.183 249.905 161.313L251.667 160.367ZM250.202 154.144C250.202 149.021 251.722 145.345 254.614 142.923C257.54 140.472 262.037 139.16 268.282 139.16V137.16C261.807 137.16 256.764 138.512 253.33 141.389C249.862 144.295 248.202 148.611 248.202 154.144H250.202ZM268.282 139.16C272.994 139.16 277.035 139.47 280.416 140.08L280.772 138.112C277.241 137.474 273.074 137.16 268.282 137.16V139.16ZM280.43 140.082C283.876 140.657 286.152 141.308 287.383 141.988L288.349 140.236C286.796 139.38 284.225 138.687 280.758 138.11L280.43 140.082ZM287.419 142.006C288.092 142.343 288.526 142.646 288.779 142.899C289.03 143.15 289.026 143.271 289.026 143.272H291.026C291.026 142.553 290.662 141.954 290.193 141.485C289.726 141.018 289.08 140.601 288.313 140.218L287.419 142.006ZM289.026 143.272C289.026 145.607 288.465 148.164 287.303 150.951L289.149 151.721C290.388 148.748 291.026 145.929 291.026 143.272H289.026ZM287.298 150.965C286.736 152.369 286.208 153.348 285.729 153.959C285.232 154.594 284.931 154.656 284.842 154.656V156.656C285.857 156.656 286.673 155.998 287.303 155.193C287.952 154.364 288.564 153.183 289.155 151.707L287.298 150.965ZM284.842 154.656C284.934 154.656 284.967 154.674 284.873 154.649C284.804 154.631 284.701 154.599 284.557 154.549C284.271 154.45 283.87 154.296 283.349 154.082L282.591 155.934C283.126 156.152 283.566 156.322 283.903 156.439C284.071 156.497 284.226 156.546 284.361 156.582C284.472 156.611 284.655 156.656 284.842 156.656V154.656ZM283.372 154.092C280.149 152.676 277.361 151.92 275.05 151.92V153.92C276.963 153.92 279.456 154.556 282.568 155.924L283.372 154.092ZM275.05 151.92C273.991 151.92 273.073 151.969 272.306 152.073C271.551 152.175 270.881 152.339 270.355 152.602L271.249 154.39C271.491 154.269 271.913 154.145 272.574 154.055C273.223 153.967 274.045 153.92 275.05 153.92V151.92ZM270.332 152.614C269.839 152.877 269.422 153.24 269.135 153.72C268.847 154.199 268.722 154.737 268.722 155.296H270.722C270.722 155.039 270.777 154.869 270.85 154.748C270.922 154.628 271.046 154.499 271.273 154.378L270.332 152.614ZM268.722 155.296C268.722 156.625 269.665 157.538 270.859 158.134L271.753 156.346C270.835 155.886 270.722 155.503 270.722 155.296H268.722ZM270.892 158.15C272.008 158.658 273.355 159.13 274.923 159.571L275.465 157.645C273.961 157.222 272.716 156.782 271.72 156.33L270.892 158.15ZM274.958 159.58C276.463 159.945 278.102 160.542 279.878 161.384L280.734 159.576C278.862 158.69 277.093 158.039 275.43 157.636L274.958 159.58ZM279.907 161.397C281.715 162.185 283.379 163.133 284.902 164.241L286.078 162.623C284.433 161.427 282.641 160.407 280.706 159.563L279.907 161.397ZM284.918 164.252C286.343 165.246 287.564 166.692 288.56 168.639L290.34 167.729C289.225 165.548 287.805 163.826 286.062 162.612L284.918 164.252ZM288.56 168.639C289.532 170.539 290.034 172.778 290.034 175.384H292.034C292.034 172.518 291.48 169.957 290.34 167.729L288.56 168.639ZM290.034 175.384C290.034 178.082 289.34 180.511 287.957 182.697L289.647 183.767C291.24 181.249 292.034 178.446 292.034 175.384H290.034ZM287.957 182.697C287.115 184.026 286.027 185.184 284.683 186.17L285.865 187.782C287.401 186.656 288.665 185.318 289.647 183.767L287.957 182.697Z" fill="#F59295"/>
<defs>
<linearGradient id="paint0_linear" x1="119.196" y1="325.961" x2="119.196" y2="246.821" gradientUnits="userSpaceOnUse">
<stop stop-color="#808080" stop-opacity="0.25"/>
<stop offset="0.54" stop-color="#808080" stop-opacity="0.12"/>
<stop offset="1" stop-color="#808080" stop-opacity="0.1"/>
</linearGradient>
<linearGradient id="paint1_linear" x1="1798.15" y1="10410.7" x2="2134.29" y2="10410.7" gradientUnits="userSpaceOnUse">
<stop stop-color="#808080" stop-opacity="0.25"/>
<stop offset="0.54" stop-color="#808080" stop-opacity="0.12"/>
<stop offset="1" stop-color="#808080" stop-opacity="0.1"/>
</linearGradient>
<linearGradient id="paint2_linear" x1="2662.67" y1="10410.7" x2="2998.69" y2="10410.7" gradientUnits="userSpaceOnUse">
<stop stop-color="#808080" stop-opacity="0.25"/>
<stop offset="0.54" stop-color="#808080" stop-opacity="0.12"/>
<stop offset="1" stop-color="#808080" stop-opacity="0.1"/>
</linearGradient>
<linearGradient id="paint3_linear" x1="22728.3" y1="81592.3" x2="29560.6" y2="81592.3" gradientUnits="userSpaceOnUse">
<stop stop-color="#808080" stop-opacity="0.25"/>
<stop offset="0.54" stop-color="#808080" stop-opacity="0.12"/>
<stop offset="1" stop-color="#808080" stop-opacity="0.1"/>
</linearGradient>
<linearGradient id="paint4_linear" x1="7946.08" y1="12623.3" x2="8782.39" y2="12623.3" gradientUnits="userSpaceOnUse">
<stop stop-color="#808080" stop-opacity="0.25"/>
<stop offset="0.54" stop-color="#808080" stop-opacity="0.12"/>
<stop offset="1" stop-color="#808080" stop-opacity="0.1"/>
</linearGradient>
<linearGradient id="paint5_linear" x1="9616.3" y1="12623.3" x2="10452.8" y2="12623.3" gradientUnits="userSpaceOnUse">
<stop stop-color="#808080" stop-opacity="0.25"/>
<stop offset="0.54" stop-color="#808080" stop-opacity="0.12"/>
<stop offset="1" stop-color="#808080" stop-opacity="0.1"/>
</linearGradient>
<linearGradient id="paint6_linear" x1="16229.7" y1="19239" x2="16229.7" y2="160" gradientUnits="userSpaceOnUse">
<stop stop-color="#808080" stop-opacity="0.25"/>
<stop offset="0.54" stop-color="#808080" stop-opacity="0.12"/>
<stop offset="1" stop-color="#808080" stop-opacity="0.1"/>
</linearGradient>
<clipPath id="clip0">
<rect width="274" height="312" fill="white" transform="translate(50 160)"/>
</clipPath>
</defs>
</svg>
