<svg width="375" height="442" viewBox="0 0 375 442" fill="none" xmlns="http://www.w3.org/2000/svg">
<rect width="375" height="257" fill="#FFE0B2"/>
<ellipse cx="187.5" cy="265.555" rx="187.5" ry="176.445" fill="#FFE0B2"/>
<path d="M129.822 106.464C129.822 106.933 128.521 107.317 125.918 107.616C123.316 107.872 120.692 108 118.046 108C115.444 108 113.78 107.893 113.054 107.68C112.329 107.424 111.966 107.019 111.966 106.464V66.656C111.966 65.7173 113.204 64.8 115.678 63.904C118.153 62.9653 120.926 62.496 123.998 62.496C126.729 62.496 128.521 63.072 129.374 64.224C129.673 64.6507 129.822 65.0773 129.822 65.504V106.464ZM152.886 106.144C152.886 106.699 151.585 107.147 148.982 107.488C146.38 107.829 143.756 108 141.11 108C138.508 108 136.822 107.851 136.054 107.552C135.329 107.253 134.966 106.784 134.966 106.144V64.992C134.966 63.8827 136.353 63.0933 139.126 62.624C141.942 62.1547 145.484 61.92 149.75 61.92C154.017 61.92 156.769 61.9413 158.006 61.984C159.286 61.984 160.78 62.048 162.486 62.176C164.193 62.304 165.537 62.5173 166.518 62.816C167.542 63.1147 168.652 63.4987 169.846 63.968C171.084 64.4373 172.044 65.056 172.726 65.824C173.409 66.5493 174.07 67.424 174.71 68.448C175.862 70.2827 176.438 72.9067 176.438 76.32C176.438 79.6907 175.862 82.5493 174.71 84.896C173.601 87.2 172.108 88.9493 170.23 90.144C175.137 97.8667 177.59 102.773 177.59 104.864C177.59 106.955 173.388 108 164.982 108C162.55 108 160.865 107.893 159.926 107.68C158.988 107.467 158.39 106.997 158.134 106.272L153.974 93.088L152.886 93.024V106.144ZM152.886 83.168H154.55C157.025 83.168 158.262 81.248 158.262 77.408C158.262 75.4453 157.921 74.0587 157.238 73.248C156.598 72.4373 155.852 72.032 154.998 72.032H152.886V83.168ZM202.411 108.576C198.869 108.576 195.819 108.256 193.259 107.616C190.741 106.933 188.416 105.739 186.283 104.032C181.973 100.661 179.819 94.1973 179.819 84.64C179.819 80.6293 180.395 77.1307 181.547 74.144C182.741 71.1573 184.384 68.7893 186.475 67.04C190.571 63.6267 195.883 61.92 202.411 61.92C205.781 61.92 208.704 62.2187 211.179 62.816C213.696 63.4133 216.064 64.5013 218.283 66.08C222.763 69.3227 225.003 75.5093 225.003 84.64C225.003 92.832 222.976 98.8693 218.923 102.752C214.869 106.635 209.365 108.576 202.411 108.576ZM200.299 97.632C200.811 98.2293 201.515 98.528 202.411 98.528C203.307 98.528 204.011 98.2293 204.523 97.632C205.035 96.992 205.461 95.6693 205.803 93.664C206.144 91.616 206.315 88.7787 206.315 85.152C206.315 81.5253 206.144 78.7307 205.803 76.768C205.461 74.8053 205.035 73.5253 204.523 72.928C204.011 72.3307 203.307 72.032 202.411 72.032C201.515 72.032 200.811 72.3307 200.299 72.928C199.787 73.5253 199.36 74.8053 199.019 76.768C198.677 78.7307 198.507 81.5253 198.507 85.152C198.507 88.7787 198.677 91.616 199.019 93.664C199.36 95.6693 199.787 96.992 200.299 97.632ZM247.01 106.144C247.01 106.699 245.687 107.147 243.042 107.488C240.439 107.829 237.836 108 235.234 108C232.631 108 230.967 107.851 230.242 107.552C229.516 107.253 229.154 106.784 229.154 106.144V66.848C229.154 65.7813 230.37 64.8 232.802 63.904C235.276 63.008 238.071 62.56 241.186 62.56C242.295 62.56 243.127 62.6027 243.682 62.688C245.132 62.9013 246.156 63.8187 246.754 65.44L252.898 81.952H253.154V66.848C253.154 65.7813 254.37 64.8 256.802 63.904C259.234 63.008 262.007 62.56 265.122 62.56C267.81 62.56 269.516 63.072 270.242 64.096C270.754 64.8213 271.01 65.4827 271.01 66.08V106.144C271.01 106.699 269.687 107.147 267.042 107.488C264.439 107.829 261.559 108 258.402 108C255.287 108 253.58 107.595 253.282 106.784L247.33 91.04H247.01V106.144ZM124.382 181H109.278C107.188 181 105.78 180.851 105.054 180.552C104.329 180.253 103.966 179.763 103.966 179.08V138.696C103.966 137.587 104.436 136.797 105.374 136.328C106.313 135.816 107.934 135.56 110.238 135.56H124.638C132.83 135.56 138.484 137.181 141.598 140.424C144.713 143.624 146.27 149.469 146.27 157.96C146.27 166.451 144.649 172.424 141.406 175.88C138.164 179.293 132.489 181 124.382 181ZM123.87 145.096C122.846 145.096 122.164 145.181 121.822 145.352V171.208L124.254 171.464C125.534 171.464 126.494 170.44 127.134 168.392C127.817 166.344 128.158 162.803 128.158 157.768C128.158 152.733 127.817 149.363 127.134 147.656C126.452 145.949 125.364 145.096 123.87 145.096ZM172.411 181.576C168.869 181.576 165.819 181.256 163.259 180.616C160.741 179.933 158.416 178.739 156.283 177.032C151.973 173.661 149.819 167.197 149.819 157.64C149.819 153.629 150.395 150.131 151.547 147.144C152.741 144.157 154.384 141.789 156.475 140.04C160.571 136.627 165.883 134.92 172.411 134.92C175.781 134.92 178.704 135.219 181.179 135.816C183.696 136.413 186.064 137.501 188.283 139.08C192.763 142.323 195.003 148.509 195.003 157.64C195.003 165.832 192.976 171.869 188.923 175.752C184.869 179.635 179.365 181.576 172.411 181.576ZM170.299 170.632C170.811 171.229 171.515 171.528 172.411 171.528C173.307 171.528 174.011 171.229 174.523 170.632C175.035 169.992 175.461 168.669 175.803 166.664C176.144 164.616 176.315 161.779 176.315 158.152C176.315 154.525 176.144 151.731 175.803 149.768C175.461 147.805 175.035 146.525 174.523 145.928C174.011 145.331 173.307 145.032 172.411 145.032C171.515 145.032 170.811 145.331 170.299 145.928C169.787 146.525 169.36 147.805 169.019 149.768C168.677 151.731 168.507 154.525 168.507 158.152C168.507 161.779 168.677 164.616 169.019 166.664C169.36 168.669 169.787 169.992 170.299 170.632ZM213.042 181.512C211.591 181.512 210.247 181.363 209.01 181.064C207.772 180.765 206.471 180.147 205.106 179.208C203.783 178.227 202.652 176.947 201.714 175.368C199.58 171.784 198.514 166.387 198.514 159.176C198.514 155.208 199.047 151.709 200.114 148.68C201.18 145.651 202.524 143.304 204.146 141.64C205.767 139.933 207.708 138.547 209.97 137.48C212.231 136.413 214.343 135.731 216.306 135.432C218.268 135.091 220.359 134.92 222.578 134.92C227.698 134.92 231.303 135.368 233.394 136.264C235.484 137.117 236.53 138.781 236.53 141.256C236.53 143.219 236.167 145.352 235.442 147.656C234.716 149.917 233.65 151.048 232.242 151.048C231.9 151.048 230.45 150.728 227.89 150.088C225.33 149.405 223.41 149.064 222.13 149.064C218.46 149.064 216.626 152.157 216.626 158.344C216.626 161.459 217.052 163.784 217.906 165.32C218.759 166.813 219.826 167.645 221.106 167.816V162.056C221.106 160.989 222.194 160.008 224.37 159.112C226.546 158.216 228.636 157.768 230.642 157.768C232.647 157.768 234.098 157.896 234.994 158.152C235.932 158.408 236.572 158.771 236.914 159.24C237.511 160.008 237.81 160.691 237.81 161.288V179.016C237.81 179.571 236.679 180.019 234.418 180.36C232.199 180.701 229.874 180.872 227.442 180.872C225.052 180.872 223.538 180.765 222.898 180.552C222.258 180.296 221.895 179.635 221.81 178.568L221.362 174.792H220.85C220.551 176.627 219.783 178.205 218.546 179.528C217.351 180.851 215.516 181.512 213.042 181.512ZM274.855 178.312C273.575 179.251 271.783 180.04 269.479 180.68C267.217 181.277 264.273 181.576 260.647 181.576C257.063 181.576 253.649 181.277 250.407 180.68C247.164 180.083 244.839 179.421 243.431 178.696C242.023 177.971 241.319 177.267 241.319 176.584C241.319 174.195 241.66 171.72 242.343 169.16C243.025 166.557 243.836 165.256 244.775 165.256C244.945 165.256 246.716 165.832 250.087 166.984C253.457 168.136 255.996 168.712 257.703 168.712C259.409 168.712 260.519 168.541 261.031 168.2C261.543 167.816 261.799 167.283 261.799 166.6C261.799 165.917 261.329 165.32 260.391 164.808C259.452 164.253 258.279 163.784 256.871 163.4C255.463 162.973 253.927 162.376 252.263 161.608C250.641 160.84 249.127 159.987 247.719 159.048C246.311 158.109 245.137 156.787 244.199 155.08C243.26 153.331 242.791 151.347 242.791 149.128C242.791 139.656 248.444 134.92 259.751 134.92C263.975 134.92 267.623 135.197 270.695 135.752C273.767 136.264 275.921 136.861 277.159 137.544C278.439 138.184 279.079 138.824 279.079 139.464C279.079 141.683 278.545 144.072 277.479 146.632C276.455 149.192 275.452 150.472 274.471 150.472C274.3 150.472 273.745 150.28 272.807 149.896C269.991 148.659 267.644 148.04 265.767 148.04C263.932 148.04 262.673 148.211 261.991 148.552C261.351 148.893 261.031 149.427 261.031 150.152C261.031 150.835 261.5 151.411 262.439 151.88C263.377 152.307 264.529 152.712 265.895 153.096C267.303 153.437 268.817 153.992 270.439 154.76C272.103 155.485 273.639 156.36 275.047 157.384C276.455 158.365 277.628 159.773 278.567 161.608C279.505 163.443 279.975 165.576 279.975 168.008C279.975 170.568 279.313 172.893 277.991 174.984C277.18 176.264 276.135 177.373 274.855 178.312Z" fill="black"/>
<path d="M125.918 107.616L126.212 110.602L126.236 110.599L126.26 110.596L125.918 107.616ZM113.054 107.68L112.056 110.509L112.131 110.536L112.208 110.558L113.054 107.68ZM115.678 63.904L116.7 66.7248L116.721 66.7171L116.742 66.709L115.678 63.904ZM129.374 64.224L131.832 62.5036L131.809 62.4706L131.785 62.4383L129.374 64.224ZM126.822 106.464C126.822 105.781 127.071 105.235 127.334 104.873C127.574 104.542 127.824 104.363 127.933 104.291C128.133 104.16 128.217 104.162 127.997 104.227C127.601 104.343 126.833 104.491 125.576 104.636L126.26 110.596C127.606 110.442 128.79 110.249 129.695 109.981C130.126 109.854 130.698 109.653 131.223 109.309C131.666 109.019 132.822 108.121 132.822 106.464H126.822ZM125.625 104.63C123.121 104.877 120.595 105 118.046 105V111C120.789 111 123.511 110.867 126.212 110.602L125.625 104.63ZM118.046 105C116.778 105 115.781 104.974 115.038 104.926C114.667 104.902 114.382 104.875 114.172 104.847C113.948 104.816 113.876 104.794 113.901 104.802L112.208 110.558C112.915 110.766 113.8 110.859 114.654 110.914C115.575 110.973 116.712 111 118.046 111V105ZM114.053 104.851C113.98 104.825 114.209 104.887 114.474 105.184C114.615 105.341 114.748 105.546 114.841 105.792C114.933 106.037 114.966 106.27 114.966 106.464H108.966C108.966 107.463 109.318 108.42 110.003 109.184C110.631 109.886 111.403 110.279 112.056 110.509L114.053 104.851ZM114.966 106.464V66.656H108.966V106.464H114.966ZM114.966 66.656C114.966 67.1177 114.805 67.4537 114.694 67.6201C114.6 67.7623 114.551 67.7701 114.681 67.6739C114.958 67.4687 115.572 67.1332 116.7 66.7248L114.657 61.0832C113.31 61.5708 112.068 62.142 111.108 62.8541C110.215 63.516 108.966 64.759 108.966 66.656H114.966ZM116.742 66.709C118.827 65.9182 121.232 65.496 123.998 65.496V59.496C120.62 59.496 117.479 60.0125 114.614 61.099L116.742 66.709ZM123.998 65.496C125.179 65.496 125.974 65.6239 126.472 65.7841C126.957 65.9398 127.012 66.0746 126.964 66.0097L131.785 62.4383C130.017 60.051 126.878 59.496 123.998 59.496V65.496ZM126.917 65.9444C126.932 65.9662 126.907 65.9366 126.879 65.8551C126.849 65.7689 126.822 65.6478 126.822 65.504H132.822C132.822 64.337 132.405 63.3216 131.832 62.5036L126.917 65.9444ZM126.822 65.504V106.464H132.822V65.504H126.822ZM148.982 107.488L148.592 104.513L148.592 104.513L148.982 107.488ZM136.054 107.552L134.912 110.326L134.939 110.337L134.967 110.348L136.054 107.552ZM139.126 62.624L138.633 59.6648L138.626 59.6661L139.126 62.624ZM158.006 61.984L157.903 64.9822L157.955 64.984H158.006V61.984ZM162.486 62.176L162.262 65.1676L162.262 65.1676L162.486 62.176ZM166.518 62.816L165.645 65.686L165.661 65.6911L165.678 65.696L166.518 62.816ZM169.846 63.968L168.749 66.7603L168.766 66.7667L168.782 66.773L169.846 63.968ZM172.726 65.824L170.484 67.8171L170.512 67.849L170.542 67.8801L172.726 65.824ZM174.71 68.448L172.166 70.038L172.17 70.0433L174.71 68.448ZM174.71 84.896L172.017 83.574L172.012 83.5842L172.007 83.5946L174.71 84.896ZM170.23 90.144L168.62 87.613L166.09 89.2225L167.698 91.7528L170.23 90.144ZM159.926 107.68L159.261 110.605L159.261 110.605L159.926 107.68ZM158.134 106.272L155.273 107.175L155.288 107.223L155.305 107.27L158.134 106.272ZM153.974 93.088L156.835 92.1853L156.213 90.2145L154.15 90.0932L153.974 93.088ZM152.886 93.024L153.062 90.0292L149.886 89.8423V93.024H152.886ZM152.886 83.168H149.886V86.168H152.886V83.168ZM157.238 73.248L154.884 75.1069L154.913 75.1441L154.944 75.1804L157.238 73.248ZM152.886 72.032V69.032H149.886V72.032H152.886ZM149.886 106.144C149.886 104.97 150.604 104.323 150.811 104.164C151.023 104.001 151.13 103.992 150.934 104.059C150.574 104.183 149.839 104.35 148.592 104.513L149.372 110.463C150.728 110.285 151.945 110.057 152.887 109.733C153.342 109.576 153.937 109.33 154.473 108.916C155.005 108.506 155.886 107.595 155.886 106.144H149.886ZM148.592 104.513C146.12 104.838 143.626 105 141.11 105V111C143.885 111 146.639 110.821 149.372 110.463L148.592 104.513ZM141.11 105C139.856 105 138.88 104.964 138.159 104.9C137.367 104.83 137.109 104.743 137.142 104.756L134.967 110.348C135.767 110.659 136.736 110.797 137.629 110.876C138.594 110.962 139.762 111 141.11 111V105ZM137.196 104.778C137.168 104.766 137.385 104.848 137.612 105.142C137.87 105.475 137.966 105.856 137.966 106.144H131.966C131.966 107.072 132.244 108.008 132.864 108.81C133.454 109.574 134.215 110.039 134.912 110.326L137.196 104.778ZM137.966 106.144V64.992H131.966V106.144H137.966ZM137.966 64.992C137.966 65.39 137.827 65.7456 137.649 65.9894C137.5 66.1937 137.388 66.2335 137.49 66.1752C137.587 66.1203 137.798 66.0215 138.175 65.9074C138.545 65.7955 139.024 65.684 139.627 65.5819L138.626 59.6661C137.115 59.9217 135.669 60.3082 134.522 60.9608C133.347 61.6296 131.966 62.9211 131.966 64.992H137.966ZM139.619 65.5832C142.214 65.1508 145.576 64.92 149.75 64.92V58.92C145.391 58.92 141.671 59.1586 138.633 59.6648L139.619 65.5832ZM149.75 64.92C154.031 64.92 156.727 64.9417 157.903 64.9822L158.11 58.9858C156.81 58.941 154.003 58.92 149.75 58.92V64.92ZM158.006 64.984C159.191 64.984 160.607 65.0435 162.262 65.1676L162.711 59.1844C160.952 59.0525 159.381 58.984 158.006 58.984V64.984ZM162.262 65.1676C163.874 65.2885 164.968 65.4801 165.645 65.686L167.392 59.946C166.106 59.5546 164.512 59.3195 162.711 59.1844L162.262 65.1676ZM165.678 65.696C166.6 65.9648 167.623 66.3176 168.749 66.7603L170.943 61.1757C169.681 60.6797 168.485 60.2645 167.358 59.936L165.678 65.696ZM168.782 66.773C169.694 67.1186 170.202 67.4999 170.484 67.8171L174.968 63.8309C173.885 62.6121 172.474 61.756 170.91 61.163L168.782 66.773ZM170.542 67.8801C171.065 68.4359 171.609 69.147 172.166 70.038L177.254 66.858C176.531 65.701 175.753 64.6628 174.911 63.7679L170.542 67.8801ZM172.17 70.0433C172.895 71.1989 173.438 73.1739 173.438 76.32H179.438C179.438 72.6394 178.829 69.3664 177.251 66.8527L172.17 70.0433ZM173.438 76.32C173.438 79.3604 172.918 81.7401 172.017 83.574L177.403 86.218C178.807 83.3586 179.438 80.0209 179.438 76.32H173.438ZM172.007 83.5946C171.103 85.4716 169.958 86.7611 168.62 87.613L171.841 92.675C174.257 91.1376 176.098 88.9284 177.413 86.1974L172.007 83.5946ZM167.698 91.7528C170.128 95.5765 171.906 98.6361 173.067 100.958C173.648 102.119 174.049 103.047 174.299 103.761C174.423 104.115 174.501 104.389 174.545 104.591C174.591 104.801 174.59 104.882 174.59 104.864H180.59C180.59 103.838 180.307 102.762 179.961 101.775C179.598 100.74 179.079 99.566 178.434 98.2744C177.141 95.6893 175.24 92.4342 172.762 88.5352L167.698 91.7528ZM174.59 104.864C174.59 104.596 174.664 104.327 174.792 104.105C174.908 103.903 175.02 103.823 175.008 103.832C174.944 103.879 174.598 104.085 173.714 104.305C171.978 104.736 169.124 105 164.982 105V111C169.246 111 172.696 110.741 175.162 110.127C176.38 109.824 177.61 109.377 178.596 108.64C179.667 107.842 180.59 106.572 180.59 104.864H174.59ZM164.982 105C162.536 105 161.162 104.884 160.591 104.755L159.261 110.605C160.567 110.902 162.564 111 164.982 111V105ZM160.591 104.755C160.443 104.721 160.497 104.706 160.628 104.809C160.695 104.862 160.767 104.934 160.831 105.024C160.896 105.115 160.938 105.202 160.963 105.274L155.305 107.27C155.992 109.217 157.608 110.23 159.261 110.605L160.591 104.755ZM160.995 105.369L156.835 92.1853L151.113 93.9907L155.273 107.175L160.995 105.369ZM154.15 90.0932L153.062 90.0292L152.71 96.0188L153.798 96.0828L154.15 90.0932ZM149.886 93.024V106.144H155.886V93.024H149.886ZM152.886 86.168H154.55V80.168H152.886V86.168ZM154.55 86.168C156.706 86.168 158.632 85.252 159.856 83.3531C160.934 81.6804 161.262 79.5541 161.262 77.408H155.262C155.262 79.1019 154.972 79.8556 154.813 80.1029C154.76 80.1847 154.752 80.1661 154.796 80.1433C154.83 80.1258 154.777 80.168 154.55 80.168V86.168ZM161.262 77.408C161.262 75.2684 160.924 72.9676 159.533 71.3156L154.944 75.1804C154.904 75.133 154.996 75.2191 155.093 75.6131C155.189 76.0028 155.262 76.5852 155.262 77.408H161.262ZM159.593 71.3891C158.517 70.0261 156.965 69.032 154.998 69.032V75.032C154.972 75.032 154.93 75.0285 154.882 75.0161C154.833 75.0037 154.793 74.9868 154.767 74.9726C154.715 74.9442 154.762 74.9535 154.884 75.1069L159.593 71.3891ZM154.998 69.032H152.886V75.032H154.998V69.032ZM149.886 72.032V83.168H155.886V72.032H149.886ZM193.259 107.616L192.474 110.511L192.502 110.519L192.531 110.526L193.259 107.616ZM186.283 104.032L188.157 101.689L188.144 101.679L188.131 101.669L186.283 104.032ZM181.547 74.144L178.761 73.0298L178.754 73.0471L178.748 73.0644L181.547 74.144ZM186.475 67.04L184.554 64.7353L184.55 64.7392L186.475 67.04ZM211.179 62.816L210.475 65.7323L210.486 65.7349L211.179 62.816ZM218.283 66.08L220.042 63.6498L220.032 63.6427L220.022 63.6356L218.283 66.08ZM218.923 102.752L220.998 104.918L220.998 104.918L218.923 102.752ZM200.299 97.632L197.956 99.5061L197.988 99.5458L198.021 99.5844L200.299 97.632ZM204.523 97.632L206.801 99.5844L206.834 99.5458L206.865 99.5061L204.523 97.632ZM205.803 93.664L208.76 94.1674L208.762 94.1572L205.803 93.664ZM205.803 76.768L208.758 76.254L208.758 76.254L205.803 76.768ZM200.299 72.928L202.577 74.8804L202.577 74.8804L200.299 72.928ZM199.019 76.768L201.974 77.282L201.974 77.282L199.019 76.768ZM199.019 93.664L196.06 94.1572L196.061 94.1674L199.019 93.664ZM202.411 105.576C199.037 105.576 196.243 105.27 193.986 104.706L192.531 110.526C195.394 111.242 198.702 111.576 202.411 111.576V105.576ZM194.044 104.721C191.942 104.151 189.984 103.152 188.157 101.689L184.409 106.375C186.848 108.326 189.54 109.716 192.474 110.511L194.044 104.721ZM188.131 101.669C184.947 99.1783 182.819 93.9382 182.819 84.64H176.819C176.819 94.4565 179 102.144 184.434 106.395L188.131 101.669ZM182.819 84.64C182.819 80.9087 183.355 77.791 184.346 75.2236L178.748 73.0644C177.434 76.4704 176.819 80.3499 176.819 84.64H182.819ZM184.332 75.2582C185.376 72.6491 186.753 70.719 188.4 69.3408L184.55 64.7392C182.015 66.8596 180.107 69.6655 178.761 73.0298L184.332 75.2582ZM188.395 69.3447C191.839 66.475 196.421 64.92 202.411 64.92V58.92C195.344 58.92 189.303 60.7783 184.554 64.7353L188.395 69.3447ZM202.411 64.92C205.616 64.92 208.291 65.2051 210.475 65.7322L211.883 59.8998C209.117 59.2322 205.947 58.92 202.411 58.92V64.92ZM210.486 65.7349C212.608 66.2384 214.623 67.1579 216.543 68.5244L220.022 63.6356C217.505 61.8447 214.784 60.5883 211.871 59.897L210.486 65.7349ZM216.524 68.5102C219.827 70.9011 222.003 75.8444 222.003 84.64H228.003C228.003 75.1743 225.699 67.7442 220.042 63.6498L216.524 68.5102ZM222.003 84.64C222.003 92.392 220.084 97.4856 216.848 100.586L220.998 104.918C225.868 100.253 228.003 93.272 228.003 84.64H222.003ZM216.848 100.586C213.479 103.812 208.787 105.576 202.411 105.576V111.576C209.944 111.576 216.26 109.457 220.998 104.918L216.848 100.586ZM198.021 99.5844C199.186 100.943 200.775 101.528 202.411 101.528V95.528C202.297 95.528 202.306 95.5098 202.382 95.5423C202.419 95.5578 202.46 95.5802 202.498 95.6088C202.537 95.6372 202.563 95.6635 202.577 95.6796L198.021 99.5844ZM202.411 101.528C204.047 101.528 205.636 100.943 206.801 99.5844L202.245 95.6796C202.259 95.6635 202.285 95.6372 202.323 95.6088C202.362 95.5802 202.402 95.5578 202.439 95.5423C202.516 95.5098 202.524 95.528 202.411 95.528V101.528ZM206.865 99.5061C207.453 98.7713 207.824 97.8819 208.082 97.081C208.354 96.2364 208.575 95.2531 208.76 94.1674L202.845 93.1606C202.689 94.0803 202.526 94.761 202.372 95.239C202.203 95.7607 202.104 95.8527 202.18 95.7579L206.865 99.5061ZM208.762 94.1572C209.143 91.8692 209.315 88.8414 209.315 85.152H203.315C203.315 88.716 203.145 91.3627 202.844 93.1708L208.762 94.1572ZM209.315 85.152C209.315 81.4685 209.144 78.4712 208.758 76.254L202.847 77.282C203.144 78.9901 203.315 81.5822 203.315 85.152H209.315ZM208.758 76.254C208.573 75.1877 208.35 74.2188 208.073 73.3873C207.812 72.6046 207.428 71.7074 206.801 70.9756L202.245 74.8804C202.13 74.7459 202.215 74.7874 202.381 75.2847C202.53 75.7332 202.691 76.3857 202.847 77.282L208.758 76.254ZM206.801 70.9756C205.636 69.6168 204.047 69.032 202.411 69.032V75.032C202.524 75.032 202.516 75.0502 202.439 75.0177C202.402 75.0022 202.362 74.9798 202.323 74.9512C202.285 74.9228 202.259 74.8965 202.245 74.8804L206.801 70.9756ZM202.411 69.032C200.775 69.032 199.186 69.6168 198.021 70.9756L202.577 74.8804C202.563 74.8965 202.537 74.9228 202.498 74.9512C202.46 74.9798 202.419 75.0022 202.382 75.0177C202.306 75.0502 202.297 75.032 202.411 75.032V69.032ZM198.021 70.9756C197.394 71.7074 197.01 72.6046 196.749 73.3873C196.472 74.2188 196.249 75.1877 196.063 76.254L201.974 77.282C202.13 76.3857 202.291 75.7332 202.441 75.2847C202.607 74.7874 202.692 74.7459 202.577 74.8804L198.021 70.9756ZM196.063 76.254C195.678 78.4712 195.507 81.4685 195.507 85.152H201.507C201.507 81.5822 201.677 78.9901 201.974 77.282L196.063 76.254ZM195.507 85.152C195.507 88.8414 195.678 91.8692 196.06 94.1572L201.978 93.1708C201.677 91.3627 201.507 88.716 201.507 85.152H195.507ZM196.061 94.1674C196.246 95.2531 196.467 96.2364 196.74 97.081C196.998 97.8819 197.368 98.7713 197.956 99.5061L202.641 95.7579C202.717 95.8527 202.618 95.7607 202.45 95.239C202.296 94.761 202.133 94.0803 201.976 93.1606L196.061 94.1674ZM243.042 107.488L242.658 104.513L242.652 104.513L243.042 107.488ZM230.242 107.552L231.384 104.778L231.384 104.778L230.242 107.552ZM232.802 63.904L231.78 61.0832L231.773 61.0861L231.765 61.089L232.802 63.904ZM243.682 62.688L243.226 65.6531L243.235 65.6546L243.245 65.6561L243.682 62.688ZM246.754 65.44L243.939 66.4771L243.942 66.4862L246.754 65.44ZM252.898 81.952L250.086 82.9982L250.813 84.952H252.898V81.952ZM253.154 81.952V84.952H256.154V81.952H253.154ZM256.802 63.904L257.839 66.719L257.839 66.719L256.802 63.904ZM270.242 64.096L272.693 62.3659L272.69 62.3619L270.242 64.096ZM267.042 107.488L266.658 104.513L266.652 104.513L267.042 107.488ZM253.282 106.784L256.097 105.747L256.092 105.735L256.088 105.723L253.282 106.784ZM247.33 91.04L250.136 89.9791L249.403 88.04H247.33V91.04ZM247.01 91.04V88.04H244.01V91.04H247.01ZM244.01 106.144C244.01 104.948 244.751 104.3 244.949 104.149C245.158 103.991 245.259 103.986 245.055 104.055C244.682 104.181 243.927 104.349 242.658 104.513L243.426 110.463C244.802 110.286 246.031 110.059 246.98 109.737C247.438 109.582 248.035 109.339 248.574 108.931C249.103 108.53 250.01 107.617 250.01 106.144H244.01ZM242.652 104.513C240.177 104.838 237.705 105 235.234 105V111C237.968 111 240.701 110.821 243.432 110.463L242.652 104.513ZM235.234 105C233.979 105 233.01 104.964 232.302 104.9C231.51 104.829 231.3 104.743 231.384 104.778L229.1 110.326C229.909 110.659 230.893 110.798 231.766 110.876C232.721 110.962 233.886 111 235.234 111V105ZM231.384 104.778C231.355 104.766 231.572 104.848 231.8 105.142C232.057 105.475 232.154 105.856 232.154 106.144H226.154C226.154 107.072 226.432 108.008 227.052 108.81C227.642 109.574 228.403 110.039 229.1 110.326L231.384 104.778ZM232.154 106.144V66.848H226.154V106.144H232.154ZM232.154 66.848C232.154 67.5822 231.709 67.8413 231.95 67.6466C232.191 67.4519 232.755 67.1182 233.839 66.719L231.765 61.089C230.416 61.5858 229.156 62.1907 228.182 62.9774C227.207 63.7641 226.154 65.0472 226.154 66.848H232.154ZM233.823 66.7248C235.916 65.9669 238.357 65.56 241.186 65.56V59.56C237.785 59.56 234.636 60.0491 231.78 61.0832L233.823 66.7248ZM241.186 65.56C242.259 65.56 242.905 65.6038 243.226 65.6531L244.138 59.7229C243.349 59.6015 242.331 59.56 241.186 59.56V65.56ZM243.245 65.6561C243.429 65.6831 243.492 65.7312 243.536 65.7705C243.601 65.8291 243.767 66.0104 243.939 66.4771L249.569 64.4029C248.673 61.9718 246.87 60.1246 244.118 59.7199L243.245 65.6561ZM243.942 66.4862L250.086 82.9982L255.709 80.9058L249.565 64.3938L243.942 66.4862ZM252.898 84.952H253.154V78.952H252.898V84.952ZM256.154 81.952V66.848H250.154V81.952H256.154ZM256.154 66.848C256.154 67.5822 255.709 67.8413 255.95 67.6466C256.191 67.4519 256.755 67.1182 257.839 66.719L255.765 61.089C254.416 61.5858 253.156 62.1907 252.182 62.9774C251.207 63.7641 250.154 65.0472 250.154 66.848H256.154ZM257.839 66.719C259.879 65.9673 262.292 65.56 265.122 65.56V59.56C261.723 59.56 258.588 60.0487 255.765 61.089L257.839 66.719ZM265.122 65.56C266.306 65.56 267.086 65.6764 267.556 65.8175C268.031 65.96 267.951 66.0521 267.794 65.8301L272.69 62.3619C271.807 61.1159 270.512 60.44 269.28 60.0705C268.043 59.6996 266.625 59.56 265.122 59.56V65.56ZM267.791 65.826C267.939 66.036 268 66.1663 268.02 66.219C268.039 66.2675 268.01 66.214 268.01 66.08H274.01C274.01 64.6285 273.397 63.3642 272.693 62.366L267.791 65.826ZM268.01 66.08V106.144H274.01V66.08H268.01ZM268.01 106.144C268.01 104.948 268.751 104.3 268.949 104.149C269.158 103.991 269.259 103.986 269.055 104.055C268.682 104.181 267.927 104.349 266.658 104.513L267.426 110.463C268.802 110.286 270.031 110.059 270.98 109.737C271.438 109.582 272.035 109.339 272.574 108.931C273.103 108.53 274.01 107.617 274.01 106.144H268.01ZM266.652 104.513C264.201 104.835 261.454 105 258.402 105V111C261.664 111 264.677 110.824 267.432 110.463L266.652 104.513ZM258.402 105C256.928 105 255.995 104.9 255.479 104.777C255.221 104.716 255.211 104.682 255.325 104.751C255.449 104.826 255.865 105.118 256.097 105.747L250.467 107.821C250.848 108.856 251.589 109.502 252.214 109.881C252.83 110.254 253.497 110.473 254.093 110.615C255.283 110.898 256.761 111 258.402 111V105ZM256.088 105.723L250.136 89.9791L244.524 92.1009L250.476 107.845L256.088 105.723ZM247.33 88.04H247.01V94.04H247.33V88.04ZM244.01 91.04V106.144H250.01V91.04H244.01ZM105.054 180.552L106.196 177.778L106.196 177.778L105.054 180.552ZM105.374 136.328L106.716 139.011L106.764 138.987L106.811 138.962L105.374 136.328ZM141.598 140.424L139.435 142.502L139.442 142.509L139.448 142.516L141.598 140.424ZM141.406 175.88L143.581 177.946L143.588 177.94L143.594 177.933L141.406 175.88ZM121.822 145.352L120.481 142.669L118.822 143.498V145.352H121.822ZM121.822 171.208H118.822V173.909L121.508 174.192L121.822 171.208ZM124.254 171.464L123.94 174.448L124.097 174.464H124.254V171.464ZM127.134 168.392L124.288 167.443L124.279 167.47L124.271 167.497L127.134 168.392ZM127.134 147.656L124.349 148.77L124.349 148.77L127.134 147.656ZM124.382 178H109.278V184H124.382V178ZM109.278 178C108.294 178 107.533 177.964 106.971 177.905C106.361 177.84 106.164 177.764 106.196 177.778L103.912 183.326C104.67 183.638 105.539 183.787 106.338 183.871C107.184 183.961 108.172 184 109.278 184V178ZM106.196 177.778C106.198 177.778 106.426 177.873 106.651 178.177C106.896 178.509 106.966 178.859 106.966 179.08H100.966C100.966 179.983 101.218 180.921 101.826 181.743C102.413 182.537 103.185 183.027 103.912 183.326L106.196 177.778ZM106.966 179.08V138.696H100.966V179.08H106.966ZM106.966 138.696C106.966 138.569 106.99 138.648 106.897 138.805C106.854 138.878 106.803 138.936 106.758 138.977C106.715 139.015 106.693 139.023 106.716 139.011L104.033 133.645C103.125 134.099 102.308 134.782 101.74 135.739C101.177 136.685 100.966 137.714 100.966 138.696H106.966ZM106.811 138.962C107.034 138.84 107.982 138.56 110.238 138.56V132.56C107.886 132.56 105.592 132.792 103.938 133.694L106.811 138.962ZM110.238 138.56H124.638V132.56H110.238V138.56ZM124.638 138.56C132.627 138.56 137.203 140.179 139.435 142.502L143.762 138.346C139.764 134.184 133.034 132.56 124.638 132.56V138.56ZM139.448 142.516C141.699 144.829 143.27 149.627 143.27 157.96H149.27C149.27 149.312 147.727 142.419 143.748 138.332L139.448 142.516ZM143.27 157.96C143.27 166.236 141.658 171.228 139.218 173.827L143.594 177.933C147.64 173.62 149.27 166.666 149.27 157.96H143.27ZM139.231 173.814C136.849 176.321 132.224 178 124.382 178V184C132.754 184 139.478 182.266 143.581 177.946L139.231 173.814ZM123.87 142.096C123.288 142.096 122.727 142.12 122.218 142.183C121.765 142.24 121.108 142.355 120.481 142.669L123.164 148.035C122.995 148.12 122.88 148.148 122.87 148.15C122.852 148.155 122.878 148.147 122.962 148.137C123.136 148.115 123.429 148.096 123.87 148.096V142.096ZM118.822 145.352V171.208H124.822V145.352H118.822ZM121.508 174.192L123.94 174.448L124.568 168.48L122.136 168.224L121.508 174.192ZM124.254 174.464C127.64 174.464 129.271 171.613 129.998 169.287L124.271 167.497C124.152 167.878 124.035 168.156 123.934 168.35C123.832 168.546 123.761 168.628 123.746 168.644C123.735 168.655 123.786 168.599 123.907 168.544C124.034 168.486 124.161 168.464 124.254 168.464V174.464ZM129.98 169.341C130.831 166.788 131.158 162.81 131.158 157.768H125.158C125.158 162.795 124.803 165.9 124.288 167.443L129.98 169.341ZM131.158 157.768C131.158 155.193 131.071 152.983 130.887 151.162C130.708 149.39 130.418 147.788 129.92 146.542L124.349 148.77C124.533 149.23 124.756 150.167 124.918 151.766C125.074 153.316 125.158 155.308 125.158 157.768H131.158ZM129.92 146.542C129.445 145.354 128.732 144.218 127.658 143.375C126.542 142.5 125.231 142.096 123.87 142.096V148.096C123.955 148.096 123.982 148.108 123.973 148.104C123.96 148.1 123.951 148.093 123.955 148.097C123.968 148.107 124.141 148.251 124.349 148.77L129.92 146.542ZM163.259 180.616L162.474 183.511L162.502 183.519L162.531 183.526L163.259 180.616ZM156.283 177.032L158.157 174.689L158.144 174.679L158.131 174.669L156.283 177.032ZM151.547 147.144L148.761 146.03L148.754 146.047L148.748 146.064L151.547 147.144ZM156.475 140.04L154.554 137.735L154.55 137.739L156.475 140.04ZM181.179 135.816L180.475 138.732L180.486 138.735L181.179 135.816ZM188.283 139.08L190.042 136.65L190.032 136.643L190.022 136.636L188.283 139.08ZM188.923 175.752L190.998 177.918L190.998 177.918L188.923 175.752ZM170.299 170.632L167.956 172.506L167.988 172.546L168.021 172.584L170.299 170.632ZM174.523 170.632L176.801 172.584L176.834 172.546L176.865 172.506L174.523 170.632ZM175.803 166.664L178.76 167.167L178.762 167.157L175.803 166.664ZM175.803 149.768L178.758 149.254L178.758 149.254L175.803 149.768ZM170.299 145.928L172.577 147.88L172.577 147.88L170.299 145.928ZM169.019 149.768L171.974 150.282L171.974 150.282L169.019 149.768ZM169.019 166.664L166.06 167.157L166.061 167.167L169.019 166.664ZM172.411 178.576C169.037 178.576 166.243 178.27 163.986 177.706L162.531 183.526C165.394 184.242 168.702 184.576 172.411 184.576V178.576ZM164.044 177.721C161.942 177.151 159.984 176.152 158.157 174.689L154.409 179.375C156.848 181.326 159.54 182.716 162.474 183.511L164.044 177.721ZM158.131 174.669C154.947 172.178 152.819 166.938 152.819 157.64H146.819C146.819 167.456 149 175.144 154.434 179.395L158.131 174.669ZM152.819 157.64C152.819 153.909 153.355 150.791 154.346 148.224L148.748 146.064C147.434 149.47 146.819 153.35 146.819 157.64H152.819ZM154.332 148.258C155.376 145.649 156.753 143.719 158.4 142.341L154.55 137.739C152.015 139.86 150.107 142.666 148.761 146.03L154.332 148.258ZM158.395 142.345C161.839 139.475 166.421 137.92 172.411 137.92V131.92C165.344 131.92 159.303 133.778 154.554 137.735L158.395 142.345ZM172.411 137.92C175.616 137.92 178.291 138.205 180.475 138.732L181.883 132.9C179.117 132.232 175.947 131.92 172.411 131.92V137.92ZM180.486 138.735C182.608 139.238 184.623 140.158 186.543 141.524L190.022 136.636C187.505 134.845 184.784 133.588 181.871 132.897L180.486 138.735ZM186.524 141.51C189.827 143.901 192.003 148.844 192.003 157.64H198.003C198.003 148.174 195.699 140.744 190.042 136.65L186.524 141.51ZM192.003 157.64C192.003 165.392 190.084 170.486 186.848 173.586L190.998 177.918C195.868 173.253 198.003 166.272 198.003 157.64H192.003ZM186.848 173.586C183.479 176.812 178.787 178.576 172.411 178.576V184.576C179.944 184.576 186.26 182.457 190.998 177.918L186.848 173.586ZM168.021 172.584C169.186 173.943 170.775 174.528 172.411 174.528V168.528C172.297 168.528 172.306 168.51 172.382 168.542C172.419 168.558 172.46 168.58 172.498 168.609C172.537 168.637 172.563 168.664 172.577 168.68L168.021 172.584ZM172.411 174.528C174.047 174.528 175.636 173.943 176.801 172.584L172.245 168.68C172.259 168.664 172.285 168.637 172.323 168.609C172.362 168.58 172.402 168.558 172.439 168.542C172.516 168.51 172.524 168.528 172.411 168.528V174.528ZM176.865 172.506C177.453 171.771 177.824 170.882 178.082 170.081C178.354 169.236 178.575 168.253 178.76 167.167L172.845 166.161C172.689 167.08 172.526 167.761 172.372 168.239C172.203 168.761 172.104 168.853 172.18 168.758L176.865 172.506ZM178.762 167.157C179.143 164.869 179.315 161.841 179.315 158.152H173.315C173.315 161.716 173.145 164.363 172.844 166.171L178.762 167.157ZM179.315 158.152C179.315 154.468 179.144 151.471 178.758 149.254L172.847 150.282C173.144 151.99 173.315 154.582 173.315 158.152H179.315ZM178.758 149.254C178.573 148.188 178.35 147.219 178.073 146.387C177.812 145.605 177.428 144.707 176.801 143.976L172.245 147.88C172.13 147.746 172.215 147.787 172.381 148.285C172.53 148.733 172.691 149.386 172.847 150.282L178.758 149.254ZM176.801 143.976C175.636 142.617 174.047 142.032 172.411 142.032V148.032C172.524 148.032 172.516 148.05 172.439 148.018C172.402 148.002 172.362 147.98 172.323 147.951C172.285 147.923 172.259 147.896 172.245 147.88L176.801 143.976ZM172.411 142.032C170.775 142.032 169.186 142.617 168.021 143.976L172.577 147.88C172.563 147.896 172.537 147.923 172.498 147.951C172.46 147.98 172.419 148.002 172.382 148.018C172.306 148.05 172.297 148.032 172.411 148.032V142.032ZM168.021 143.976C167.394 144.707 167.01 145.605 166.749 146.387C166.472 147.219 166.249 148.188 166.063 149.254L171.974 150.282C172.13 149.386 172.291 148.733 172.441 148.285C172.607 147.787 172.692 147.746 172.577 147.88L168.021 143.976ZM166.063 149.254C165.678 151.471 165.507 154.468 165.507 158.152H171.507C171.507 154.582 171.677 151.99 171.974 150.282L166.063 149.254ZM165.507 158.152C165.507 161.841 165.678 164.869 166.06 167.157L171.978 166.171C171.677 164.363 171.507 161.716 171.507 158.152H165.507ZM166.061 167.167C166.246 168.253 166.467 169.236 166.74 170.081C166.998 170.882 167.368 171.771 167.956 172.506L172.641 168.758C172.717 168.853 172.618 168.761 172.45 168.239C172.296 167.761 172.133 167.08 171.976 166.161L166.061 167.167ZM209.01 181.064L209.714 178.148L209.01 181.064ZM205.106 179.208L203.318 181.617L203.362 181.65L203.406 181.68L205.106 179.208ZM201.714 175.368L204.292 173.835L204.292 173.834L201.714 175.368ZM200.114 148.68L202.943 149.676L202.943 149.676L200.114 148.68ZM204.146 141.64L206.294 143.734L206.308 143.72L206.321 143.706L204.146 141.64ZM209.97 137.48L211.25 140.193L211.25 140.193L209.97 137.48ZM216.306 135.432L216.757 138.398L216.788 138.393L216.82 138.388L216.306 135.432ZM233.394 136.264L232.212 139.021L232.236 139.032L232.26 139.042L233.394 136.264ZM235.442 147.656L238.298 148.572L238.301 148.565L238.303 148.557L235.442 147.656ZM227.89 150.088L227.117 152.987L227.139 152.993L227.162 152.998L227.89 150.088ZM217.906 165.32L215.283 166.777L215.292 166.793L215.301 166.808L217.906 165.32ZM221.106 167.816L220.709 170.79L224.106 171.243V167.816H221.106ZM234.994 158.152L234.17 161.037L234.187 161.042L234.204 161.046L234.994 158.152ZM236.914 159.24L234.488 161.005L234.516 161.044L234.546 161.082L236.914 159.24ZM234.418 180.36L233.97 177.394L233.962 177.395L234.418 180.36ZM222.898 180.552L221.784 183.337L221.865 183.37L221.949 183.398L222.898 180.552ZM221.81 178.568L224.8 178.329L224.796 178.272L224.789 178.215L221.81 178.568ZM221.362 174.792L224.341 174.439L224.027 171.792H221.362V174.792ZM220.85 174.792V171.792H218.299L217.889 174.31L220.85 174.792ZM218.546 179.528L216.355 177.479L216.337 177.498L216.319 177.517L218.546 179.528ZM213.042 178.512C211.796 178.512 210.691 178.384 209.714 178.148L208.306 183.98C209.803 184.342 211.386 184.512 213.042 184.512V178.512ZM209.714 178.148C208.922 177.957 207.955 177.526 206.805 176.736L203.406 181.68C204.987 182.767 206.623 183.574 208.306 183.98L209.714 178.148ZM206.893 176.799C205.925 176.08 205.051 175.111 204.292 173.835L199.135 176.901C200.253 178.782 201.642 180.373 203.318 181.617L206.893 176.799ZM204.292 173.834C202.569 170.94 201.514 166.191 201.514 159.176H195.514C195.514 166.582 196.592 172.628 199.136 176.902L204.292 173.834ZM201.514 159.176C201.514 155.47 202.012 152.32 202.943 149.676L197.284 147.684C196.082 151.098 195.514 154.946 195.514 159.176H201.514ZM202.943 149.676C203.917 146.91 205.07 144.99 206.294 143.734L201.997 139.546C199.979 141.618 198.443 144.391 197.284 147.684L202.943 149.676ZM206.321 143.706C207.671 142.285 209.303 141.111 211.25 140.193L208.69 134.767C206.114 135.982 203.863 137.581 201.971 139.574L206.321 143.706ZM211.25 140.193C213.313 139.22 215.144 138.643 216.757 138.398L215.854 132.466C213.542 132.818 211.149 133.607 208.69 134.767L211.25 140.193ZM216.82 138.388C218.595 138.079 220.512 137.92 222.578 137.92V131.92C220.206 131.92 217.942 132.102 215.792 132.476L216.82 138.388ZM222.578 137.92C227.675 137.92 230.734 138.388 232.212 139.021L234.576 133.507C231.873 132.348 227.721 131.92 222.578 131.92V137.92ZM232.26 139.042C232.814 139.268 233.065 139.524 233.205 139.748C233.359 139.992 233.53 140.438 233.53 141.256H239.53C239.53 139.599 239.178 137.976 238.286 136.556C237.382 135.116 236.064 134.114 234.527 133.486L232.26 139.042ZM233.53 141.256C233.53 142.852 233.234 144.678 232.58 146.755L238.303 148.557C239.1 146.026 239.53 143.585 239.53 141.256H233.53ZM232.585 146.74C232.294 147.648 232.022 148.028 231.916 148.141C231.877 148.182 231.898 148.148 231.987 148.107C232.083 148.064 232.179 148.048 232.242 148.048V154.048C235.746 154.048 237.487 151.102 238.298 148.572L232.585 146.74ZM232.242 148.048C232.458 148.048 232.55 148.078 232.305 148.035C232.138 148.005 231.888 147.954 231.544 147.878C230.859 147.727 229.888 147.495 228.617 147.178L227.162 152.998C228.452 153.321 229.486 153.569 230.252 153.738C230.632 153.822 230.97 153.891 231.25 153.941C231.453 153.978 231.855 154.048 232.242 154.048V148.048ZM228.663 147.189C226.059 146.495 223.823 146.064 222.13 146.064V152.064C222.997 152.064 224.6 152.316 227.117 152.987L228.663 147.189ZM222.13 146.064C219.262 146.064 216.892 147.373 215.421 149.854C214.096 152.088 213.626 155.052 213.626 158.344H219.626C219.626 155.449 220.072 153.774 220.582 152.914C220.946 152.301 221.328 152.064 222.13 152.064V146.064ZM213.626 158.344C213.626 161.629 214.058 164.571 215.283 166.777L220.528 163.863C220.047 162.997 219.626 161.288 219.626 158.344H213.626ZM215.301 166.808C216.452 168.822 218.213 170.457 220.709 170.79L221.502 164.842C221.438 164.834 221.066 164.804 220.51 163.832L215.301 166.808ZM224.106 167.816V162.056H218.106V167.816H224.106ZM224.106 162.056C224.106 162.654 223.773 162.89 223.931 162.748C224.112 162.584 224.573 162.273 225.512 161.886L223.228 156.338C221.99 156.847 220.819 157.474 219.912 158.292C218.983 159.131 218.106 160.392 218.106 162.056H224.106ZM225.512 161.886C227.388 161.114 229.09 160.768 230.642 160.768V154.768C228.183 154.768 225.704 155.318 223.228 156.338L225.512 161.886ZM230.642 160.768C232.613 160.768 233.704 160.904 234.17 161.037L235.818 155.267C234.492 154.888 232.682 154.768 230.642 154.768V160.768ZM234.204 161.046C234.35 161.086 234.463 161.124 234.547 161.157C234.632 161.19 234.679 161.215 234.699 161.226C234.743 161.251 234.627 161.196 234.488 161.005L239.34 157.475C238.405 156.189 236.973 155.582 235.783 155.258L234.204 161.046ZM234.546 161.082C234.735 161.326 234.813 161.474 234.837 161.53C234.861 161.584 234.81 161.492 234.81 161.288H240.81C240.81 159.719 240.051 158.387 239.282 157.398L234.546 161.082ZM234.81 161.288V179.016H240.81V161.288H234.81ZM234.81 179.016C234.81 178.018 235.35 177.396 235.607 177.167C235.837 176.963 235.988 176.927 235.857 176.979C235.614 177.075 235.036 177.233 233.97 177.394L234.866 183.326C236.061 183.146 237.179 182.909 238.067 182.557C238.501 182.385 239.076 182.111 239.588 181.657C240.128 181.177 240.81 180.291 240.81 179.016H234.81ZM233.962 177.395C231.906 177.711 229.734 177.872 227.442 177.872V183.872C230.014 183.872 232.492 183.692 234.874 183.325L233.962 177.395ZM227.442 177.872C226.283 177.872 225.384 177.846 224.724 177.799C223.985 177.747 223.778 177.683 223.846 177.706L221.949 183.398C222.658 183.634 223.527 183.73 224.303 183.785C225.158 183.845 226.212 183.872 227.442 183.872V177.872ZM224.012 177.767C224.183 177.835 224.35 177.938 224.495 178.071C224.637 178.201 224.726 178.33 224.776 178.422C224.865 178.583 224.822 178.604 224.8 178.329L218.819 178.807C218.94 180.319 219.566 182.451 221.784 183.337L224.012 177.767ZM224.789 178.215L224.341 174.439L218.383 175.145L218.831 178.921L224.789 178.215ZM221.362 171.792H220.85V177.792H221.362V171.792ZM217.889 174.31C217.683 175.574 217.175 176.602 216.355 177.479L220.737 181.577C222.392 179.808 223.419 177.68 223.811 175.274L217.889 174.31ZM216.319 177.517C215.888 177.995 215.009 178.512 213.042 178.512V184.512C216.024 184.512 218.814 183.706 220.772 181.539L216.319 177.517ZM274.855 178.312L273.081 175.893L273.081 175.893L274.855 178.312ZM269.479 180.68L270.245 183.581L270.263 183.576L270.282 183.571L269.479 180.68ZM243.431 178.696L242.057 181.363L242.057 181.363L243.431 178.696ZM242.343 169.16L245.241 169.933L245.245 169.921L242.343 169.16ZM250.087 166.984L251.057 164.145L251.057 164.145L250.087 166.984ZM261.031 168.2L262.695 170.696L262.764 170.65L262.831 170.6L261.031 168.2ZM260.391 164.808L258.865 167.391L258.909 167.417L258.954 167.442L260.391 164.808ZM256.871 163.4L256.001 166.271L256.041 166.283L256.081 166.294L256.871 163.4ZM252.263 161.608L250.978 164.319L250.992 164.326L251.006 164.332L252.263 161.608ZM247.719 159.048L249.383 156.552L249.383 156.552L247.719 159.048ZM244.199 155.08L241.555 156.498L241.563 156.512L241.57 156.526L244.199 155.08ZM270.695 135.752L270.162 138.704L270.182 138.708L270.202 138.711L270.695 135.752ZM277.159 137.544L275.71 140.171L275.763 140.2L275.817 140.227L277.159 137.544ZM277.479 146.632L274.71 145.478L274.701 145.498L274.693 145.518L277.479 146.632ZM272.807 149.896L271.6 152.643L271.635 152.658L271.671 152.673L272.807 149.896ZM261.991 148.552L260.649 145.869L260.614 145.886L260.579 145.905L261.991 148.552ZM262.439 151.88L261.097 154.563L261.147 154.588L261.197 154.611L262.439 151.88ZM265.895 153.096L265.083 155.984L265.135 155.999L265.188 156.012L265.895 153.096ZM270.439 154.76L269.154 157.471L269.197 157.491L269.24 157.51L270.439 154.76ZM275.047 157.384L273.282 159.81L273.307 159.828L273.331 159.845L275.047 157.384ZM278.567 161.608L281.237 160.242L281.237 160.242L278.567 161.608ZM277.991 174.984L280.525 176.589L280.526 176.588L277.991 174.984ZM273.081 175.893C272.202 176.537 270.79 177.202 268.676 177.789L270.282 183.571C272.776 182.878 274.947 181.964 276.629 180.731L273.081 175.893ZM268.713 177.779C266.799 178.285 264.14 178.576 260.647 178.576V184.576C264.407 184.576 267.636 184.27 270.245 183.581L268.713 177.779ZM260.647 178.576C257.229 178.576 253.999 178.291 250.95 177.73L249.863 183.63C253.3 184.263 256.896 184.576 260.647 184.576V178.576ZM250.95 177.73C247.755 177.141 245.798 176.541 244.805 176.029L242.057 181.363C243.88 182.302 246.574 183.024 249.863 183.63L250.95 177.73ZM244.805 176.029C244.534 175.89 244.333 175.77 244.188 175.671C244.04 175.572 243.978 175.513 243.968 175.503C243.956 175.491 244.037 175.567 244.126 175.742C244.222 175.931 244.319 176.221 244.319 176.584H238.319C238.319 178.023 239.069 179.088 239.725 179.745C240.387 180.407 241.22 180.932 242.057 181.363L244.805 176.029ZM244.319 176.584C244.319 174.482 244.619 172.268 245.241 169.933L239.444 168.387C238.701 171.172 238.319 173.907 238.319 176.584H244.319ZM245.245 169.921C245.558 168.727 245.84 168.09 246.009 167.818C246.088 167.692 246.063 167.775 245.885 167.907C245.673 168.065 245.285 168.256 244.775 168.256V162.256C242.736 162.256 241.511 163.691 240.916 164.646C240.275 165.675 239.81 166.991 239.441 168.399L245.245 169.921ZM244.775 168.256C244.594 168.256 244.455 168.239 244.4 168.231C244.332 168.222 244.28 168.213 244.253 168.208C244.201 168.198 244.172 168.19 244.18 168.192C244.193 168.195 244.244 168.209 244.349 168.24C244.554 168.301 244.868 168.399 245.303 168.541C246.167 168.822 247.435 169.248 249.117 169.823L251.057 164.145C249.368 163.568 248.066 163.13 247.159 162.835C246.708 162.689 246.336 162.571 246.056 162.488C245.919 162.447 245.777 162.407 245.648 162.374C245.584 162.358 245.496 162.337 245.398 162.318C245.356 162.31 245.096 162.256 244.775 162.256V168.256ZM249.117 169.823C252.536 170.991 255.471 171.712 257.703 171.712V165.712C256.521 165.712 254.379 165.281 251.057 164.145L249.117 169.823ZM257.703 171.712C258.639 171.712 259.509 171.666 260.271 171.549C260.959 171.443 261.888 171.234 262.695 170.696L259.367 165.704C259.544 165.586 259.659 165.554 259.631 165.563C259.613 165.569 259.529 165.593 259.359 165.619C259.011 165.672 258.473 165.712 257.703 165.712V171.712ZM262.831 170.6C264.155 169.607 264.799 168.154 264.799 166.6H258.799C258.799 166.561 258.808 166.41 258.902 166.214C259 166.011 259.133 165.873 259.231 165.8L262.831 170.6ZM264.799 166.6C264.799 164.282 263.141 162.891 261.827 162.174L258.954 167.442C259.202 167.577 259.185 167.617 259.088 167.493C259.032 167.423 258.956 167.304 258.894 167.137C258.831 166.965 258.799 166.781 258.799 166.6H264.799ZM261.917 162.225C260.685 161.497 259.245 160.938 257.66 160.506L256.081 166.294C257.312 166.63 258.219 167.009 258.865 167.391L261.917 162.225ZM257.741 160.529C256.493 160.151 255.087 159.608 253.52 158.884L251.006 164.332C252.766 165.144 254.433 165.796 256.001 166.271L257.741 160.529ZM253.547 158.897C252.05 158.187 250.663 157.405 249.383 156.552L246.055 161.544C247.591 162.568 249.233 163.493 250.978 164.319L253.547 158.897ZM249.383 156.552C248.433 155.919 247.569 154.982 246.827 153.634L241.57 156.526C242.706 158.591 244.189 160.3 246.055 161.544L249.383 156.552ZM246.842 153.662C246.164 152.398 245.791 150.911 245.791 149.128H239.791C239.791 151.783 240.356 154.264 241.555 156.498L246.842 153.662ZM245.791 149.128C245.791 145.008 246.995 142.415 248.957 140.772C251.021 139.043 254.443 137.92 259.751 137.92V131.92C253.752 131.92 248.694 133.165 245.104 136.172C241.413 139.265 239.791 143.776 239.791 149.128H245.791ZM259.751 137.92C263.854 137.92 267.315 138.19 270.162 138.704L271.228 132.8C267.931 132.204 264.095 131.92 259.751 131.92V137.92ZM270.202 138.711C273.243 139.218 274.955 139.754 275.71 140.171L278.608 134.917C276.888 133.968 274.29 133.31 271.188 132.793L270.202 138.711ZM275.817 140.227C276.051 140.344 276.219 140.443 276.335 140.52C276.453 140.599 276.489 140.637 276.477 140.625C276.467 140.615 276.372 140.519 276.275 140.326C276.172 140.119 276.079 139.822 276.079 139.464H282.079C282.079 138.068 281.367 137.03 280.72 136.383C280.079 135.742 279.282 135.251 278.5 134.861L275.817 140.227ZM276.079 139.464C276.079 141.201 275.661 143.195 274.71 145.478L280.248 147.786C281.43 144.949 282.079 142.164 282.079 139.464H276.079ZM274.693 145.518C274.225 146.69 273.843 147.348 273.597 147.662C273.48 147.811 273.468 147.786 273.584 147.711C273.722 147.623 274.031 147.472 274.471 147.472V153.472C276.35 153.472 277.619 152.258 278.32 151.362C279.077 150.396 279.709 149.134 280.264 147.746L274.693 145.518ZM274.471 147.472C274.595 147.472 274.696 147.48 274.762 147.488C274.83 147.495 274.884 147.504 274.92 147.51C274.99 147.523 275.033 147.534 275.038 147.536C275.048 147.538 275.011 147.529 274.908 147.493C274.707 147.423 274.392 147.303 273.943 147.119L271.671 152.673C272.16 152.873 272.592 153.041 272.945 153.163C273.12 153.223 273.312 153.286 273.503 153.336C273.619 153.367 274.009 153.472 274.471 153.472V147.472ZM274.014 147.149C271.03 145.838 268.242 145.04 265.767 145.04V151.04C267.046 151.04 268.951 151.479 271.6 152.643L274.014 147.149ZM265.767 145.04C264.768 145.04 263.851 145.086 263.044 145.195C262.274 145.299 261.416 145.485 260.649 145.869L263.332 151.235C263.248 151.278 263.36 151.207 263.85 151.141C264.301 151.08 264.931 151.04 265.767 151.04V145.04ZM260.579 145.905C259.86 146.288 259.182 146.859 258.698 147.665C258.215 148.47 258.031 149.337 258.031 150.152H264.031C264.031 150.242 264.007 150.479 263.843 150.751C263.68 151.024 263.481 151.157 263.403 151.199L260.579 145.905ZM258.031 150.152C258.031 152.517 259.745 153.887 261.097 154.563L263.78 149.197C263.545 149.079 263.588 149.053 263.708 149.201C263.776 149.284 263.862 149.416 263.93 149.596C263.998 149.779 264.031 149.971 264.031 150.152H258.031ZM261.197 154.611C262.315 155.119 263.621 155.573 265.083 155.984L266.707 150.208C265.438 149.851 264.439 149.494 263.68 149.149L261.197 154.611ZM265.188 156.012C266.357 156.295 267.676 156.771 269.154 157.471L271.723 152.049C269.958 151.213 268.249 150.58 266.602 150.18L265.188 156.012ZM269.24 157.51C270.713 158.152 272.058 158.92 273.282 159.81L276.811 154.958C275.22 153.8 273.493 152.819 271.638 152.01L269.24 157.51ZM273.331 159.845C274.263 160.494 275.137 161.49 275.896 162.974L281.237 160.242C280.12 158.057 278.647 156.236 276.762 154.923L273.331 159.845ZM275.896 162.974C276.583 164.316 276.975 165.966 276.975 168.008H282.975C282.975 165.186 282.428 162.569 281.237 160.242L275.896 162.974ZM276.975 168.008C276.975 170.021 276.464 171.787 275.456 173.38L280.526 176.588C282.163 174 282.975 171.115 282.975 168.008H276.975ZM275.456 173.379C274.856 174.327 274.073 175.165 273.081 175.893L276.629 180.731C278.196 179.582 279.505 178.201 280.525 176.589L275.456 173.379Z" fill="#F59295"/>
</svg>
