<svg width="375" height="442" viewBox="0 0 375 442" fill="none" xmlns="http://www.w3.org/2000/svg">
<rect width="375" height="257" fill="#FFE0B2"/>
<ellipse cx="187.5" cy="265.555" rx="187.5" ry="176.445" fill="#FFE0B2"/>
<path d="M129.822 106.464C129.822 106.933 128.521 107.317 125.918 107.616C123.316 107.872 120.692 108 118.046 108C115.444 108 113.78 107.893 113.054 107.68C112.329 107.424 111.966 107.019 111.966 106.464V66.656C111.966 65.7173 113.204 64.8 115.678 63.904C118.153 62.9653 120.926 62.496 123.998 62.496C126.729 62.496 128.521 63.072 129.374 64.224C129.673 64.6507 129.822 65.0773 129.822 65.504V106.464ZM152.886 106.144C152.886 106.699 151.585 107.147 148.982 107.488C146.38 107.829 143.756 108 141.11 108C138.508 108 136.822 107.851 136.054 107.552C135.329 107.253 134.966 106.784 134.966 106.144V64.992C134.966 63.8827 136.353 63.0933 139.126 62.624C141.942 62.1547 145.484 61.92 149.75 61.92C154.017 61.92 156.769 61.9413 158.006 61.984C159.286 61.984 160.78 62.048 162.486 62.176C164.193 62.304 165.537 62.5173 166.518 62.816C167.542 63.1147 168.652 63.4987 169.846 63.968C171.084 64.4373 172.044 65.056 172.726 65.824C173.409 66.5493 174.07 67.424 174.71 68.448C175.862 70.2827 176.438 72.9067 176.438 76.32C176.438 79.6907 175.862 82.5493 174.71 84.896C173.601 87.2 172.108 88.9493 170.23 90.144C175.137 97.8667 177.59 102.773 177.59 104.864C177.59 106.955 173.388 108 164.982 108C162.55 108 160.865 107.893 159.926 107.68C158.988 107.467 158.39 106.997 158.134 106.272L153.974 93.088L152.886 93.024V106.144ZM152.886 83.168H154.55C157.025 83.168 158.262 81.248 158.262 77.408C158.262 75.4453 157.921 74.0587 157.238 73.248C156.598 72.4373 155.852 72.032 154.998 72.032H152.886V83.168ZM202.411 108.576C198.869 108.576 195.819 108.256 193.259 107.616C190.741 106.933 188.416 105.739 186.283 104.032C181.973 100.661 179.819 94.1973 179.819 84.64C179.819 80.6293 180.395 77.1307 181.547 74.144C182.741 71.1573 184.384 68.7893 186.475 67.04C190.571 63.6267 195.883 61.92 202.411 61.92C205.781 61.92 208.704 62.2187 211.179 62.816C213.696 63.4133 216.064 64.5013 218.283 66.08C222.763 69.3227 225.003 75.5093 225.003 84.64C225.003 92.832 222.976 98.8693 218.923 102.752C214.869 106.635 209.365 108.576 202.411 108.576ZM200.299 97.632C200.811 98.2293 201.515 98.528 202.411 98.528C203.307 98.528 204.011 98.2293 204.523 97.632C205.035 96.992 205.461 95.6693 205.803 93.664C206.144 91.616 206.315 88.7787 206.315 85.152C206.315 81.5253 206.144 78.7307 205.803 76.768C205.461 74.8053 205.035 73.5253 204.523 72.928C204.011 72.3307 203.307 72.032 202.411 72.032C201.515 72.032 200.811 72.3307 200.299 72.928C199.787 73.5253 199.36 74.8053 199.019 76.768C198.677 78.7307 198.507 81.5253 198.507 85.152C198.507 88.7787 198.677 91.616 199.019 93.664C199.36 95.6693 199.787 96.992 200.299 97.632ZM247.01 106.144C247.01 106.699 245.687 107.147 243.042 107.488C240.439 107.829 237.836 108 235.234 108C232.631 108 230.967 107.851 230.242 107.552C229.516 107.253 229.154 106.784 229.154 106.144V66.848C229.154 65.7813 230.37 64.8 232.802 63.904C235.276 63.008 238.071 62.56 241.186 62.56C242.295 62.56 243.127 62.6027 243.682 62.688C245.132 62.9013 246.156 63.8187 246.754 65.44L252.898 81.952H253.154V66.848C253.154 65.7813 254.37 64.8 256.802 63.904C259.234 63.008 262.007 62.56 265.122 62.56C267.81 62.56 269.516 63.072 270.242 64.096C270.754 64.8213 271.01 65.4827 271.01 66.08V106.144C271.01 106.699 269.687 107.147 267.042 107.488C264.439 107.829 261.559 108 258.402 108C255.287 108 253.58 107.595 253.282 106.784L247.33 91.04H247.01V106.144ZM124.382 181H109.278C107.188 181 105.78 180.851 105.054 180.552C104.329 180.253 103.966 179.763 103.966 179.08V138.696C103.966 137.587 104.436 136.797 105.374 136.328C106.313 135.816 107.934 135.56 110.238 135.56H124.638C132.83 135.56 138.484 137.181 141.598 140.424C144.713 143.624 146.27 149.469 146.27 157.96C146.27 166.451 144.649 172.424 141.406 175.88C138.164 179.293 132.489 181 124.382 181ZM123.87 145.096C122.846 145.096 122.164 145.181 121.822 145.352V171.208L124.254 171.464C125.534 171.464 126.494 170.44 127.134 168.392C127.817 166.344 128.158 162.803 128.158 157.768C128.158 152.733 127.817 149.363 127.134 147.656C126.452 145.949 125.364 145.096 123.87 145.096ZM172.411 181.576C168.869 181.576 165.819 181.256 163.259 180.616C160.741 179.933 158.416 178.739 156.283 177.032C151.973 173.661 149.819 167.197 149.819 157.64C149.819 153.629 150.395 150.131 151.547 147.144C152.741 144.157 154.384 141.789 156.475 140.04C160.571 136.627 165.883 134.92 172.411 134.92C175.781 134.92 178.704 135.219 181.179 135.816C183.696 136.413 186.064 137.501 188.283 139.08C192.763 142.323 195.003 148.509 195.003 157.64C195.003 165.832 192.976 171.869 188.923 175.752C184.869 179.635 179.365 181.576 172.411 181.576ZM170.299 170.632C170.811 171.229 171.515 171.528 172.411 171.528C173.307 171.528 174.011 171.229 174.523 170.632C175.035 169.992 175.461 168.669 175.803 166.664C176.144 164.616 176.315 161.779 176.315 158.152C176.315 154.525 176.144 151.731 175.803 149.768C175.461 147.805 175.035 146.525 174.523 145.928C174.011 145.331 173.307 145.032 172.411 145.032C171.515 145.032 170.811 145.331 170.299 145.928C169.787 146.525 169.36 147.805 169.019 149.768C168.677 151.731 168.507 154.525 168.507 158.152C168.507 161.779 168.677 164.616 169.019 166.664C169.36 168.669 169.787 169.992 170.299 170.632ZM213.042 181.512C211.591 181.512 210.247 181.363 209.01 181.064C207.772 180.765 206.471 180.147 205.106 179.208C203.783 178.227 202.652 176.947 201.714 175.368C199.58 171.784 198.514 166.387 198.514 159.176C198.514 155.208 199.047 151.709 200.114 148.68C201.18 145.651 202.524 143.304 204.146 141.64C205.767 139.933 207.708 138.547 209.97 137.48C212.231 136.413 214.343 135.731 216.306 135.432C218.268 135.091 220.359 134.92 222.578 134.92C227.698 134.92 231.303 135.368 233.394 136.264C235.484 137.117 236.53 138.781 236.53 141.256C236.53 143.219 236.167 145.352 235.442 147.656C234.716 149.917 233.65 151.048 232.242 151.048C231.9 151.048 230.45 150.728 227.89 150.088C225.33 149.405 223.41 149.064 222.13 149.064C218.46 149.064 216.626 152.157 216.626 158.344C216.626 161.459 217.052 163.784 217.906 165.32C218.759 166.813 219.826 167.645 221.106 167.816V162.056C221.106 160.989 222.194 160.008 224.37 159.112C226.546 158.216 228.636 157.768 230.642 157.768C232.647 157.768 234.098 157.896 234.994 158.152C235.932 158.408 236.572 158.771 236.914 159.24C237.511 160.008 237.81 160.691 237.81 161.288V179.016C237.81 179.571 236.679 180.019 234.418 180.36C232.199 180.701 229.874 180.872 227.442 180.872C225.052 180.872 223.538 180.765 222.898 180.552C222.258 180.296 221.895 179.635 221.81 178.568L221.362 174.792H220.85C220.551 176.627 219.783 178.205 218.546 179.528C217.351 180.851 215.516 181.512 213.042 181.512ZM274.855 178.312C273.575 179.251 271.783 180.04 269.479 180.68C267.217 181.277 264.273 181.576 260.647 181.576C257.063 181.576 253.649 181.277 250.407 180.68C247.164 180.083 244.839 179.421 243.431 178.696C242.023 177.971 241.319 177.267 241.319 176.584C241.319 174.195 241.66 171.72 242.343 169.16C243.025 166.557 243.836 165.256 244.775 165.256C244.945 165.256 246.716 165.832 250.087 166.984C253.457 168.136 255.996 168.712 257.703 168.712C259.409 168.712 260.519 168.541 261.031 168.2C261.543 167.816 261.799 167.283 261.799 166.6C261.799 165.917 261.329 165.32 260.391 164.808C259.452 164.253 258.279 163.784 256.871 163.4C255.463 162.973 253.927 162.376 252.263 161.608C250.641 160.84 249.127 159.987 247.719 159.048C246.311 158.109 245.137 156.787 244.199 155.08C243.26 153.331 242.791 151.347 242.791 149.128C242.791 139.656 248.444 134.92 259.751 134.92C263.975 134.92 267.623 135.197 270.695 135.752C273.767 136.264 275.921 136.861 277.159 137.544C278.439 138.184 279.079 138.824 279.079 139.464C279.079 141.683 278.545 144.072 277.479 146.632C276.455 149.192 275.452 150.472 274.471 150.472C274.3 150.472 273.745 150.28 272.807 149.896C269.991 148.659 267.644 148.04 265.767 148.04C263.932 148.04 262.673 148.211 261.991 148.552C261.351 148.893 261.031 149.427 261.031 150.152C261.031 150.835 261.5 151.411 262.439 151.88C263.377 152.307 264.529 152.712 265.895 153.096C267.303 153.437 268.817 153.992 270.439 154.76C272.103 155.485 273.639 156.36 275.047 157.384C276.455 158.365 277.628 159.773 278.567 161.608C279.505 163.443 279.975 165.576 279.975 168.008C279.975 170.568 279.313 172.893 277.991 174.984C277.18 176.264 276.135 177.373 274.855 178.312Z" fill="black"/>
<path d="M125.918 107.616L126.114 109.606L126.13 109.605L126.146 109.603L125.918 107.616ZM113.054 107.68L112.389 109.566L112.439 109.584L112.49 109.599L113.054 107.68ZM115.678 63.904L116.359 65.7845L116.373 65.7794L116.388 65.774L115.678 63.904ZM129.374 64.224L131.013 63.0771L130.997 63.0551L130.981 63.0335L129.374 64.224ZM127.822 106.464C127.822 105.555 128.458 105.143 128.482 105.128C128.561 105.076 128.535 105.111 128.28 105.186C127.799 105.328 126.962 105.483 125.69 105.629L126.146 109.603C127.477 109.45 128.592 109.264 129.412 109.022C129.808 108.905 130.27 108.738 130.675 108.472C131.024 108.244 131.822 107.608 131.822 106.464H127.822ZM125.722 105.626C123.186 105.875 120.627 106 118.046 106V110C120.756 110 123.446 109.869 126.114 109.606L125.722 105.626ZM118.046 106C116.767 106 115.747 105.974 114.974 105.924C114.157 105.872 113.752 105.8 113.619 105.761L112.49 109.599C113.082 109.773 113.872 109.862 114.718 109.916C115.61 109.973 116.723 110 118.046 110V106ZM113.72 105.794C113.55 105.734 113.612 105.72 113.729 105.85C113.792 105.922 113.858 106.021 113.905 106.145C113.952 106.269 113.966 106.381 113.966 106.464H109.966C109.966 107.223 110.231 107.94 110.748 108.518C111.227 109.053 111.833 109.37 112.389 109.566L113.72 105.794ZM113.966 106.464V66.656H109.966V106.464H113.966ZM113.966 66.656C113.966 67.1384 113.649 67.1938 114.085 66.8706C114.476 66.5809 115.195 66.2062 116.359 65.7845L114.997 62.0235C113.687 62.4978 112.55 63.0298 111.703 63.6574C110.902 64.2515 109.966 65.2349 109.966 66.656H113.966ZM116.388 65.774C118.602 64.9339 121.13 64.496 123.998 64.496V60.496C120.722 60.496 117.703 60.9968 114.969 62.034L116.388 65.774ZM123.998 64.496C126.63 64.496 127.524 65.086 127.767 65.4145L130.981 63.0335C129.518 61.058 126.828 60.496 123.998 60.496V64.496ZM127.736 65.3709C127.796 65.4566 127.817 65.508 127.823 65.5247C127.827 65.5384 127.822 65.5287 127.822 65.504H131.822C131.822 64.5838 131.494 63.7646 131.013 63.0771L127.736 65.3709ZM127.822 65.504V106.464H131.822V65.504H127.822ZM148.982 107.488L148.722 105.505L148.722 105.505L148.982 107.488ZM136.054 107.552L135.293 109.401L135.311 109.409L135.329 109.416L136.054 107.552ZM139.126 62.624L138.797 60.6512L138.793 60.652L139.126 62.624ZM158.006 61.984L157.937 63.9828L157.972 63.984H158.006V61.984ZM162.486 62.176L162.337 64.1704L162.337 64.1704L162.486 62.176ZM166.518 62.816L165.936 64.7293L165.947 64.7327L165.958 64.736L166.518 62.816ZM169.846 63.968L169.115 65.8295L169.126 65.8338L169.137 65.838L169.846 63.968ZM172.726 65.824L171.231 67.1527L171.25 67.174L171.27 67.1947L172.726 65.824ZM174.71 68.448L173.014 69.508L173.016 69.5115L174.71 68.448ZM174.71 84.896L172.915 84.0147L172.912 84.0215L172.908 84.0284L174.71 84.896ZM170.23 90.144L169.157 88.4567L167.47 89.5297L168.542 91.2165L170.23 90.144ZM159.926 107.68L159.483 109.63L159.483 109.63L159.926 107.68ZM158.134 106.272L156.227 106.874L156.237 106.906L156.248 106.938L158.134 106.272ZM153.974 93.088L155.882 92.4862L155.467 91.1724L154.092 91.0915L153.974 93.088ZM152.886 93.024L153.004 91.0275L150.886 90.9029V93.024H152.886ZM152.886 83.168H150.886V85.168H152.886V83.168ZM157.238 73.248L155.668 74.4873L155.688 74.5121L155.708 74.5363L157.238 73.248ZM152.886 72.032V70.032H150.886V72.032H152.886ZM150.886 106.144C150.886 105.407 151.338 105.02 151.422 104.956C151.508 104.889 151.498 104.923 151.259 105.005C150.803 105.162 149.987 105.339 148.722 105.505L149.242 109.471C150.58 109.296 151.716 109.078 152.561 108.787C152.973 108.645 153.451 108.442 153.863 108.124C154.272 107.809 154.886 107.158 154.886 106.144H150.886ZM148.722 105.505C146.206 105.835 143.669 106 141.11 106V110C143.842 110 146.553 109.824 149.242 109.471L148.722 105.505ZM141.11 106C139.84 106 138.832 105.963 138.071 105.896C137.262 105.824 136.886 105.729 136.779 105.688L135.329 109.416C135.991 109.673 136.841 109.803 137.718 109.88C138.641 109.962 139.778 110 141.11 110V106ZM136.816 105.703C136.676 105.645 136.73 105.635 136.821 105.753C136.868 105.814 136.908 105.888 136.935 105.971C136.962 106.051 136.966 106.113 136.966 106.144H132.966C132.966 106.869 133.182 107.586 133.656 108.199C134.109 108.786 134.707 109.16 135.293 109.401L136.816 105.703ZM136.966 106.144V64.992H132.966V106.144H136.966ZM136.966 64.992C136.966 65.4482 136.623 65.518 136.996 65.3061C137.387 65.0834 138.156 64.8167 139.46 64.596L138.793 60.652C137.323 60.9007 136.012 61.2632 135.017 61.8299C134.002 62.4073 132.966 63.4265 132.966 64.992H136.966ZM139.455 64.5968C142.123 64.1521 145.545 63.92 149.75 63.92V59.92C145.422 59.92 141.761 60.1573 138.797 60.6512L139.455 64.5968ZM149.75 63.92C154.026 63.92 156.741 63.9416 157.937 63.9828L158.075 59.9852C156.797 59.9411 154.008 59.92 149.75 59.92V63.92ZM158.006 63.984C159.223 63.984 160.664 64.045 162.337 64.1704L162.636 60.1816C160.895 60.051 159.35 59.984 158.006 59.984V63.984ZM162.337 64.1704C163.98 64.2936 165.158 64.4925 165.936 64.7293L167.101 60.9027C165.916 60.5422 164.406 60.3143 162.636 60.1816L162.337 64.1704ZM165.958 64.736C166.914 65.0148 167.966 65.378 169.115 65.8295L170.578 62.1065C169.338 61.6194 168.17 61.2145 167.078 60.896L165.958 64.736ZM169.137 65.838C170.157 66.2249 170.816 66.6853 171.231 67.1527L174.221 64.4953C173.271 63.4267 172.01 62.6498 170.556 62.098L169.137 65.838ZM171.27 67.1947C171.846 67.807 172.43 68.5726 173.014 69.508L176.406 67.388C175.711 66.2753 174.972 65.2916 174.183 64.4533L171.27 67.1947ZM173.016 69.5115C173.884 70.8935 174.438 73.0848 174.438 76.32H178.438C178.438 72.7285 177.84 69.6718 176.404 67.3845L173.016 69.5115ZM174.438 76.32C174.438 79.4705 173.899 82.0098 172.915 84.0147L176.506 85.7773C177.825 83.0888 178.438 79.9108 178.438 76.32H174.438ZM172.908 84.0284C171.936 86.0478 170.675 87.4905 169.157 88.4567L171.304 91.8313C173.54 90.4082 175.266 88.3522 176.512 85.7636L172.908 84.0284ZM168.542 91.2165C170.98 95.0528 172.779 98.1449 173.961 100.51C174.553 101.694 174.974 102.663 175.243 103.43C175.523 104.23 175.59 104.677 175.59 104.864H179.59C179.59 104.006 179.35 103.056 179.018 102.106C178.673 101.124 178.174 99.9916 177.539 98.7216C176.269 96.1804 174.388 92.9579 171.918 89.0715L168.542 91.2165ZM175.59 104.864C175.59 104.597 175.768 104.512 175.606 104.633C175.388 104.796 174.895 105.042 173.955 105.275C172.098 105.737 169.144 106 164.982 106V110C169.226 110 172.576 109.74 174.921 109.157C176.083 108.868 177.166 108.46 177.998 107.839C178.887 107.176 179.59 106.177 179.59 104.864H175.59ZM164.982 106C162.541 106 161.063 105.887 160.369 105.73L159.483 109.63C160.667 109.899 162.559 110 164.982 110V106ZM160.369 105.73C160.114 105.672 160.022 105.605 160.01 105.595C160.005 105.591 160.01 105.595 160.018 105.606C160.025 105.616 160.025 105.619 160.02 105.606L156.248 106.938C156.792 108.477 158.068 109.309 159.483 109.63L160.369 105.73ZM160.042 105.67L155.882 92.4862L152.067 93.6898L156.227 106.874L160.042 105.67ZM154.092 91.0915L153.004 91.0275L152.769 95.0205L153.857 95.0845L154.092 91.0915ZM150.886 93.024V106.144H154.886V93.024H150.886ZM152.886 85.168H154.55V81.168H152.886V85.168ZM154.55 85.168C156.4 85.168 157.993 84.3974 159.015 82.8114C159.94 81.3763 160.262 79.4787 160.262 77.408H156.262C156.262 79.1773 155.966 80.1597 155.653 80.6446C155.438 80.9786 155.175 81.168 154.55 81.168V85.168ZM160.262 77.408C160.262 75.3274 159.923 73.3313 158.768 71.9597L155.708 74.5363C155.919 74.7861 156.262 75.5633 156.262 77.408H160.262ZM158.808 72.0087C157.877 70.8299 156.594 70.032 154.998 70.032V74.032C155.109 74.032 155.319 74.0448 155.668 74.4873L158.808 72.0087ZM154.998 70.032H152.886V74.032H154.998V70.032ZM150.886 72.032V83.168H154.886V72.032H150.886ZM193.259 107.616L192.735 109.546L192.754 109.551L192.774 109.556L193.259 107.616ZM186.283 104.032L187.532 102.47L187.524 102.463L187.515 102.457L186.283 104.032ZM181.547 74.144L179.69 73.4012L179.685 73.4127L179.681 73.4243L181.547 74.144ZM186.475 67.04L185.194 65.5036L185.191 65.5061L186.475 67.04ZM211.179 62.816L210.709 64.7602L210.717 64.762L211.179 62.816ZM218.283 66.08L219.455 64.4599L219.449 64.4551L219.442 64.4504L218.283 66.08ZM218.923 102.752L220.306 104.196L220.306 104.196L218.923 102.752ZM200.299 97.632L198.737 98.8814L198.758 98.9079L198.78 98.9336L200.299 97.632ZM204.523 97.632L206.041 98.9336L206.063 98.9079L206.084 98.8814L204.523 97.632ZM205.803 93.664L207.774 93.9996L207.776 93.9928L205.803 93.664ZM205.803 76.768L207.773 76.4253L207.773 76.4253L205.803 76.768ZM200.299 72.928L201.817 74.2296L201.817 74.2296L200.299 72.928ZM199.019 76.768L200.989 77.1107L200.989 77.1107L199.019 76.768ZM199.019 93.664L197.046 93.9928L197.047 93.9996L199.019 93.664ZM202.411 106.576C198.981 106.576 196.102 106.265 193.744 105.676L192.774 109.556C195.536 110.247 198.758 110.576 202.411 110.576V106.576ZM193.782 105.686C191.542 105.078 189.462 104.014 187.532 102.47L185.033 105.594C187.37 107.463 189.941 108.788 192.735 109.546L193.782 105.686ZM187.515 102.457C183.956 99.6727 181.819 94.0246 181.819 84.64H177.819C177.819 94.3701 179.991 101.65 185.051 105.607L187.515 102.457ZM181.819 84.64C181.819 80.8156 182.369 77.5709 183.413 74.8637L179.681 73.4243C178.421 76.6905 177.819 80.4431 177.819 84.64H181.819ZM183.404 74.8868C184.498 72.1519 185.963 70.0758 187.758 68.5739L185.191 65.5061C182.805 67.5029 180.985 70.1628 179.69 73.4012L183.404 74.8868ZM187.755 68.5764C191.416 65.5255 196.242 63.92 202.411 63.92V59.92C195.524 59.92 189.725 61.7278 185.194 65.5036L187.755 68.5764ZM202.411 63.92C205.671 63.92 208.429 64.2096 210.709 64.7602L211.648 60.8718C208.979 60.2277 205.892 59.92 202.411 59.92V63.92ZM210.717 64.762C212.971 65.2967 215.103 66.2724 217.123 67.7096L219.442 64.4504C217.025 62.7303 214.422 61.53 211.641 60.87L210.717 64.762ZM217.11 67.7001C220.806 70.375 223.003 75.7327 223.003 84.64H227.003C227.003 75.286 224.72 68.2704 219.455 64.4599L217.11 67.7001ZM223.003 84.64C223.003 92.5386 221.048 97.9469 217.539 101.308L220.306 104.196C224.904 99.7918 227.003 93.1254 227.003 84.64H223.003ZM217.539 101.308C213.942 104.753 208.98 106.576 202.411 106.576V110.576C209.751 110.576 215.796 108.516 220.306 104.196L217.539 101.308ZM198.78 98.9336C199.727 100.039 201.021 100.528 202.411 100.528V96.528C202.008 96.528 201.894 96.4201 201.817 96.3304L198.78 98.9336ZM202.411 100.528C203.8 100.528 205.094 100.039 206.041 98.9336L203.004 96.3304C202.927 96.4201 202.813 96.528 202.411 96.528V100.528ZM206.084 98.8814C206.562 98.2849 206.887 97.5284 207.13 96.774C207.383 95.9905 207.594 95.0576 207.774 93.9996L203.831 93.3284C203.67 94.2757 203.497 95.0069 203.323 95.546C203.14 96.1143 202.996 96.3391 202.961 96.3826L206.084 98.8814ZM207.776 93.9928C208.144 91.7848 208.315 88.8205 208.315 85.152H204.315C204.315 88.7369 204.145 91.4472 203.83 93.3352L207.776 93.9928ZM208.315 85.152C208.315 81.4874 208.144 78.5577 207.773 76.4253L203.832 77.1107C204.144 78.9036 204.315 81.5632 204.315 85.152H208.315ZM207.773 76.4253C207.593 75.3873 207.38 74.4712 207.124 73.7035C206.879 72.9684 206.545 72.2138 206.041 71.6264L203.004 74.2296C202.997 74.2214 203.035 74.2647 203.102 74.3984C203.167 74.5285 203.245 74.7143 203.329 74.9685C203.5 75.4808 203.672 76.186 203.832 77.1107L207.773 76.4253ZM206.041 71.6264C205.094 70.5214 203.8 70.032 202.411 70.032V74.032C202.813 74.032 202.927 74.1399 203.004 74.2296L206.041 71.6264ZM202.411 70.032C201.021 70.032 199.727 70.5214 198.78 71.6264L201.817 74.2296C201.894 74.1399 202.008 74.032 202.411 74.032V70.032ZM198.78 71.6264C198.277 72.2138 197.942 72.9684 197.697 73.7035C197.441 74.4712 197.229 75.3873 197.048 76.4253L200.989 77.1107C201.15 76.186 201.321 75.4808 201.492 74.9685C201.577 74.7143 201.655 74.5285 201.72 74.3984C201.786 74.2647 201.824 74.2214 201.817 74.2296L198.78 71.6264ZM197.048 76.4253C196.677 78.5577 196.507 81.4874 196.507 85.152H200.507C200.507 81.5632 200.677 78.9036 200.989 77.1107L197.048 76.4253ZM196.507 85.152C196.507 88.8205 196.678 91.7848 197.046 93.9928L200.992 93.3352C200.677 91.4472 200.507 88.7369 200.507 85.152H196.507ZM197.047 93.9996C197.227 95.0576 197.439 95.9905 197.691 96.774C197.935 97.5284 198.26 98.2849 198.737 98.8814L201.86 96.3826C201.826 96.3391 201.681 96.1143 201.498 95.546C201.324 95.0069 201.152 94.2757 200.99 93.3284L197.047 93.9996ZM243.042 107.488L242.786 105.504L242.782 105.505L243.042 107.488ZM230.242 107.552L231.003 105.703L231.003 105.703L230.242 107.552ZM232.802 63.904L232.121 62.0234L232.11 62.0273L232.802 63.904ZM243.682 62.688L243.378 64.6648L243.391 64.6667L243.682 62.688ZM246.754 65.44L244.877 66.1314L244.879 66.1375L246.754 65.44ZM252.898 81.952L251.023 82.6495L251.508 83.952H252.898V81.952ZM253.154 81.952V83.952H255.154V81.952H253.154ZM256.802 63.904L257.493 65.7807L257.493 65.7807L256.802 63.904ZM270.242 64.096L271.876 62.9426L271.874 62.94L270.242 64.096ZM267.042 107.488L266.786 105.504L266.782 105.505L267.042 107.488ZM253.282 106.784L255.158 106.093L255.156 106.085L255.153 106.077L253.282 106.784ZM247.33 91.04L249.201 90.3328L248.712 89.04H247.33V91.04ZM247.01 91.04V89.04H245.01V91.04H247.01ZM245.01 106.144C245.01 105.393 245.476 105.005 245.554 104.946C245.637 104.883 245.622 104.918 245.376 105.002C244.907 105.161 244.073 105.338 242.786 105.504L243.298 109.472C244.656 109.296 245.806 109.079 246.659 108.79C247.075 108.65 247.556 108.448 247.97 108.134C248.378 107.825 249.01 107.172 249.01 106.144H245.01ZM242.782 105.505C240.265 105.835 237.749 106 235.234 106V110C237.924 110 240.614 109.824 243.302 109.471L242.782 105.505ZM235.234 106C233.963 106 232.962 105.963 232.213 105.896C231.838 105.862 231.548 105.823 231.33 105.782C231.223 105.762 231.142 105.743 231.083 105.727C231.023 105.711 231 105.701 231.003 105.703L229.48 109.401C230.141 109.673 230.996 109.803 231.855 109.88C232.77 109.962 233.902 110 235.234 110V106ZM231.003 105.703C230.863 105.645 230.917 105.635 231.008 105.753C231.055 105.814 231.096 105.888 231.123 105.971C231.149 106.051 231.154 106.113 231.154 106.144H227.154C227.154 106.869 227.369 107.586 227.843 108.199C228.297 108.786 228.895 109.16 229.48 109.401L231.003 105.703ZM231.154 106.144V66.848H227.154V106.144H231.154ZM231.154 66.848C231.154 67.1597 230.958 67.1617 231.322 66.8684C231.685 66.5751 232.366 66.1961 233.493 65.7807L232.11 62.0273C230.806 62.5079 229.662 63.0676 228.81 63.7556C227.957 64.4436 227.154 65.4697 227.154 66.848H231.154ZM233.483 65.7845C235.703 64.9806 238.262 64.56 241.186 64.56V60.56C237.88 60.56 234.85 61.0354 232.121 62.0235L233.483 65.7845ZM241.186 64.56C242.271 64.56 242.979 64.6034 243.378 64.6647L243.986 60.7113C243.275 60.6019 242.319 60.56 241.186 60.56V64.56ZM243.391 64.6667C243.974 64.7525 244.479 65.0499 244.877 66.1314L248.63 64.7486C247.834 62.5874 246.291 61.0502 243.973 60.7093L243.391 64.6667ZM244.879 66.1375L251.023 82.6495L254.772 81.2545L248.628 64.7425L244.879 66.1375ZM252.898 83.952H253.154V79.952H252.898V83.952ZM255.154 81.952V66.848H251.154V81.952H255.154ZM255.154 66.848C255.154 67.1597 254.958 67.1617 255.322 66.8684C255.685 66.5751 256.366 66.1961 257.493 65.7807L256.11 62.0273C254.806 62.5079 253.662 63.0676 252.81 63.7556C251.957 64.4436 251.154 65.4697 251.154 66.848H255.154ZM257.493 65.7807C259.664 64.9808 262.197 64.56 265.122 64.56V60.56C261.817 60.56 258.803 61.0351 256.11 62.0273L257.493 65.7807ZM265.122 64.56C266.359 64.56 267.245 64.6803 267.843 64.8596C268.444 65.04 268.594 65.2294 268.61 65.252L271.874 62.94C271.164 61.9386 270.098 61.36 268.992 61.0283C267.884 60.6957 266.572 60.56 265.122 60.56V64.56ZM268.608 65.2494C268.991 65.7927 269.01 66.0521 269.01 66.08H273.01C273.01 64.9132 272.516 63.8499 271.876 62.9426L268.608 65.2494ZM269.01 66.08V106.144H273.01V66.08H269.01ZM269.01 106.144C269.01 105.393 269.476 105.005 269.554 104.946C269.637 104.883 269.622 104.918 269.376 105.002C268.907 105.161 268.073 105.338 266.786 105.504L267.298 109.472C268.656 109.296 269.806 109.079 270.659 108.79C271.075 108.65 271.556 108.448 271.97 108.134C272.378 107.825 273.01 107.172 273.01 106.144H269.01ZM266.782 105.505C264.28 105.833 261.489 106 258.402 106V110C261.629 110 264.598 109.826 267.302 109.471L266.782 105.505ZM258.402 106C256.9 106 255.876 105.899 255.248 105.75C255.099 105.715 254.989 105.681 254.912 105.652C254.834 105.622 254.804 105.604 254.807 105.606C254.809 105.607 254.863 105.64 254.934 105.717C255.008 105.798 255.096 105.923 255.158 106.093L251.405 107.475C251.684 108.233 252.232 108.723 252.733 109.026C253.227 109.326 253.784 109.514 254.324 109.642C255.402 109.898 256.789 110 258.402 110V106ZM255.153 106.077L249.201 90.3328L245.459 91.7472L251.411 107.491L255.153 106.077ZM247.33 89.04H247.01V93.04H247.33V89.04ZM245.01 91.04V106.144H249.01V91.04H245.01ZM105.054 180.552L105.816 178.703L105.816 178.703L105.054 180.552ZM105.374 136.328L106.269 138.117L106.301 138.101L106.332 138.084L105.374 136.328ZM141.598 140.424L140.156 141.809L140.165 141.819L141.598 140.424ZM141.406 175.88L142.856 177.258L142.865 177.248L141.406 175.88ZM121.822 145.352L120.928 143.563L119.822 144.116V145.352H121.822ZM121.822 171.208H119.822V173.009L121.613 173.197L121.822 171.208ZM124.254 171.464L124.045 173.453L124.149 173.464H124.254V171.464ZM127.134 168.392L125.237 167.76L125.231 167.777L125.225 167.795L127.134 168.392ZM127.134 147.656L125.277 148.399L125.277 148.399L127.134 147.656ZM124.382 179H109.278V183H124.382V179ZM109.278 179C108.274 179 107.475 178.964 106.865 178.899C106.224 178.831 105.915 178.743 105.816 178.703L104.293 182.401C104.919 182.659 105.676 182.795 106.443 182.877C107.242 182.962 108.192 183 109.278 183V179ZM105.816 178.703C105.696 178.653 105.757 178.651 105.847 178.771C105.891 178.831 105.924 178.898 105.945 178.965C105.965 179.03 105.966 179.073 105.966 179.08H101.966C101.966 179.796 102.164 180.519 102.63 181.149C103.082 181.76 103.688 182.152 104.293 182.401L105.816 178.703ZM105.966 179.08V138.696H101.966V179.08H105.966ZM105.966 138.696C105.966 138.426 106.021 138.321 106.037 138.294C106.049 138.274 106.092 138.205 106.269 138.117L104.48 134.539C103.718 134.92 103.056 135.481 102.599 136.25C102.146 137.012 101.966 137.856 101.966 138.696H105.966ZM106.332 138.084C106.793 137.832 107.966 137.56 110.238 137.56V133.56C107.902 133.56 105.833 133.8 104.417 134.572L106.332 138.084ZM110.238 137.56H124.638V133.56H110.238V137.56ZM124.638 137.56C132.695 137.56 137.63 139.18 140.156 141.809L143.041 139.039C139.337 135.183 132.966 133.56 124.638 133.56V137.56ZM140.165 141.819C142.704 144.427 144.27 149.574 144.27 157.96H148.27C148.27 149.365 146.722 142.821 143.031 139.029L140.165 141.819ZM144.27 157.96C144.27 166.307 142.655 171.627 139.948 174.512L142.865 177.248C146.643 173.221 148.27 166.594 148.27 157.96H144.27ZM139.956 174.503C137.287 177.312 132.312 179 124.382 179V183C132.665 183 139.04 181.275 142.856 177.257L139.956 174.503ZM123.87 143.096C123.311 143.096 122.795 143.119 122.342 143.175C121.926 143.227 121.403 143.326 120.928 143.563L122.717 147.141C122.633 147.183 122.591 147.189 122.627 147.18C122.658 147.173 122.725 147.159 122.838 147.145C123.068 147.116 123.405 147.096 123.87 147.096V143.096ZM119.822 145.352V171.208H123.822V145.352H119.822ZM121.613 173.197L124.045 173.453L124.464 169.475L122.032 169.219L121.613 173.197ZM124.254 173.464C126.938 173.464 128.345 171.222 129.043 168.989L125.225 167.795C124.952 168.67 124.669 169.122 124.475 169.328C124.333 169.48 124.285 169.464 124.254 169.464V173.464ZM129.032 169.024C129.827 166.64 130.158 162.808 130.158 157.768H126.158C126.158 162.798 125.807 166.048 125.237 167.76L129.032 169.024ZM130.158 157.768C130.158 155.212 130.072 153.038 129.892 151.262C129.716 149.52 129.437 148.029 128.991 146.913L125.277 148.399C125.514 148.99 125.748 150.038 125.912 151.665C126.074 153.26 126.158 155.289 126.158 157.768H130.158ZM128.991 146.913C128.561 145.837 127.938 144.866 127.041 144.162C126.115 143.437 125.026 143.096 123.87 143.096V147.096C124.208 147.096 124.409 147.182 124.572 147.31C124.762 147.459 125.025 147.768 125.277 148.399L128.991 146.913ZM163.259 180.616L162.735 182.546L162.754 182.551L162.774 182.556L163.259 180.616ZM156.283 177.032L157.532 175.47L157.524 175.463L157.515 175.457L156.283 177.032ZM151.547 147.144L149.69 146.401L149.685 146.413L149.681 146.424L151.547 147.144ZM156.475 140.04L155.194 138.504L155.191 138.506L156.475 140.04ZM181.179 135.816L180.709 137.76L180.717 137.762L181.179 135.816ZM188.283 139.08L189.455 137.46L189.449 137.455L189.442 137.45L188.283 139.08ZM188.923 175.752L190.306 177.196L190.306 177.196L188.923 175.752ZM170.299 170.632L168.737 171.881L168.758 171.908L168.78 171.934L170.299 170.632ZM174.523 170.632L176.041 171.934L176.063 171.908L176.084 171.881L174.523 170.632ZM175.803 166.664L177.774 167L177.776 166.993L175.803 166.664ZM175.803 149.768L177.773 149.425L177.773 149.425L175.803 149.768ZM170.299 145.928L171.817 147.23L171.817 147.23L170.299 145.928ZM169.019 149.768L170.989 150.111L170.989 150.111L169.019 149.768ZM169.019 166.664L167.046 166.993L167.047 167L169.019 166.664ZM172.411 179.576C168.981 179.576 166.102 179.265 163.744 178.676L162.774 182.556C165.536 183.247 168.758 183.576 172.411 183.576V179.576ZM163.782 178.686C161.542 178.078 159.462 177.014 157.532 175.47L155.033 178.594C157.37 180.463 159.941 181.788 162.735 182.546L163.782 178.686ZM157.515 175.457C153.956 172.673 151.819 167.025 151.819 157.64H147.819C147.819 167.37 149.991 174.65 155.051 178.607L157.515 175.457ZM151.819 157.64C151.819 153.816 152.369 150.571 153.413 147.864L149.681 146.424C148.421 149.69 147.819 153.443 147.819 157.64H151.819ZM153.404 147.887C154.498 145.152 155.963 143.076 157.758 141.574L155.191 138.506C152.805 140.503 150.985 143.163 149.69 146.401L153.404 147.887ZM157.755 141.576C161.416 138.526 166.242 136.92 172.411 136.92V132.92C165.524 132.92 159.725 134.728 155.194 138.504L157.755 141.576ZM172.411 136.92C175.671 136.92 178.429 137.21 180.709 137.76L181.648 133.872C178.979 133.228 175.892 132.92 172.411 132.92V136.92ZM180.717 137.762C182.971 138.297 185.103 139.272 187.123 140.71L189.442 137.45C187.025 135.73 184.422 134.53 181.641 133.87L180.717 137.762ZM187.11 140.7C190.806 143.375 193.003 148.733 193.003 157.64H197.003C197.003 148.286 194.72 141.27 189.455 137.46L187.11 140.7ZM193.003 157.64C193.003 165.539 191.048 170.947 187.539 174.308L190.306 177.196C194.904 172.792 197.003 166.125 197.003 157.64H193.003ZM187.539 174.308C183.942 177.753 178.98 179.576 172.411 179.576V183.576C179.751 183.576 185.796 181.516 190.306 177.196L187.539 174.308ZM168.78 171.934C169.727 173.039 171.021 173.528 172.411 173.528V169.528C172.008 169.528 171.894 169.42 171.817 169.33L168.78 171.934ZM172.411 173.528C173.8 173.528 175.094 173.039 176.041 171.934L173.004 169.33C172.927 169.42 172.813 169.528 172.411 169.528V173.528ZM176.084 171.881C176.562 171.285 176.887 170.528 177.13 169.774C177.383 168.99 177.594 168.058 177.774 167L173.831 166.328C173.67 167.276 173.497 168.007 173.323 168.546C173.14 169.114 172.996 169.339 172.961 169.383L176.084 171.881ZM177.776 166.993C178.144 164.785 178.315 161.82 178.315 158.152H174.315C174.315 161.737 174.145 164.447 173.83 166.335L177.776 166.993ZM178.315 158.152C178.315 154.487 178.144 151.558 177.773 149.425L173.832 150.111C174.144 151.904 174.315 154.563 174.315 158.152H178.315ZM177.773 149.425C177.593 148.387 177.38 147.471 177.124 146.704C176.879 145.968 176.545 145.214 176.041 144.626L173.004 147.23C172.997 147.221 173.035 147.265 173.102 147.398C173.167 147.529 173.245 147.714 173.329 147.968C173.5 148.481 173.672 149.186 173.832 150.111L177.773 149.425ZM176.041 144.626C175.094 143.521 173.8 143.032 172.411 143.032V147.032C172.813 147.032 172.927 147.14 173.004 147.23L176.041 144.626ZM172.411 143.032C171.021 143.032 169.727 143.521 168.78 144.626L171.817 147.23C171.894 147.14 172.008 147.032 172.411 147.032V143.032ZM168.78 144.626C168.277 145.214 167.942 145.968 167.697 146.704C167.441 147.471 167.229 148.387 167.048 149.425L170.989 150.111C171.15 149.186 171.321 148.481 171.492 147.968C171.577 147.714 171.655 147.529 171.72 147.398C171.786 147.265 171.824 147.221 171.817 147.23L168.78 144.626ZM167.048 149.425C166.677 151.558 166.507 154.487 166.507 158.152H170.507C170.507 154.563 170.677 151.904 170.989 150.111L167.048 149.425ZM166.507 158.152C166.507 161.82 166.678 164.785 167.046 166.993L170.992 166.335C170.677 164.447 170.507 161.737 170.507 158.152H166.507ZM167.047 167C167.227 168.058 167.439 168.99 167.691 169.774C167.935 170.528 168.26 171.285 168.737 171.881L171.86 169.383C171.826 169.339 171.681 169.114 171.498 168.546C171.324 168.007 171.152 167.276 170.99 166.328L167.047 167ZM209.01 181.064L209.479 179.12L209.01 181.064ZM205.106 179.208L203.914 180.814L203.943 180.836L203.973 180.856L205.106 179.208ZM201.714 175.368L203.433 174.346L203.432 174.345L201.714 175.368ZM200.114 148.68L202 149.344L202 149.344L200.114 148.68ZM204.146 141.64L205.578 143.036L205.587 143.027L205.596 143.017L204.146 141.64ZM209.97 137.48L210.823 139.289L210.823 139.289L209.97 137.48ZM216.306 135.432L216.607 137.409L216.628 137.406L216.648 137.402L216.306 135.432ZM233.394 136.264L232.606 138.102L232.622 138.109L232.638 138.116L233.394 136.264ZM235.442 147.656L237.346 148.267L237.349 148.257L235.442 147.656ZM227.89 150.088L227.374 152.02L227.39 152.024L227.405 152.028L227.89 150.088ZM217.906 165.32L216.157 166.291L216.163 166.302L216.169 166.312L217.906 165.32ZM221.106 167.816L220.841 169.798L223.106 170.1V167.816H221.106ZM234.994 158.152L234.444 160.075L234.456 160.078L234.468 160.082L234.994 158.152ZM236.914 159.24L235.296 160.416L235.315 160.442L235.335 160.468L236.914 159.24ZM234.418 180.36L234.119 178.382L234.114 178.383L234.418 180.36ZM222.898 180.552L222.155 182.409L222.21 182.431L222.265 182.449L222.898 180.552ZM221.81 178.568L223.803 178.409L223.8 178.37L223.796 178.332L221.81 178.568ZM221.362 174.792L223.348 174.556L223.138 172.792H221.362V174.792ZM220.85 174.792V172.792H219.149L218.876 174.471L220.85 174.792ZM218.546 179.528L217.085 178.162L217.073 178.174L217.062 178.187L218.546 179.528ZM213.042 179.512C211.728 179.512 210.543 179.377 209.479 179.12L208.54 183.008C209.951 183.349 211.455 183.512 213.042 183.512V179.512ZM209.479 179.12C208.539 178.893 207.46 178.4 206.239 177.56L203.973 180.856C205.482 181.894 207.006 182.638 208.54 183.008L209.479 179.12ZM206.297 177.602C205.211 176.796 204.252 175.723 203.433 174.346L199.995 176.39C201.053 178.17 202.355 179.658 203.914 180.814L206.297 177.602ZM203.432 174.345C201.573 171.221 200.514 166.256 200.514 159.176H196.514C196.514 166.517 197.588 172.347 199.995 176.391L203.432 174.345ZM200.514 159.176C200.514 155.383 201.024 152.117 202 149.344L198.227 148.016C197.07 151.302 196.514 155.033 196.514 159.176H200.514ZM202 149.344C203.005 146.49 204.221 144.428 205.578 143.036L202.713 140.244C200.827 142.18 199.356 144.811 198.227 148.016L202 149.344ZM205.596 143.017C207.036 141.501 208.772 140.257 210.823 139.289L209.117 135.671C206.645 136.837 204.498 138.365 202.696 140.263L205.596 143.017ZM210.823 139.289C212.952 138.284 214.877 137.672 216.607 137.409L216.005 133.455C213.809 133.789 211.51 134.542 209.117 135.671L210.823 139.289ZM216.648 137.402C218.486 137.083 220.461 136.92 222.578 136.92V132.92C220.257 132.92 218.051 133.098 215.963 133.462L216.648 137.402ZM222.578 136.92C227.682 136.92 230.923 137.381 232.606 138.102L234.182 134.426C231.683 133.355 227.713 132.92 222.578 132.92V136.92ZM232.638 138.116C233.356 138.409 233.784 138.789 234.052 139.216C234.329 139.656 234.53 140.298 234.53 141.256H238.53C238.53 139.739 238.208 138.312 237.439 137.088C236.662 135.851 235.522 134.973 234.15 134.412L232.638 138.116ZM234.53 141.256C234.53 142.974 234.212 144.903 233.534 147.055L237.349 148.257C238.122 145.801 238.53 143.463 238.53 141.256H234.53ZM233.537 147.045C233.222 148.028 232.892 148.564 232.643 148.828C232.444 149.038 232.335 149.048 232.242 149.048V153.048C235.047 153.048 236.564 150.707 237.346 148.267L233.537 147.045ZM232.242 149.048C232.358 149.048 232.367 149.062 232.129 149.019C231.943 148.986 231.679 148.932 231.329 148.855C230.63 148.701 229.648 148.466 228.375 148.148L227.405 152.028C228.691 152.35 229.715 152.595 230.467 152.761C230.842 152.844 231.164 152.91 231.426 152.957C231.636 152.994 231.955 153.048 232.242 153.048V149.048ZM228.405 148.156C225.816 147.465 223.685 147.064 222.13 147.064V151.064C223.134 151.064 224.843 151.346 227.374 152.02L228.405 148.156ZM222.13 147.064C219.607 147.064 217.568 148.195 216.282 150.364C215.092 152.369 214.626 155.118 214.626 158.344H218.626C218.626 155.383 219.076 153.493 219.722 152.404C220.27 151.48 220.984 151.064 222.13 151.064V147.064ZM214.626 158.344C214.626 161.573 215.056 164.309 216.157 166.291L219.654 164.349C219.049 163.259 218.626 161.345 218.626 158.344H214.626ZM216.169 166.312C217.221 168.153 218.751 169.52 220.841 169.798L221.37 165.834C220.901 165.771 220.297 165.474 219.642 164.328L216.169 166.312ZM223.106 167.816V162.056H219.106V167.816H223.106ZM223.106 162.056C223.106 162.277 222.975 162.264 223.261 162.005C223.563 161.733 224.143 161.368 225.131 160.961L223.608 157.263C222.421 157.752 221.368 158.326 220.582 159.035C219.781 159.758 219.106 160.769 219.106 162.056H223.106ZM225.131 160.961C227.107 160.148 228.939 159.768 230.642 159.768V155.768C228.334 155.768 225.985 156.284 223.608 157.263L225.131 160.961ZM230.642 159.768C232.624 159.768 233.835 159.901 234.444 160.075L235.543 156.229C234.36 155.891 232.67 155.768 230.642 155.768V159.768ZM234.468 160.082C234.825 160.179 235.054 160.278 235.192 160.356C235.328 160.433 235.332 160.466 235.296 160.416L238.531 158.064C237.794 157.05 236.626 156.524 235.52 156.222L234.468 160.082ZM235.335 160.468C235.561 160.758 235.687 160.978 235.753 161.13C235.819 161.279 235.81 161.325 235.81 161.288H239.81C239.81 160.043 239.204 158.927 238.492 158.012L235.335 160.468ZM235.81 161.288V179.016H239.81V161.288H235.81ZM235.81 179.016C235.81 178.397 236.146 178.026 236.271 177.916C236.377 177.821 236.407 177.837 236.225 177.909C235.875 178.047 235.207 178.218 234.119 178.382L234.716 182.338C235.89 182.16 236.918 181.936 237.698 181.627C238.082 181.475 238.536 181.253 238.925 180.908C239.332 180.547 239.81 179.913 239.81 179.016H235.81ZM234.114 178.383C232.004 178.708 229.78 178.872 227.442 178.872V182.872C229.967 182.872 232.395 182.695 234.722 182.337L234.114 178.383ZM227.442 178.872C226.271 178.872 225.346 178.846 224.654 178.797C224.309 178.773 224.039 178.744 223.836 178.714C223.735 178.699 223.659 178.685 223.604 178.673C223.547 178.66 223.525 178.653 223.53 178.655L222.265 182.449C222.845 182.642 223.604 182.733 224.373 182.787C225.196 182.845 226.223 182.872 227.442 182.872V178.872ZM223.641 178.695C223.701 178.719 223.765 178.758 223.82 178.808C223.873 178.857 223.896 178.896 223.899 178.902C223.901 178.906 223.884 178.874 223.862 178.79C223.84 178.706 223.817 178.582 223.803 178.409L219.816 178.727C219.925 180.091 220.463 181.732 222.155 182.409L223.641 178.695ZM223.796 178.332L223.348 174.556L219.376 175.028L219.824 178.804L223.796 178.332ZM221.362 172.792H220.85V176.792H221.362V172.792ZM218.876 174.471C218.639 175.925 218.044 177.137 217.085 178.162L220.006 180.894C221.522 179.274 222.463 177.329 222.824 175.113L218.876 174.471ZM217.062 178.187C216.376 178.947 215.178 179.512 213.042 179.512V183.512C215.855 183.512 218.327 182.754 220.03 180.869L217.062 178.187ZM274.855 178.312L273.672 176.699L273.672 176.699L274.855 178.312ZM269.479 180.68L269.99 182.614L270.002 182.61L270.014 182.607L269.479 180.68ZM243.431 178.696L242.515 180.474L242.515 180.474L243.431 178.696ZM242.343 169.16L244.275 169.675L244.277 169.667L242.343 169.16ZM250.087 166.984L250.734 165.091L250.734 165.091L250.087 166.984ZM261.031 168.2L262.14 169.864L262.186 169.833L262.231 169.8L261.031 168.2ZM260.391 164.808L259.373 166.53L259.403 166.547L259.433 166.564L260.391 164.808ZM256.871 163.4L256.291 165.314L256.318 165.322L256.345 165.33L256.871 163.4ZM252.263 161.608L251.407 163.415L251.416 163.42L251.425 163.424L252.263 161.608ZM247.719 159.048L248.828 157.384L248.828 157.384L247.719 159.048ZM244.199 155.08L242.436 156.026L242.441 156.035L242.446 156.044L244.199 155.08ZM270.695 135.752L270.339 137.72L270.353 137.723L270.366 137.725L270.695 135.752ZM277.159 137.544L276.193 139.295L276.228 139.315L276.264 139.333L277.159 137.544ZM277.479 146.632L275.633 145.863L275.627 145.876L275.622 145.889L277.479 146.632ZM272.807 149.896L272.002 151.727L272.026 151.737L272.049 151.747L272.807 149.896ZM261.991 148.552L261.096 146.763L261.073 146.775L261.05 146.787L261.991 148.552ZM262.439 151.88L261.544 153.669L261.577 153.685L261.611 153.701L262.439 151.88ZM265.895 153.096L265.353 155.021L265.388 155.031L265.424 155.04L265.895 153.096ZM270.439 154.76L269.583 156.567L269.611 156.581L269.64 156.593L270.439 154.76ZM275.047 157.384L273.87 159.001L273.887 159.013L273.903 159.025L275.047 157.384ZM278.567 161.608L280.347 160.697L280.347 160.697L278.567 161.608ZM277.991 174.984L279.68 176.054L279.681 176.053L277.991 174.984ZM273.672 176.699C272.66 177.442 271.121 178.148 268.943 178.753L270.014 182.607C272.445 181.932 274.49 181.06 276.037 179.925L273.672 176.699ZM268.968 178.746C266.938 179.282 264.184 179.576 260.647 179.576V183.576C264.362 183.576 267.497 183.272 269.99 182.614L268.968 178.746ZM260.647 179.576C257.174 179.576 253.882 179.287 250.769 178.713L250.044 182.647C253.416 183.268 256.952 183.576 260.647 183.576V179.576ZM250.769 178.713C247.558 178.122 245.478 177.501 244.347 176.918L242.515 180.474C244.2 181.342 246.77 182.044 250.044 182.647L250.769 178.713ZM244.347 176.918C243.731 176.601 243.407 176.355 243.261 176.21C243.112 176.061 243.319 176.193 243.319 176.584H239.319C239.319 177.657 239.877 178.483 240.433 179.038C240.991 179.597 241.722 180.066 242.515 180.474L244.347 176.918ZM243.319 176.584C243.319 174.386 243.633 172.085 244.275 169.675L240.41 168.645C239.688 171.355 239.319 174.003 239.319 176.584H243.319ZM244.277 169.667C244.6 168.437 244.912 167.688 245.16 167.289C245.439 166.841 245.351 167.256 244.775 167.256V163.256C243.259 163.256 242.297 164.321 241.765 165.175C241.203 166.078 240.768 167.28 240.408 168.653L244.277 169.667ZM244.775 167.256C244.656 167.256 244.566 167.245 244.532 167.24C244.489 167.235 244.458 167.229 244.444 167.226C244.417 167.221 244.407 167.218 244.424 167.222C244.457 167.23 244.523 167.249 244.634 167.281C244.851 167.346 245.175 167.448 245.612 167.59C246.483 167.873 247.757 168.301 249.44 168.877L250.734 165.091C249.046 164.515 247.749 164.079 246.849 163.786C246.401 163.64 246.039 163.526 245.772 163.447C245.64 163.407 245.513 163.372 245.403 163.344C245.349 163.33 245.28 163.314 245.207 163.299C245.171 163.293 244.992 163.256 244.775 163.256V167.256ZM249.44 168.877C252.843 170.04 255.646 170.712 257.703 170.712V166.712C256.346 166.712 254.072 166.232 250.734 165.091L249.44 168.877ZM257.703 170.712C258.611 170.712 259.426 170.667 260.119 170.561C260.762 170.462 261.517 170.28 262.14 169.864L259.921 166.536C260.033 166.462 259.976 166.536 259.511 166.607C259.094 166.671 258.501 166.712 257.703 166.712V170.712ZM262.231 169.8C263.284 169.01 263.799 167.863 263.799 166.6H259.799C259.799 166.646 259.794 166.668 259.794 166.672C259.793 166.674 259.793 166.672 259.795 166.667C259.797 166.662 259.8 166.655 259.804 166.647C259.808 166.638 259.813 166.629 259.818 166.621C259.824 166.612 259.829 166.605 259.833 166.6C259.843 166.589 259.844 166.59 259.831 166.6L262.231 169.8ZM263.799 166.6C263.799 164.827 262.537 163.701 261.348 163.052L259.433 166.564C259.588 166.648 259.696 166.721 259.769 166.779C259.842 166.837 259.87 166.871 259.874 166.876C259.876 166.878 259.854 166.851 259.833 166.793C259.811 166.732 259.799 166.664 259.799 166.6H263.799ZM261.408 163.086C260.274 162.416 258.923 161.887 257.397 161.47L256.345 165.33C257.634 165.681 258.63 166.091 259.373 166.53L261.408 163.086ZM257.451 161.486C256.149 161.092 254.701 160.53 253.101 159.792L251.425 163.424C253.153 164.222 254.776 164.855 256.291 165.314L257.451 161.486ZM253.119 159.801C251.58 159.072 250.151 158.266 248.828 157.384L246.609 160.712C248.103 161.708 249.703 162.608 251.407 163.415L253.119 159.801ZM248.828 157.384C247.726 156.649 246.758 155.584 245.951 154.116L242.446 156.044C243.516 157.989 244.896 159.57 246.609 160.712L248.828 157.384ZM245.961 154.134C245.196 152.709 244.791 151.056 244.791 149.128H240.791C240.791 151.637 241.324 153.953 242.436 156.026L245.961 154.134ZM244.791 149.128C244.791 144.802 246.065 141.89 248.315 140.005C250.633 138.063 254.328 136.92 259.751 136.92V132.92C253.867 132.92 249.082 134.145 245.746 136.939C242.343 139.79 240.791 143.982 240.791 149.128H244.791ZM259.751 136.92C263.894 136.92 267.417 137.193 270.339 137.72L271.05 133.784C267.828 133.202 264.055 132.92 259.751 132.92V136.92ZM270.366 137.725C273.418 138.233 275.277 138.79 276.193 139.295L278.125 135.793C276.566 134.933 274.116 134.295 271.024 133.779L270.366 137.725ZM276.264 139.333C276.81 139.606 277.078 139.812 277.185 139.918C277.287 140.02 277.079 139.862 277.079 139.464H281.079C281.079 138.426 280.551 137.628 280.013 137.09C279.479 136.556 278.787 136.122 278.053 135.755L276.264 139.333ZM277.079 139.464C277.079 141.362 276.622 143.488 275.633 145.863L279.325 147.401C280.469 144.656 281.079 142.004 281.079 139.464H277.079ZM275.622 145.889C275.139 147.097 274.715 147.856 274.384 148.279C274.017 148.748 274.036 148.472 274.471 148.472V152.472C275.887 152.472 276.898 151.556 277.533 150.745C278.205 149.888 278.795 148.727 279.336 147.375L275.622 145.889ZM274.471 148.472C274.616 148.472 274.719 148.49 274.743 148.495C274.778 148.501 274.794 148.506 274.783 148.503C274.759 148.496 274.696 148.478 274.581 148.438C274.354 148.36 274.02 148.231 273.564 148.045L272.049 151.747C272.532 151.945 272.944 152.104 273.273 152.218C273.435 152.274 273.601 152.328 273.759 152.369C273.866 152.398 274.149 152.472 274.471 152.472V148.472ZM273.611 148.065C270.684 146.779 268.043 146.04 265.767 146.04V150.04C267.246 150.04 269.298 150.539 272.002 151.727L273.611 148.065ZM265.767 146.04C264.795 146.04 263.926 146.085 263.178 146.186C262.455 146.284 261.722 146.45 261.096 146.763L262.885 150.341C262.942 150.312 263.179 150.223 263.715 150.15C264.226 150.081 264.904 150.04 265.767 150.04V146.04ZM261.05 146.787C260.464 147.1 259.931 147.553 259.556 148.179C259.18 148.805 259.031 149.488 259.031 150.152H263.031C263.031 150.118 263.034 150.116 263.029 150.137C263.023 150.16 263.01 150.196 262.986 150.237C262.961 150.278 262.935 150.306 262.918 150.322C262.902 150.337 262.902 150.333 262.932 150.317L261.05 146.787ZM259.031 150.152C259.031 151.956 260.33 153.062 261.544 153.669L263.333 150.091C263.183 150.016 263.081 149.951 263.015 149.902C262.949 149.853 262.929 149.827 262.933 149.833C262.939 149.84 262.967 149.877 262.993 149.945C263.019 150.015 263.031 150.088 263.031 150.152H259.031ZM261.611 153.701C262.669 154.182 263.924 154.619 265.353 155.021L266.436 151.171C265.135 150.805 264.085 150.432 263.266 150.059L261.611 153.701ZM265.424 155.04C266.672 155.342 268.057 155.845 269.583 156.567L271.295 152.953C269.578 152.139 267.934 151.532 266.366 151.152L265.424 155.04ZM269.64 156.593C271.176 157.263 272.585 158.066 273.87 159.001L276.223 155.767C274.693 154.654 273.029 153.708 271.238 152.927L269.64 156.593ZM273.903 159.025C274.993 159.785 275.967 160.918 276.786 162.519L280.347 160.697C279.289 158.629 277.916 156.946 276.19 155.743L273.903 159.025ZM276.786 162.519C277.557 164.025 277.975 165.836 277.975 168.008H281.975C281.975 165.316 281.454 162.86 280.347 160.697L276.786 162.519ZM277.975 168.008C277.975 170.203 277.414 172.155 276.301 173.915L279.681 176.053C281.213 173.631 281.975 170.933 281.975 168.008H277.975ZM276.301 173.914C275.63 174.973 274.76 175.901 273.672 176.699L276.037 179.925C277.509 178.846 278.73 177.555 279.68 176.054L276.301 173.914Z" fill="#F59295"/>
</svg>
