<svg width="375" height="442" viewBox="0 0 375 442" fill="none" xmlns="http://www.w3.org/2000/svg">
<rect width="375" height="257" fill="#FFE0B2"/>
<ellipse cx="187.5" cy="265.555" rx="187.5" ry="176.445" fill="#FFE0B2"/>
<path d="M129.822 106.464C129.822 106.933 128.521 107.317 125.918 107.616C123.316 107.872 120.692 108 118.046 108C115.444 108 113.78 107.893 113.054 107.68C112.329 107.424 111.966 107.019 111.966 106.464V66.656C111.966 65.7173 113.204 64.8 115.678 63.904C118.153 62.9653 120.926 62.496 123.998 62.496C126.729 62.496 128.521 63.072 129.374 64.224C129.673 64.6507 129.822 65.0773 129.822 65.504V106.464ZM152.886 106.144C152.886 106.699 151.585 107.147 148.982 107.488C146.38 107.829 143.756 108 141.11 108C138.508 108 136.822 107.851 136.054 107.552C135.329 107.253 134.966 106.784 134.966 106.144V64.992C134.966 63.8827 136.353 63.0933 139.126 62.624C141.942 62.1547 145.484 61.92 149.75 61.92C154.017 61.92 156.769 61.9413 158.006 61.984C159.286 61.984 160.78 62.048 162.486 62.176C164.193 62.304 165.537 62.5173 166.518 62.816C167.542 63.1147 168.652 63.4987 169.846 63.968C171.084 64.4373 172.044 65.056 172.726 65.824C173.409 66.5493 174.07 67.424 174.71 68.448C175.862 70.2827 176.438 72.9067 176.438 76.32C176.438 79.6907 175.862 82.5493 174.71 84.896C173.601 87.2 172.108 88.9493 170.23 90.144C175.137 97.8667 177.59 102.773 177.59 104.864C177.59 106.955 173.388 108 164.982 108C162.55 108 160.865 107.893 159.926 107.68C158.988 107.467 158.39 106.997 158.134 106.272L153.974 93.088L152.886 93.024V106.144ZM152.886 83.168H154.55C157.025 83.168 158.262 81.248 158.262 77.408C158.262 75.4453 157.921 74.0587 157.238 73.248C156.598 72.4373 155.852 72.032 154.998 72.032H152.886V83.168ZM202.411 108.576C198.869 108.576 195.819 108.256 193.259 107.616C190.741 106.933 188.416 105.739 186.283 104.032C181.973 100.661 179.819 94.1973 179.819 84.64C179.819 80.6293 180.395 77.1307 181.547 74.144C182.741 71.1573 184.384 68.7893 186.475 67.04C190.571 63.6267 195.883 61.92 202.411 61.92C205.781 61.92 208.704 62.2187 211.179 62.816C213.696 63.4133 216.064 64.5013 218.283 66.08C222.763 69.3227 225.003 75.5093 225.003 84.64C225.003 92.832 222.976 98.8693 218.923 102.752C214.869 106.635 209.365 108.576 202.411 108.576ZM200.299 97.632C200.811 98.2293 201.515 98.528 202.411 98.528C203.307 98.528 204.011 98.2293 204.523 97.632C205.035 96.992 205.461 95.6693 205.803 93.664C206.144 91.616 206.315 88.7787 206.315 85.152C206.315 81.5253 206.144 78.7307 205.803 76.768C205.461 74.8053 205.035 73.5253 204.523 72.928C204.011 72.3307 203.307 72.032 202.411 72.032C201.515 72.032 200.811 72.3307 200.299 72.928C199.787 73.5253 199.36 74.8053 199.019 76.768C198.677 78.7307 198.507 81.5253 198.507 85.152C198.507 88.7787 198.677 91.616 199.019 93.664C199.36 95.6693 199.787 96.992 200.299 97.632ZM247.01 106.144C247.01 106.699 245.687 107.147 243.042 107.488C240.439 107.829 237.836 108 235.234 108C232.631 108 230.967 107.851 230.242 107.552C229.516 107.253 229.154 106.784 229.154 106.144V66.848C229.154 65.7813 230.37 64.8 232.802 63.904C235.276 63.008 238.071 62.56 241.186 62.56C242.295 62.56 243.127 62.6027 243.682 62.688C245.132 62.9013 246.156 63.8187 246.754 65.44L252.898 81.952H253.154V66.848C253.154 65.7813 254.37 64.8 256.802 63.904C259.234 63.008 262.007 62.56 265.122 62.56C267.81 62.56 269.516 63.072 270.242 64.096C270.754 64.8213 271.01 65.4827 271.01 66.08V106.144C271.01 106.699 269.687 107.147 267.042 107.488C264.439 107.829 261.559 108 258.402 108C255.287 108 253.58 107.595 253.282 106.784L247.33 91.04H247.01V106.144ZM124.382 181H109.278C107.188 181 105.78 180.851 105.054 180.552C104.329 180.253 103.966 179.763 103.966 179.08V138.696C103.966 137.587 104.436 136.797 105.374 136.328C106.313 135.816 107.934 135.56 110.238 135.56H124.638C132.83 135.56 138.484 137.181 141.598 140.424C144.713 143.624 146.27 149.469 146.27 157.96C146.27 166.451 144.649 172.424 141.406 175.88C138.164 179.293 132.489 181 124.382 181ZM123.87 145.096C122.846 145.096 122.164 145.181 121.822 145.352V171.208L124.254 171.464C125.534 171.464 126.494 170.44 127.134 168.392C127.817 166.344 128.158 162.803 128.158 157.768C128.158 152.733 127.817 149.363 127.134 147.656C126.452 145.949 125.364 145.096 123.87 145.096ZM172.411 181.576C168.869 181.576 165.819 181.256 163.259 180.616C160.741 179.933 158.416 178.739 156.283 177.032C151.973 173.661 149.819 167.197 149.819 157.64C149.819 153.629 150.395 150.131 151.547 147.144C152.741 144.157 154.384 141.789 156.475 140.04C160.571 136.627 165.883 134.92 172.411 134.92C175.781 134.92 178.704 135.219 181.179 135.816C183.696 136.413 186.064 137.501 188.283 139.08C192.763 142.323 195.003 148.509 195.003 157.64C195.003 165.832 192.976 171.869 188.923 175.752C184.869 179.635 179.365 181.576 172.411 181.576ZM170.299 170.632C170.811 171.229 171.515 171.528 172.411 171.528C173.307 171.528 174.011 171.229 174.523 170.632C175.035 169.992 175.461 168.669 175.803 166.664C176.144 164.616 176.315 161.779 176.315 158.152C176.315 154.525 176.144 151.731 175.803 149.768C175.461 147.805 175.035 146.525 174.523 145.928C174.011 145.331 173.307 145.032 172.411 145.032C171.515 145.032 170.811 145.331 170.299 145.928C169.787 146.525 169.36 147.805 169.019 149.768C168.677 151.731 168.507 154.525 168.507 158.152C168.507 161.779 168.677 164.616 169.019 166.664C169.36 168.669 169.787 169.992 170.299 170.632ZM213.042 181.512C211.591 181.512 210.247 181.363 209.01 181.064C207.772 180.765 206.471 180.147 205.106 179.208C203.783 178.227 202.652 176.947 201.714 175.368C199.58 171.784 198.514 166.387 198.514 159.176C198.514 155.208 199.047 151.709 200.114 148.68C201.18 145.651 202.524 143.304 204.146 141.64C205.767 139.933 207.708 138.547 209.97 137.48C212.231 136.413 214.343 135.731 216.306 135.432C218.268 135.091 220.359 134.92 222.578 134.92C227.698 134.92 231.303 135.368 233.394 136.264C235.484 137.117 236.53 138.781 236.53 141.256C236.53 143.219 236.167 145.352 235.442 147.656C234.716 149.917 233.65 151.048 232.242 151.048C231.9 151.048 230.45 150.728 227.89 150.088C225.33 149.405 223.41 149.064 222.13 149.064C218.46 149.064 216.626 152.157 216.626 158.344C216.626 161.459 217.052 163.784 217.906 165.32C218.759 166.813 219.826 167.645 221.106 167.816V162.056C221.106 160.989 222.194 160.008 224.37 159.112C226.546 158.216 228.636 157.768 230.642 157.768C232.647 157.768 234.098 157.896 234.994 158.152C235.932 158.408 236.572 158.771 236.914 159.24C237.511 160.008 237.81 160.691 237.81 161.288V179.016C237.81 179.571 236.679 180.019 234.418 180.36C232.199 180.701 229.874 180.872 227.442 180.872C225.052 180.872 223.538 180.765 222.898 180.552C222.258 180.296 221.895 179.635 221.81 178.568L221.362 174.792H220.85C220.551 176.627 219.783 178.205 218.546 179.528C217.351 180.851 215.516 181.512 213.042 181.512ZM274.855 178.312C273.575 179.251 271.783 180.04 269.479 180.68C267.217 181.277 264.273 181.576 260.647 181.576C257.063 181.576 253.649 181.277 250.407 180.68C247.164 180.083 244.839 179.421 243.431 178.696C242.023 177.971 241.319 177.267 241.319 176.584C241.319 174.195 241.66 171.72 242.343 169.16C243.025 166.557 243.836 165.256 244.775 165.256C244.945 165.256 246.716 165.832 250.087 166.984C253.457 168.136 255.996 168.712 257.703 168.712C259.409 168.712 260.519 168.541 261.031 168.2C261.543 167.816 261.799 167.283 261.799 166.6C261.799 165.917 261.329 165.32 260.391 164.808C259.452 164.253 258.279 163.784 256.871 163.4C255.463 162.973 253.927 162.376 252.263 161.608C250.641 160.84 249.127 159.987 247.719 159.048C246.311 158.109 245.137 156.787 244.199 155.08C243.26 153.331 242.791 151.347 242.791 149.128C242.791 139.656 248.444 134.92 259.751 134.92C263.975 134.92 267.623 135.197 270.695 135.752C273.767 136.264 275.921 136.861 277.159 137.544C278.439 138.184 279.079 138.824 279.079 139.464C279.079 141.683 278.545 144.072 277.479 146.632C276.455 149.192 275.452 150.472 274.471 150.472C274.3 150.472 273.745 150.28 272.807 149.896C269.991 148.659 267.644 148.04 265.767 148.04C263.932 148.04 262.673 148.211 261.991 148.552C261.351 148.893 261.031 149.427 261.031 150.152C261.031 150.835 261.5 151.411 262.439 151.88C263.377 152.307 264.529 152.712 265.895 153.096C267.303 153.437 268.817 153.992 270.439 154.76C272.103 155.485 273.639 156.36 275.047 157.384C276.455 158.365 277.628 159.773 278.567 161.608C279.505 163.443 279.975 165.576 279.975 168.008C279.975 170.568 279.313 172.893 277.991 174.984C277.18 176.264 276.135 177.373 274.855 178.312Z" fill="black"/>
<path d="M125.918 107.616L126.016 108.611L126.024 108.61L126.032 108.609L125.918 107.616ZM113.054 107.68L112.721 108.623L112.747 108.632L112.772 108.639L113.054 107.68ZM115.678 63.904L116.019 64.8443L116.026 64.8417L116.033 64.839L115.678 63.904ZM129.374 64.224L130.193 63.6505L130.186 63.6395L130.178 63.6288L129.374 64.224ZM128.822 106.464C128.822 106.068 129.099 105.918 129.03 105.964C128.988 105.991 128.853 106.059 128.563 106.145C127.997 106.312 127.091 106.475 125.804 106.623L126.032 108.609C127.348 108.458 128.394 108.28 129.129 108.063C129.49 107.957 129.843 107.822 130.127 107.636C130.383 107.468 130.822 107.094 130.822 106.464H128.822ZM125.82 106.621C123.251 106.874 120.659 107 118.046 107V109C120.724 109 123.381 108.87 126.016 108.611L125.82 106.621ZM118.046 107C116.756 107 115.713 106.973 114.91 106.922C114.086 106.869 113.584 106.794 113.336 106.721L112.772 108.639C113.25 108.78 113.943 108.864 114.782 108.918C115.644 108.973 116.734 109 118.046 109V107ZM113.387 106.737C113.121 106.643 113.016 106.553 112.983 106.517C112.976 106.509 112.973 106.504 112.971 106.501C112.97 106.499 112.97 106.499 112.97 106.499C112.97 106.499 112.969 106.497 112.968 106.492C112.967 106.488 112.966 106.479 112.966 106.464H110.966C110.966 106.982 111.144 107.461 111.493 107.851C111.823 108.22 112.262 108.461 112.721 108.623L113.387 106.737ZM112.966 106.464V66.656H110.966V106.464H112.966ZM112.966 66.656C112.966 66.6535 112.964 66.6099 113.03 66.5107C113.102 66.4034 113.24 66.2523 113.49 66.0673C113.995 65.6931 114.818 65.2791 116.019 64.8443L115.338 62.9637C114.064 63.4249 113.031 63.9175 112.299 64.4607C111.589 64.9871 110.966 65.7108 110.966 66.656H112.966ZM116.033 64.839C118.378 63.9496 121.028 63.496 123.998 63.496V61.496C120.824 61.496 117.928 61.981 115.324 62.969L116.033 64.839ZM123.998 63.496C126.679 63.496 128.022 64.079 128.571 64.8192L130.178 63.6288C129.019 62.065 126.779 61.496 123.998 61.496V63.496ZM128.555 64.7975C128.762 65.0937 128.822 65.3241 128.822 65.504H130.822C130.822 64.8306 130.583 64.2076 130.193 63.6505L128.555 64.7975ZM128.822 65.504V106.464H130.822V65.504H128.822ZM148.982 107.488L148.852 106.496L148.852 106.496L148.982 107.488ZM136.054 107.552L135.674 108.477L135.683 108.48L135.692 108.484L136.054 107.552ZM139.126 62.624L138.962 61.6376L138.959 61.638L139.126 62.624ZM158.006 61.984L157.972 62.9834L157.989 62.984H158.006V61.984ZM162.486 62.176L162.411 63.1732L162.411 63.1732L162.486 62.176ZM166.518 62.816L166.227 63.7727L166.238 63.776L166.518 62.816ZM169.846 63.968L169.481 64.8988L169.492 64.903L169.846 63.968ZM172.726 65.824L171.979 66.4884L171.988 66.499L171.998 66.5094L172.726 65.824ZM174.71 68.448L173.862 68.978L173.863 68.9798L174.71 68.448ZM174.71 84.896L173.813 84.4553L173.809 84.4622L174.71 84.896ZM170.23 90.144L169.693 89.3003L168.85 89.8368L169.386 90.6803L170.23 90.144ZM159.926 107.68L159.705 108.655L159.705 108.655L159.926 107.68ZM158.134 106.272L157.181 106.573L157.186 106.589L157.191 106.605L158.134 106.272ZM153.974 93.088L154.928 92.7871L154.721 92.1302L154.033 92.0897L153.974 93.088ZM152.886 93.024L152.945 92.0257L151.886 91.9634V93.024H152.886ZM152.886 83.168H151.886V84.168H152.886V83.168ZM157.238 73.248L156.453 73.8676L156.463 73.88L156.473 73.8921L157.238 73.248ZM152.886 72.032V71.032H151.886V72.032H152.886ZM151.886 106.144C151.886 105.845 152.071 105.717 152.032 105.748C151.994 105.777 151.867 105.853 151.585 105.95C151.031 106.141 150.135 106.328 148.852 106.496L149.112 108.48C150.432 108.306 151.488 108.099 152.236 107.842C152.604 107.715 152.965 107.554 153.253 107.332C153.538 107.112 153.886 106.72 153.886 106.144H151.886ZM148.852 106.496C146.293 106.832 143.712 107 141.11 107V109C143.799 109 146.466 108.827 149.112 108.48L148.852 106.496ZM141.11 107C139.825 107 138.785 106.963 137.983 106.892C137.157 106.819 136.662 106.715 136.417 106.62L135.692 108.484C136.215 108.687 136.946 108.808 137.806 108.884C138.689 108.962 139.793 109 141.11 109V107ZM136.435 106.627C136.184 106.524 136.075 106.423 136.03 106.365C135.994 106.319 135.966 106.261 135.966 106.144H133.966C133.966 106.667 134.119 107.163 134.447 107.587C134.764 107.998 135.2 108.282 135.674 108.477L136.435 106.627ZM135.966 106.144V64.992H133.966V106.144H135.966ZM135.966 64.992C135.966 64.9427 135.968 64.7403 136.501 64.4371C137.043 64.1284 137.948 63.8377 139.293 63.61L138.959 61.638C137.531 61.8797 136.356 62.2183 135.512 62.6989C134.658 63.185 133.966 63.9319 133.966 64.992H135.966ZM139.291 63.6104C142.033 63.1534 145.515 62.92 149.75 62.92V60.92C145.453 60.92 141.852 61.156 138.962 61.6376L139.291 63.6104ZM149.75 62.92C154.022 62.92 156.755 62.9414 157.972 62.9834L158.041 60.9846C156.783 60.9412 154.012 60.92 149.75 60.92V62.92ZM158.006 62.984C159.255 62.984 160.722 63.0465 162.411 63.1732L162.561 61.1788C160.837 61.0495 159.318 60.984 158.006 60.984V62.984ZM162.411 63.1732C164.086 63.2988 165.347 63.5049 166.227 63.7727L166.809 61.8593C165.727 61.5298 164.299 61.3092 162.561 61.1788L162.411 63.1732ZM166.238 63.776C167.228 64.0647 168.309 64.4383 169.481 64.8987L170.212 63.0372C168.995 62.559 167.856 62.1646 166.798 61.856L166.238 63.776ZM169.492 64.903C170.62 65.3311 171.43 65.8706 171.979 66.4884L173.474 65.1596C172.657 64.2414 171.547 63.5436 170.201 63.033L169.492 64.903ZM171.998 66.5094C172.628 67.1782 173.25 67.9983 173.862 68.978L175.558 67.918C174.891 66.8497 174.19 65.9205 173.454 65.1386L171.998 66.5094ZM173.863 68.9798C174.873 70.5881 175.438 72.9958 175.438 76.32H177.438C177.438 72.8176 176.851 69.9773 175.557 67.9162L173.863 68.9798ZM175.438 76.32C175.438 79.5806 174.881 82.2796 173.813 84.4553L175.608 85.3367C176.844 82.8191 177.438 79.8007 177.438 76.32H175.438ZM173.809 84.4622C172.768 86.6239 171.391 88.2199 169.693 89.3003L170.767 90.9877C172.824 89.6788 174.433 87.7761 175.611 85.3298L173.809 84.4622ZM169.386 90.6803C171.832 94.5291 173.651 97.6538 174.856 100.063C175.458 101.268 175.899 102.278 176.187 103.099C176.48 103.936 176.59 104.509 176.59 104.864H178.59C178.59 104.173 178.394 103.349 178.074 102.437C177.748 101.509 177.269 100.417 176.645 99.1688C175.396 96.6715 173.536 93.4816 171.074 89.6077L169.386 90.6803ZM176.59 104.864C176.59 104.992 176.548 105.178 176.204 105.435C175.833 105.712 175.192 105.998 174.197 106.246C172.217 106.738 169.165 107 164.982 107V109C169.205 109 172.456 108.739 174.68 108.186C175.786 107.911 176.721 107.544 177.4 107.037C178.107 106.51 178.59 105.782 178.59 104.864H176.59ZM164.982 107C162.546 107 160.964 106.89 160.148 106.705L159.705 108.655C160.766 108.896 162.555 109 164.982 109V107ZM160.148 106.705C159.448 106.546 159.19 106.257 159.077 105.939L157.191 106.605C157.591 107.737 158.528 108.388 159.705 108.655L160.148 106.705ZM159.088 105.971L154.928 92.7871L153.021 93.3889L157.181 106.573L159.088 105.971ZM154.033 92.0897L152.945 92.0257L152.828 94.0223L153.916 94.0863L154.033 92.0897ZM151.886 93.024V106.144H153.886V93.024H151.886ZM152.886 84.168H154.55V82.168H152.886V84.168ZM154.55 84.168C156.094 84.168 157.354 83.5427 158.175 82.2697C158.947 81.0721 159.262 79.4034 159.262 77.408H157.262C157.262 79.2526 156.959 80.4639 156.494 81.1863C156.077 81.8333 155.482 82.168 154.55 82.168V84.168ZM159.262 77.408C159.262 75.3864 158.922 73.695 158.003 72.6039L156.473 73.8921C156.92 74.4224 157.262 75.5043 157.262 77.408H159.262ZM158.023 72.6284C157.238 71.6336 156.223 71.032 154.998 71.032V73.032C155.481 73.032 155.959 73.2411 156.453 73.8676L158.023 72.6284ZM154.998 71.032H152.886V73.032H154.998V71.032ZM151.886 72.032V83.168H153.886V72.032H151.886ZM193.259 107.616L192.997 108.581L193.007 108.584L193.016 108.586L193.259 107.616ZM186.283 104.032L186.907 103.251L186.899 103.244L186.283 104.032ZM181.547 74.144L180.618 73.7726L180.614 73.7841L181.547 74.144ZM186.475 67.04L185.835 66.2718L185.833 66.2731L186.475 67.04ZM211.179 62.816L210.944 63.7881L210.948 63.789L211.179 62.816ZM218.283 66.08L218.869 65.2699L218.863 65.2652L218.283 66.08ZM218.923 102.752L219.614 103.474L219.614 103.474L218.923 102.752ZM200.299 97.632L199.518 98.2567L199.528 98.2699L199.539 98.2828L200.299 97.632ZM204.523 97.632L205.282 98.2828L205.293 98.2699L205.304 98.2567L204.523 97.632ZM205.803 93.664L206.789 93.8318L206.789 93.8284L205.803 93.664ZM205.803 76.768L206.788 76.5967L206.788 76.5967L205.803 76.768ZM200.299 72.928L201.058 73.5788L201.058 73.5788L200.299 72.928ZM199.019 76.768L200.004 76.9393L200.004 76.9393L199.019 76.768ZM199.019 93.664L198.032 93.8284L198.033 93.8318L199.019 93.664ZM202.411 107.576C198.925 107.576 195.96 107.261 193.501 106.646L193.016 108.586C195.677 109.251 198.814 109.576 202.411 109.576V107.576ZM193.52 106.651C191.142 106.006 188.939 104.876 186.907 103.251L185.658 104.813C187.893 106.601 190.341 107.861 192.997 108.581L193.52 106.651ZM186.899 103.244C182.965 100.167 180.819 94.1109 180.819 84.64H178.819C178.819 94.2837 180.982 101.156 185.667 104.82L186.899 103.244ZM180.819 84.64C180.819 80.7225 181.382 77.3508 182.48 74.5039L180.614 73.7841C179.408 76.9106 178.819 80.5362 178.819 84.64H180.819ZM182.475 74.5154C183.62 71.6546 185.174 69.4326 187.116 67.8069L185.833 66.2731C183.595 68.1461 181.863 70.6601 180.618 73.7726L182.475 74.5154ZM187.115 67.8082C190.993 64.5761 196.062 62.92 202.411 62.92V60.92C195.703 60.92 190.148 62.6772 185.835 66.2718L187.115 67.8082ZM202.411 62.92C205.726 62.92 208.566 63.2142 210.944 63.7881L211.413 61.8439C208.842 61.2232 205.837 60.92 202.411 60.92V62.92ZM210.948 63.789C213.333 64.355 215.584 65.3869 217.703 66.8948L218.863 65.2652C216.544 63.6158 214.059 62.4716 211.41 61.843L210.948 63.789ZM217.696 66.8901C221.784 69.8488 224.003 75.621 224.003 84.64H226.003C226.003 75.3977 223.741 68.7965 218.869 65.2699L217.696 66.8901ZM224.003 84.64C224.003 92.6853 222.012 98.4081 218.231 102.03L219.614 103.474C223.94 99.3306 226.003 92.9787 226.003 84.64H224.003ZM218.231 102.03C214.406 105.694 209.172 107.576 202.411 107.576V109.576C209.558 109.576 215.333 107.575 219.614 103.474L218.231 102.03ZM199.539 98.2828C200.269 99.134 201.268 99.528 202.411 99.528V97.528C201.761 97.528 201.352 97.3247 201.058 96.9812L199.539 98.2828ZM202.411 99.528C203.553 99.528 204.552 99.134 205.282 98.2828L203.763 96.9812C203.469 97.3247 203.06 97.528 202.411 97.528V99.528ZM205.304 98.2567C205.67 97.7984 205.95 97.1749 206.178 96.467C206.412 95.7446 206.613 94.8621 206.789 93.8318L204.817 93.4962C204.651 94.4712 204.469 95.2528 204.275 95.853C204.077 96.4678 203.887 96.8256 203.742 97.0073L205.304 98.2567ZM206.789 93.8284C207.144 91.7004 207.315 88.7996 207.315 85.152H205.315C205.315 88.7578 205.144 91.5316 204.816 93.4996L206.789 93.8284ZM207.315 85.152C207.315 81.5064 207.144 78.6442 206.788 76.5967L204.818 76.9393C205.144 78.8171 205.315 81.5443 205.315 85.152H207.315ZM206.788 76.5967C206.612 75.587 206.41 74.7236 206.175 74.0198C205.946 73.3322 205.662 72.7202 205.282 72.2772L203.763 73.5788C203.896 73.7331 204.081 74.0598 204.278 74.6522C204.47 75.2284 204.652 75.9863 204.818 76.9393L206.788 76.5967ZM205.282 72.2772C204.552 71.426 203.553 71.032 202.411 71.032V73.032C203.06 73.032 203.469 73.2353 203.763 73.5788L205.282 72.2772ZM202.411 71.032C201.268 71.032 200.269 71.426 199.539 72.2772L201.058 73.5788C201.352 73.2353 201.761 73.032 202.411 73.032V71.032ZM199.539 72.2772C199.16 72.7202 198.875 73.3322 198.646 74.0198C198.411 74.7236 198.209 75.587 198.034 76.5967L200.004 76.9393C200.17 75.9863 200.351 75.2284 200.543 74.6522C200.741 74.0598 200.926 73.7331 201.058 73.5788L199.539 72.2772ZM198.034 76.5967C197.677 78.6442 197.507 81.5064 197.507 85.152H199.507C199.507 81.5443 199.677 78.8171 200.004 76.9393L198.034 76.5967ZM197.507 85.152C197.507 88.7996 197.678 91.7004 198.032 93.8284L200.005 93.4996C199.677 91.5316 199.507 88.7578 199.507 85.152H197.507ZM198.033 93.8318C198.208 94.8621 198.41 95.7446 198.643 96.467C198.871 97.1749 199.151 97.7984 199.518 98.2567L201.08 97.0073C200.934 96.8256 200.745 96.4678 200.546 95.853C200.353 95.2528 200.171 94.4712 200.005 93.4962L198.033 93.8318ZM243.042 107.488L242.914 106.496L242.912 106.496L243.042 107.488ZM230.242 107.552L230.623 106.627L230.623 106.627L230.242 107.552ZM232.802 63.904L232.461 62.9637L232.456 62.9657L232.802 63.904ZM243.682 62.688L243.53 63.6764L243.536 63.6774L243.682 62.688ZM246.754 65.44L245.815 65.7857L245.817 65.7887L246.754 65.44ZM252.898 81.952L251.961 82.3007L252.203 82.952H252.898V81.952ZM253.154 81.952V82.952H254.154V81.952H253.154ZM256.802 63.904L257.147 64.8423L257.147 64.8423L256.802 63.904ZM270.242 64.096L271.059 63.5193L271.058 63.518L270.242 64.096ZM267.042 107.488L266.914 106.496L266.912 106.496L267.042 107.488ZM253.282 106.784L254.22 106.438L254.217 106.43L253.282 106.784ZM247.33 91.04L248.265 90.6864L248.021 90.04H247.33V91.04ZM247.01 91.04V90.04H246.01V91.04H247.01ZM246.01 106.144C246.01 105.838 246.202 105.71 246.158 105.743C246.117 105.774 245.985 105.851 245.697 105.949C245.132 106.14 244.219 106.328 242.914 106.496L243.17 108.48C244.51 108.307 245.581 108.1 246.339 107.843C246.712 107.717 247.076 107.557 247.366 107.337C247.652 107.12 248.01 106.727 248.01 106.144H246.01ZM242.912 106.496C240.352 106.832 237.793 107 235.234 107V109C237.88 109 240.526 108.826 243.172 108.48L242.912 106.496ZM235.234 107C233.948 107 232.914 106.963 232.123 106.892C231.305 106.819 230.836 106.715 230.623 106.627L229.861 108.477C230.373 108.687 231.099 108.808 231.944 108.884C232.818 108.962 233.917 109 235.234 109V107ZM230.623 106.627C230.371 106.524 230.262 106.423 230.217 106.365C230.182 106.319 230.154 106.261 230.154 106.144H228.154C228.154 106.667 228.307 107.163 228.634 107.587C228.952 107.998 229.387 108.282 229.861 108.477L230.623 106.627ZM230.154 106.144V66.848H228.154V106.144H230.154ZM230.154 66.848C230.154 66.7372 230.208 66.4822 230.694 66.0902C231.18 65.6982 231.976 65.2741 233.147 64.8423L232.456 62.9657C231.196 63.4299 230.168 63.9445 229.438 64.5338C228.707 65.1231 228.154 65.8922 228.154 66.848H230.154ZM233.142 64.8443C235.49 63.9943 238.166 63.56 241.186 63.56V61.56C237.976 61.56 235.063 62.0217 232.461 62.9637L233.142 64.8443ZM241.186 63.56C242.283 63.56 243.053 63.603 243.53 63.6764L243.834 61.6996C243.201 61.6023 242.307 61.56 241.186 61.56V63.56ZM243.536 63.6774C244.553 63.8269 245.318 64.4343 245.815 65.7857L247.692 65.0943C246.995 63.203 245.712 61.9757 243.827 61.6986L243.536 63.6774ZM245.817 65.7887L251.961 82.3007L253.835 81.6033L247.691 65.0913L245.817 65.7887ZM252.898 82.952H253.154V80.952H252.898V82.952ZM254.154 81.952V66.848H252.154V81.952H254.154ZM254.154 66.848C254.154 66.7372 254.208 66.4822 254.694 66.0902C255.18 65.6982 255.976 65.2741 257.147 64.8423L256.456 62.9657C255.196 63.4299 254.168 63.9445 253.438 64.5338C252.707 65.1231 252.154 65.8922 252.154 66.848H254.154ZM257.147 64.8423C259.449 63.9944 262.102 63.56 265.122 63.56V61.56C261.912 61.56 259.019 62.0216 256.456 62.9657L257.147 64.8423ZM265.122 63.56C266.413 63.56 267.405 63.6841 268.13 63.9018C268.858 64.12 269.236 64.4067 269.426 64.674L271.058 63.518C270.522 62.7613 269.685 62.28 268.705 61.9862C267.724 61.6919 266.519 61.56 265.122 61.56V63.56ZM269.425 64.6727C269.873 65.307 270.01 65.7674 270.01 66.08H272.01C272.01 65.1979 271.635 64.3356 271.059 63.5193L269.425 64.6727ZM270.01 66.08V106.144H272.01V66.08H270.01ZM270.01 106.144C270.01 105.838 270.202 105.71 270.158 105.743C270.117 105.774 269.985 105.851 269.697 105.949C269.132 106.14 268.219 106.328 266.914 106.496L267.17 108.48C268.51 108.307 269.581 108.1 270.339 107.843C270.712 107.717 271.076 107.557 271.366 107.337C271.652 107.12 272.01 106.727 272.01 106.144H270.01ZM266.912 106.496C264.36 106.831 261.524 107 258.402 107V109C261.594 109 264.518 108.827 267.172 108.48L266.912 106.496ZM258.402 107C256.872 107 255.758 106.899 255.017 106.723C254.646 106.635 254.417 106.539 254.288 106.461C254.162 106.385 254.193 106.364 254.22 106.438L252.343 107.13C252.52 107.61 252.876 107.943 253.251 108.171C253.623 108.397 254.072 108.554 254.555 108.669C255.52 108.898 256.817 109 258.402 109V107ZM254.217 106.43L248.265 90.6864L246.394 91.3936L252.346 107.138L254.217 106.43ZM247.33 90.04H247.01V92.04H247.33V90.04ZM246.01 91.04V106.144H248.01V91.04H246.01ZM105.054 180.552L105.435 179.627L105.435 179.627L105.054 180.552ZM105.374 136.328L105.821 137.222L105.837 137.214L105.853 137.206L105.374 136.328ZM141.598 140.424L140.877 141.117L140.882 141.121L141.598 140.424ZM141.406 175.88L142.131 176.569L142.136 176.564L141.406 175.88ZM121.822 145.352L121.375 144.458L120.822 144.734V145.352H121.822ZM121.822 171.208H120.822V172.108L121.718 172.203L121.822 171.208ZM124.254 171.464L124.15 172.459L124.202 172.464H124.254V171.464ZM127.134 168.392L126.186 168.076L126.183 168.085L126.18 168.094L127.134 168.392ZM127.134 147.656L126.206 148.027L126.206 148.027L127.134 147.656ZM124.382 180H109.278V182H124.382V180ZM109.278 180C108.253 180 107.416 179.963 106.76 179.894C106.087 179.822 105.666 179.722 105.435 179.627L104.674 181.477C105.168 181.68 105.813 181.804 106.549 181.882C107.3 181.962 108.213 182 109.278 182V180ZM105.435 179.627C105.194 179.528 105.089 179.428 105.042 179.366C105.003 179.313 104.966 179.234 104.966 179.08H102.966C102.966 179.609 103.111 180.117 103.434 180.554C103.751 180.983 104.19 181.277 104.674 181.477L105.435 179.627ZM104.966 179.08V138.696H102.966V179.08H104.966ZM104.966 138.696C104.966 138.284 105.052 137.994 105.178 137.783C105.301 137.576 105.498 137.384 105.821 137.222L104.927 135.434C104.311 135.741 103.805 136.179 103.459 136.761C103.115 137.34 102.966 137.999 102.966 138.696H104.966ZM105.853 137.206C106.553 136.824 107.95 136.56 110.238 136.56V134.56C107.918 134.56 106.073 134.808 104.895 135.45L105.853 137.206ZM110.238 136.56H124.638V134.56H110.238V136.56ZM124.638 136.56C132.762 136.56 138.057 138.18 140.877 141.117L142.319 139.731C138.911 136.182 132.898 134.56 124.638 134.56V136.56ZM140.882 141.121C143.708 144.026 145.27 149.522 145.27 157.96H147.27C147.27 149.417 145.718 143.222 142.315 139.727L140.882 141.121ZM145.27 157.96C145.27 166.379 143.652 172.025 140.677 175.196L142.136 176.564C145.646 172.823 147.27 166.522 147.27 157.96H145.27ZM140.681 175.191C137.725 178.303 132.401 180 124.382 180V182C132.577 182 138.602 180.284 142.131 176.569L140.681 175.191ZM123.87 144.096C123.335 144.096 122.863 144.118 122.466 144.168C122.088 144.215 121.698 144.296 121.375 144.458L122.269 146.246C122.268 146.247 122.276 146.243 122.297 146.236C122.317 146.229 122.346 146.22 122.385 146.21C122.464 146.19 122.572 146.17 122.714 146.152C123 146.117 123.382 146.096 123.87 146.096V144.096ZM120.822 145.352V171.208H122.822V145.352H120.822ZM121.718 172.203L124.15 172.459L124.359 170.469L121.927 170.213L121.718 172.203ZM124.254 172.464C126.236 172.464 127.42 170.831 128.089 168.69L126.18 168.094C125.569 170.049 124.832 170.464 124.254 170.464V172.464ZM128.083 168.708C128.822 166.492 129.158 162.805 129.158 157.768H127.158C127.158 162.8 126.812 166.196 126.186 168.076L128.083 168.708ZM129.158 157.768C129.158 155.231 129.072 153.094 128.897 151.363C128.724 149.649 128.456 148.269 128.063 147.285L126.206 148.027C126.495 148.75 126.74 149.908 126.907 151.565C127.073 153.205 127.158 155.27 127.158 157.768H129.158ZM128.063 147.285C127.677 146.32 127.144 145.515 126.423 144.949C125.689 144.373 124.822 144.096 123.87 144.096V146.096C124.412 146.096 124.836 146.246 125.189 146.523C125.556 146.811 125.909 147.285 126.206 148.027L128.063 147.285ZM163.259 180.616L162.997 181.581L163.007 181.584L163.016 181.586L163.259 180.616ZM156.283 177.032L156.907 176.251L156.899 176.244L156.283 177.032ZM151.547 147.144L150.618 146.773L150.614 146.784L151.547 147.144ZM156.475 140.04L155.835 139.272L155.833 139.273L156.475 140.04ZM181.179 135.816L180.944 136.788L180.948 136.789L181.179 135.816ZM188.283 139.08L188.869 138.27L188.863 138.265L188.283 139.08ZM188.923 175.752L189.614 176.474L189.614 176.474L188.923 175.752ZM170.299 170.632L169.518 171.257L169.528 171.27L169.539 171.283L170.299 170.632ZM174.523 170.632L175.282 171.283L175.293 171.27L175.304 171.257L174.523 170.632ZM175.803 166.664L176.789 166.832L176.789 166.828L175.803 166.664ZM175.803 149.768L176.788 149.597L176.788 149.597L175.803 149.768ZM170.299 145.928L171.058 146.579L171.058 146.579L170.299 145.928ZM169.019 149.768L170.004 149.939L170.004 149.939L169.019 149.768ZM169.019 166.664L168.032 166.828L168.033 166.832L169.019 166.664ZM172.411 180.576C168.925 180.576 165.96 180.261 163.501 179.646L163.016 181.586C165.677 182.251 168.814 182.576 172.411 182.576V180.576ZM163.52 179.651C161.142 179.006 158.939 177.876 156.907 176.251L155.658 177.813C157.893 179.601 160.341 180.861 162.997 181.581L163.52 179.651ZM156.899 176.244C152.965 173.167 150.819 167.111 150.819 157.64H148.819C148.819 167.284 150.982 174.156 155.667 177.82L156.899 176.244ZM150.819 157.64C150.819 153.722 151.382 150.351 152.48 147.504L150.614 146.784C149.408 149.911 148.819 153.536 148.819 157.64H150.819ZM152.475 147.515C153.62 144.655 155.174 142.433 157.116 140.807L155.833 139.273C153.595 141.146 151.863 143.66 150.618 146.773L152.475 147.515ZM157.115 140.808C160.993 137.576 166.062 135.92 172.411 135.92V133.92C165.703 133.92 160.148 135.677 155.835 139.272L157.115 140.808ZM172.411 135.92C175.726 135.92 178.566 136.214 180.944 136.788L181.413 134.844C178.842 134.223 175.837 133.92 172.411 133.92V135.92ZM180.948 136.789C183.333 137.355 185.584 138.387 187.703 139.895L188.863 138.265C186.544 136.616 184.059 135.472 181.41 134.843L180.948 136.789ZM187.696 139.89C191.784 142.849 194.003 148.621 194.003 157.64H196.003C196.003 148.398 193.741 141.797 188.869 138.27L187.696 139.89ZM194.003 157.64C194.003 165.685 192.012 171.408 188.231 175.03L189.614 176.474C193.94 172.331 196.003 165.979 196.003 157.64H194.003ZM188.231 175.03C184.406 178.694 179.172 180.576 172.411 180.576V182.576C179.558 182.576 185.333 180.575 189.614 176.474L188.231 175.03ZM169.539 171.283C170.269 172.134 171.268 172.528 172.411 172.528V170.528C171.761 170.528 171.352 170.325 171.058 169.981L169.539 171.283ZM172.411 172.528C173.553 172.528 174.552 172.134 175.282 171.283L173.763 169.981C173.469 170.325 173.06 170.528 172.411 170.528V172.528ZM175.304 171.257C175.67 170.798 175.95 170.175 176.178 169.467C176.412 168.745 176.613 167.862 176.789 166.832L174.817 166.496C174.651 167.471 174.469 168.253 174.275 168.853C174.077 169.468 173.887 169.826 173.742 170.007L175.304 171.257ZM176.789 166.828C177.144 164.7 177.315 161.8 177.315 158.152H175.315C175.315 161.758 175.144 164.532 174.816 166.5L176.789 166.828ZM177.315 158.152C177.315 154.506 177.144 151.644 176.788 149.597L174.818 149.939C175.144 151.817 175.315 154.544 175.315 158.152H177.315ZM176.788 149.597C176.612 148.587 176.41 147.724 176.175 147.02C175.946 146.332 175.662 145.72 175.282 145.277L173.763 146.579C173.896 146.733 174.081 147.06 174.278 147.652C174.47 148.228 174.652 148.986 174.818 149.939L176.788 149.597ZM175.282 145.277C174.552 144.426 173.553 144.032 172.411 144.032V146.032C173.06 146.032 173.469 146.235 173.763 146.579L175.282 145.277ZM172.411 144.032C171.268 144.032 170.269 144.426 169.539 145.277L171.058 146.579C171.352 146.235 171.761 146.032 172.411 146.032V144.032ZM169.539 145.277C169.16 145.72 168.875 146.332 168.646 147.02C168.411 147.724 168.209 148.587 168.034 149.597L170.004 149.939C170.17 148.986 170.351 148.228 170.543 147.652C170.741 147.06 170.926 146.733 171.058 146.579L169.539 145.277ZM168.034 149.597C167.677 151.644 167.507 154.506 167.507 158.152H169.507C169.507 154.544 169.677 151.817 170.004 149.939L168.034 149.597ZM167.507 158.152C167.507 161.8 167.678 164.7 168.032 166.828L170.005 166.5C169.677 164.532 169.507 161.758 169.507 158.152H167.507ZM168.033 166.832C168.208 167.862 168.41 168.745 168.643 169.467C168.871 170.175 169.151 170.798 169.518 171.257L171.08 170.007C170.934 169.826 170.745 169.468 170.546 168.853C170.353 168.253 170.171 167.471 170.005 166.496L168.033 166.832ZM209.01 181.064L209.244 180.092L209.01 181.064ZM205.106 179.208L204.51 180.011L204.524 180.022L204.539 180.032L205.106 179.208ZM201.714 175.368L202.573 174.857L202.573 174.857L201.714 175.368ZM200.114 148.68L201.057 149.012L201.057 149.012L200.114 148.68ZM204.146 141.64L204.862 142.338L204.871 142.329L204.146 141.64ZM209.97 137.48L210.396 138.384L210.396 138.384L209.97 137.48ZM216.306 135.432L216.456 136.421L216.467 136.419L216.477 136.417L216.306 135.432ZM233.394 136.264L233 137.183L233.008 137.187L233.016 137.19L233.394 136.264ZM235.442 147.656L236.394 147.961L236.396 147.956L235.442 147.656ZM227.89 150.088L227.632 151.054L227.64 151.056L227.647 151.058L227.89 150.088ZM217.906 165.32L217.032 165.806L217.038 165.816L217.906 165.32ZM221.106 167.816L220.974 168.807L222.106 168.958V167.816H221.106ZM234.994 158.152L234.719 159.114L234.731 159.117L234.994 158.152ZM236.914 159.24L236.105 159.828L236.115 159.841L236.124 159.854L236.914 159.24ZM234.418 180.36L234.268 179.371L234.266 179.372L234.418 180.36ZM222.898 180.552L222.526 181.48L222.554 181.491L222.582 181.501L222.898 180.552ZM221.81 178.568L222.807 178.488L222.805 178.469L222.803 178.45L221.81 178.568ZM221.362 174.792L222.355 174.674L222.25 173.792H221.362V174.792ZM220.85 174.792V173.792H219.999L219.863 174.631L220.85 174.792ZM218.546 179.528L217.815 178.845L217.81 178.851L217.804 178.858L218.546 179.528ZM213.042 180.512C211.659 180.512 210.395 180.37 209.244 180.092L208.775 182.036C210.099 182.356 211.523 182.512 213.042 182.512V180.512ZM209.244 180.092C208.156 179.829 206.966 179.273 205.672 178.384L204.539 180.032C205.976 181.02 207.389 181.702 208.775 182.036L209.244 180.092ZM205.702 178.405C204.497 177.511 203.452 176.335 202.573 174.857L200.854 175.879C201.853 177.558 203.069 178.942 204.51 180.011L205.702 178.405ZM202.573 174.857C200.577 171.503 199.514 166.321 199.514 159.176H197.514C197.514 166.452 198.584 172.065 200.854 175.879L202.573 174.857ZM199.514 159.176C199.514 155.295 200.036 151.913 201.057 149.012L199.171 148.348C198.059 151.506 197.514 155.121 197.514 159.176H199.514ZM201.057 149.012C202.093 146.071 203.373 143.866 204.862 142.338L203.43 140.942C201.676 142.742 200.268 145.231 199.171 148.348L201.057 149.012ZM204.871 142.329C206.402 140.717 208.24 139.402 210.396 138.384L209.543 136.576C207.177 137.692 205.133 139.149 203.421 140.951L204.871 142.329ZM210.396 138.384C212.592 137.349 214.61 136.702 216.456 136.421L216.155 134.443C214.076 134.76 211.87 135.478 209.543 136.576L210.396 138.384ZM216.477 136.417C218.377 136.087 220.41 135.92 222.578 135.92V133.92C220.308 133.92 218.16 134.095 216.134 134.447L216.477 136.417ZM222.578 135.92C227.69 135.92 231.113 136.375 233 137.183L233.788 135.345C231.493 134.361 227.705 133.92 222.578 133.92V135.92ZM233.016 137.19C233.897 137.55 234.504 138.055 234.899 138.684C235.299 139.32 235.53 140.158 235.53 141.256H237.53C237.53 139.879 237.238 138.648 236.593 137.62C235.943 136.585 234.981 135.832 233.772 135.338L233.016 137.19ZM235.53 141.256C235.53 143.096 235.189 145.127 234.488 147.356L236.396 147.956C237.145 145.577 237.53 143.341 237.53 141.256H235.53ZM234.49 147.351C233.793 149.523 232.951 150.048 232.242 150.048V152.048C234.349 152.048 235.64 150.312 236.394 147.961L234.49 147.351ZM232.242 150.048C232.257 150.048 232.185 150.045 231.954 150.004C231.748 149.967 231.47 149.91 231.113 149.831C230.401 149.674 229.409 149.437 228.132 149.118L227.647 151.058C228.93 151.379 229.944 151.622 230.682 151.785C231.051 151.866 231.359 151.929 231.602 151.972C231.819 152.011 232.056 152.048 232.242 152.048V150.048ZM228.147 149.122C225.573 148.435 223.547 148.064 222.13 148.064V150.064C223.272 150.064 225.087 150.375 227.632 151.054L228.147 149.122ZM222.13 148.064C219.951 148.064 218.244 149.016 217.142 150.874C216.088 152.65 215.626 155.185 215.626 158.344H217.626C217.626 155.317 218.08 153.212 218.862 151.894C219.595 150.659 220.639 150.064 222.13 150.064V148.064ZM215.626 158.344C215.626 161.516 216.054 164.046 217.032 165.806L218.78 164.834C218.051 163.522 217.626 161.402 217.626 158.344H215.626ZM217.038 165.816C217.99 167.483 219.288 168.583 220.974 168.807L221.238 166.825C220.363 166.708 219.528 166.144 218.774 164.824L217.038 165.816ZM222.106 167.816V162.056H220.106V167.816H222.106ZM222.106 162.056C222.106 161.9 222.176 161.637 222.592 161.263C223.015 160.881 223.712 160.464 224.751 160.037L223.989 158.187C222.851 158.656 221.917 159.178 221.252 159.777C220.579 160.384 220.106 161.146 220.106 162.056H222.106ZM224.751 160.037C226.826 159.182 228.788 158.768 230.642 158.768V156.768C228.485 156.768 226.265 157.25 223.989 158.187L224.751 160.037ZM230.642 158.768C232.636 158.768 233.966 158.899 234.719 159.114L235.268 157.19C234.229 156.893 232.659 156.768 230.642 156.768V158.768ZM234.731 159.117C235.586 159.35 235.962 159.631 236.105 159.828L237.722 158.652C237.183 157.91 236.279 157.466 235.257 157.187L234.731 159.117ZM236.124 159.854C236.664 160.548 236.81 161.015 236.81 161.288H238.81C238.81 160.367 238.358 159.468 237.703 158.626L236.124 159.854ZM236.81 161.288V179.016H238.81V161.288H236.81ZM236.81 179.016C236.81 178.776 236.943 178.656 236.934 178.664C236.917 178.679 236.826 178.746 236.593 178.838C236.135 179.02 235.377 179.204 234.268 179.371L234.567 181.349C235.719 181.175 236.657 180.964 237.33 180.698C237.663 180.566 237.996 180.395 238.261 180.16C238.536 179.917 238.81 179.534 238.81 179.016H236.81ZM234.266 179.372C232.101 179.705 229.827 179.872 227.442 179.872V181.872C229.92 181.872 232.297 181.698 234.57 181.348L234.266 179.372ZM227.442 179.872C226.259 179.872 225.309 179.846 224.584 179.794C223.833 179.742 223.404 179.667 223.214 179.603L222.582 181.501C223.031 181.651 223.68 181.736 224.444 181.79C225.233 181.845 226.235 181.872 227.442 181.872V179.872ZM223.269 179.624C223.155 179.578 222.88 179.407 222.807 178.488L220.813 178.648C220.91 179.863 221.361 181.014 222.526 181.48L223.269 179.624ZM222.803 178.45L222.355 174.674L220.369 174.91L220.817 178.686L222.803 178.45ZM221.362 173.792H220.85V175.792H221.362V173.792ZM219.863 174.631C219.595 176.276 218.914 177.671 217.815 178.845L219.276 180.211C220.653 178.74 221.507 176.978 221.837 174.953L219.863 174.631ZM217.804 178.858C216.863 179.899 215.347 180.512 213.042 180.512V182.512C215.686 182.512 217.839 181.803 219.288 180.198L217.804 178.858ZM274.855 178.312L274.263 177.506L274.263 177.506L274.855 178.312ZM269.479 180.68L269.734 181.647L269.746 181.644L269.479 180.68ZM243.431 178.696L242.973 179.585L242.973 179.585L243.431 178.696ZM242.343 169.16L243.309 169.418L243.31 169.414L242.343 169.16ZM250.087 166.984L250.41 166.038L250.41 166.038L250.087 166.984ZM261.031 168.2L261.585 169.032L261.609 169.017L261.631 169L261.031 168.2ZM260.391 164.808L259.882 165.669L259.897 165.678L259.912 165.686L260.391 164.808ZM256.871 163.4L256.581 164.357L256.594 164.361L256.608 164.365L256.871 163.4ZM252.263 161.608L251.835 162.512L251.844 162.516L252.263 161.608ZM247.719 159.048L248.273 158.216L248.273 158.216L247.719 159.048ZM244.199 155.08L243.318 155.553L243.323 155.562L244.199 155.08ZM270.695 135.752L270.517 136.736L270.53 136.738L270.695 135.752ZM277.159 137.544L276.676 138.42L276.693 138.429L276.712 138.438L277.159 137.544ZM277.479 146.632L276.556 146.247L276.553 146.254L276.55 146.261L277.479 146.632ZM272.807 149.896L272.404 150.812L272.416 150.817L272.428 150.822L272.807 149.896ZM261.991 148.552L261.544 147.658L261.532 147.663L261.52 147.67L261.991 148.552ZM262.439 151.88L261.992 152.774L262.008 152.783L262.025 152.79L262.439 151.88ZM265.895 153.096L265.624 154.059L265.641 154.064L265.659 154.068L265.895 153.096ZM270.439 154.76L270.011 155.664L270.025 155.67L270.039 155.677L270.439 154.76ZM275.047 157.384L274.459 158.193L274.467 158.199L274.475 158.204L275.047 157.384ZM278.567 161.608L279.457 161.153L279.457 161.153L278.567 161.608ZM277.991 174.984L278.836 175.519L278.836 175.519L277.991 174.984ZM274.263 177.506C273.117 178.346 271.452 179.094 269.211 179.716L269.746 181.644C272.114 180.986 274.032 180.155 275.446 179.118L274.263 177.506ZM269.223 179.713C267.078 180.28 264.229 180.576 260.647 180.576V182.576C264.318 182.576 267.357 182.275 269.734 181.647L269.223 179.713ZM260.647 180.576C257.118 180.576 253.766 180.282 250.588 179.697L250.226 181.663C253.533 182.273 257.007 182.576 260.647 182.576V180.576ZM250.588 179.697C247.361 179.102 245.158 178.461 243.889 177.807L242.973 179.585C244.519 180.382 246.967 181.063 250.226 181.663L250.588 179.697ZM243.889 177.807C243.229 177.467 242.803 177.166 242.554 176.917C242.303 176.667 242.319 176.559 242.319 176.584H240.319C240.319 177.291 240.686 177.877 241.14 178.331C241.595 178.786 242.224 179.199 242.973 179.585L243.889 177.807ZM242.319 176.584C242.319 174.291 242.646 171.903 243.309 169.418L241.377 168.902C240.674 171.537 240.319 174.099 240.319 176.584H242.319ZM243.31 169.414C243.642 168.148 243.985 167.285 244.312 166.761C244.473 166.502 244.605 166.367 244.692 166.302C244.732 166.272 244.757 166.262 244.766 166.258C244.771 166.257 244.774 166.256 244.774 166.256C244.774 166.256 244.774 166.256 244.775 166.256V164.256C243.782 164.256 243.082 164.951 242.614 165.703C242.13 166.48 241.726 167.569 241.375 168.906L243.31 169.414ZM244.775 166.256C244.718 166.256 244.676 166.251 244.664 166.249C244.647 166.247 244.636 166.245 244.635 166.244C244.633 166.244 244.643 166.246 244.669 166.253C244.721 166.266 244.802 166.288 244.918 166.323C245.148 166.391 245.481 166.496 245.921 166.639C246.8 166.925 248.079 167.355 249.763 167.93L250.41 166.038C248.724 165.461 247.433 165.027 246.54 164.737C246.095 164.592 245.742 164.481 245.487 164.405C245.361 164.368 245.249 164.336 245.158 164.313C245.114 164.302 245.064 164.29 245.016 164.281C244.987 164.275 244.889 164.256 244.775 164.256V166.256ZM249.763 167.93C253.15 169.088 255.821 169.712 257.703 169.712V167.712C256.171 167.712 253.765 167.184 250.41 166.038L249.763 167.93ZM257.703 169.712C258.584 169.712 259.343 169.668 259.967 169.572C260.566 169.48 261.146 169.325 261.585 169.032L260.476 167.368C260.404 167.416 260.173 167.517 259.663 167.596C259.177 167.67 258.528 167.712 257.703 167.712V169.712ZM261.631 169C262.413 168.413 262.799 167.573 262.799 166.6H260.799C260.799 166.992 260.672 167.219 260.431 167.4L261.631 169ZM262.799 166.6C262.799 165.372 261.933 164.51 260.87 163.93L259.912 165.686C260.726 166.13 260.799 166.463 260.799 166.6H262.799ZM260.899 163.947C259.863 163.335 258.601 162.835 257.134 162.435L256.608 164.365C257.957 164.733 259.041 165.172 259.882 165.669L260.899 163.947ZM257.161 162.443C255.806 162.032 254.314 161.453 252.682 160.7L251.844 162.516C253.54 163.299 255.119 163.914 256.581 164.357L257.161 162.443ZM252.691 160.704C251.111 159.956 249.639 159.126 248.273 158.216L247.164 159.88C248.615 160.847 250.172 161.724 251.835 162.512L252.691 160.704ZM248.273 158.216C247.018 157.379 245.948 156.185 245.075 154.598L243.323 155.562C244.327 157.388 245.603 158.84 247.164 159.88L248.273 158.216ZM245.08 154.607C244.228 153.02 243.791 151.201 243.791 149.128H241.791C241.791 151.492 242.292 153.642 243.318 155.553L245.08 154.607ZM243.791 149.128C243.791 144.597 245.134 141.365 247.673 139.239C250.245 137.084 254.213 135.92 259.751 135.92V133.92C253.982 133.92 249.469 135.124 246.389 137.705C243.274 140.315 241.791 144.187 241.791 149.128H243.791ZM259.751 135.92C263.935 135.92 267.52 136.195 270.517 136.736L270.872 134.768C267.725 134.2 264.015 133.92 259.751 133.92V135.92ZM270.53 136.738C273.592 137.249 275.599 137.826 276.676 138.42L277.642 136.668C276.244 135.897 273.941 135.279 270.859 134.766L270.53 136.738ZM276.712 138.438C277.304 138.735 277.679 138.998 277.892 139.211C278.103 139.422 278.079 139.503 278.079 139.464H280.079C280.079 138.785 279.735 138.226 279.306 137.797C278.879 137.37 278.293 136.993 277.606 136.65L276.712 138.438ZM278.079 139.464C278.079 141.522 277.584 143.78 276.556 146.247L278.402 147.017C279.507 144.364 280.079 141.843 280.079 139.464H278.079ZM276.55 146.261C276.053 147.505 275.588 148.364 275.172 148.895C274.737 149.45 274.499 149.472 274.471 149.472V151.472C275.424 151.472 276.178 150.854 276.746 150.129C277.332 149.38 277.881 148.319 278.407 147.003L276.55 146.261ZM274.471 149.472C274.568 149.472 274.609 149.491 274.527 149.469C274.469 149.454 274.381 149.427 274.254 149.383C274.002 149.296 273.648 149.16 273.185 148.97L272.428 150.822C272.904 151.016 273.297 151.168 273.6 151.273C273.75 151.325 273.891 151.37 274.015 151.403C274.114 151.429 274.288 151.472 274.471 151.472V149.472ZM273.209 148.98C270.337 147.719 267.843 147.04 265.767 147.04V149.04C267.445 149.04 269.644 149.599 272.404 150.812L273.209 148.98ZM265.767 147.04C264.822 147.04 264.001 147.084 263.312 147.177C262.636 147.269 262.027 147.416 261.544 147.658L262.438 149.446C262.637 149.347 262.998 149.238 263.581 149.159C264.151 149.082 264.876 149.04 265.767 149.04V147.04ZM261.52 147.67C261.067 147.911 260.681 148.247 260.413 148.694C260.145 149.14 260.031 149.639 260.031 150.152H262.031C262.031 149.94 262.076 149.81 262.128 149.722C262.18 149.635 262.274 149.534 262.461 149.434L261.52 147.67ZM260.031 150.152C260.031 151.395 260.915 152.236 261.992 152.774L262.886 150.986C262.085 150.585 262.031 150.274 262.031 150.152H260.031ZM262.025 152.79C263.023 153.244 264.226 153.666 265.624 154.059L266.165 152.133C264.832 151.758 263.731 151.369 262.853 150.97L262.025 152.79ZM265.659 154.068C266.987 154.39 268.437 154.918 270.011 155.664L270.867 153.856C269.198 153.066 267.618 152.485 266.13 152.124L265.659 154.068ZM270.039 155.677C271.639 156.374 273.112 157.213 274.459 158.193L275.635 156.575C274.166 155.507 272.566 154.596 270.838 153.843L270.039 155.677ZM274.475 158.204C275.724 159.075 276.798 160.346 277.677 162.063L279.457 161.153C278.459 159.201 277.185 157.656 275.619 156.564L274.475 158.204ZM277.677 162.063C278.531 163.734 278.975 165.706 278.975 168.008H280.975C280.975 165.446 280.48 163.151 279.457 161.153L277.677 162.063ZM278.975 168.008C278.975 170.386 278.363 172.524 277.146 174.449L278.836 175.519C280.263 173.262 280.975 170.75 280.975 168.008H278.975ZM277.146 174.449C276.405 175.618 275.448 176.637 274.263 177.506L275.446 179.118C276.822 178.109 277.955 176.91 278.836 175.519L277.146 174.449Z" fill="#F59295"/>
</svg>
