<svg width="374" height="264" viewBox="0 0 374 264" fill="none" xmlns="http://www.w3.org/2000/svg">
<g clip-path="url(#clip0)">
<path d="M146.461 165.68C146.577 164.895 146.519 164.094 146.291 163.333C146.063 162.573 145.672 161.872 145.144 161.279C144.616 160.686 143.964 160.217 143.235 159.903C142.506 159.589 141.716 159.439 140.923 159.464L106.142 124.309L99.2717 133.911L135.62 165.448C135.749 166.778 136.362 168.014 137.342 168.923C138.322 169.831 139.601 170.349 140.938 170.377C142.274 170.406 143.574 169.944 144.592 169.078C145.61 168.212 146.275 167.003 146.461 165.68Z" fill="#FFB8B8"/>
<path d="M129.986 145.38L121.109 154.245C120.684 154.667 120.11 154.905 119.51 154.907C118.911 154.91 118.335 154.676 117.907 154.258L93.6491 130.417C92.8104 129.592 92.1435 128.61 91.687 127.526C91.2305 126.443 90.9935 125.279 90.9896 124.103C90.9856 122.928 91.2149 121.763 91.6642 120.676C92.1134 119.589 92.7737 118.602 93.6069 117.772C94.44 116.943 95.4295 116.286 96.5181 115.841C97.6067 115.395 98.7728 115.17 99.9489 115.178C101.125 115.186 102.288 115.428 103.37 115.888C104.453 116.348 105.433 117.018 106.255 117.859L130.006 142.183C130.423 142.612 130.654 143.188 130.65 143.786C130.646 144.384 130.408 144.956 129.986 145.38Z" fill="#F9A826"/>
<path d="M98.8526 101.868C105.71 101.868 111.268 96.3106 111.268 89.4558C111.268 82.601 105.71 77.0441 98.8526 77.0441C91.9957 77.0441 86.4371 82.601 86.4371 89.4558C86.4371 96.3106 91.9957 101.868 98.8526 101.868Z" fill="#FFB8B8"/>
<path d="M56.901 238.191L60.0447 243.53L82.1409 233.949L77.501 226.069L56.901 238.191Z" fill="#FFB8B8"/>
<path d="M57.843 235.803L64.0339 246.317L64.0342 246.318C64.5523 247.198 64.8919 248.171 65.0338 249.182C65.1756 250.194 65.1168 251.223 64.8607 252.211C64.6046 253.2 64.1563 254.128 63.5413 254.943C62.9263 255.759 62.1567 256.445 61.2764 256.963L61.0586 257.091L50.9222 239.875L57.843 235.803Z" fill="#2F2E41"/>
<path d="M93.3255 257.425H99.5228L102.471 233.528L93.3245 233.529L93.3255 257.425Z" fill="#FFB8B8"/>
<path d="M91.7449 255.403L103.949 255.402H103.95C104.971 255.402 105.983 255.603 106.926 255.994C107.87 256.385 108.727 256.957 109.45 257.679C110.172 258.401 110.745 259.258 111.136 260.202C111.527 261.145 111.728 262.156 111.728 263.177V263.43L91.7453 263.431L91.7449 255.403Z" fill="#2F2E41"/>
<path d="M68.4103 242.947C68.0537 242.947 67.702 242.864 67.3837 242.703C67.0655 242.542 66.7896 242.308 66.5784 242.021L60.6016 233.906C60.4192 233.658 60.289 233.376 60.2187 233.077C60.1485 232.778 60.1396 232.467 60.1928 232.165C60.2459 231.862 60.3599 231.573 60.5279 231.315C60.6958 231.058 60.9143 230.837 61.17 230.666L87.7662 212.908L71.7184 170.725L106.036 173.556L107.192 209.806C107.3 213.107 106.509 216.376 104.902 219.262C103.295 222.148 100.934 224.543 98.0702 226.191L69.5469 242.642C69.2015 242.842 68.8095 242.947 68.4103 242.947Z" fill="#2F2E41"/>
<path d="M93.5126 252.574C92.924 252.573 92.3588 252.344 91.9357 251.935C91.5125 251.526 91.2644 250.969 91.2435 250.381L89.9858 215.066L105.559 214.246L104.319 249.814C104.301 250.378 104.073 250.914 103.681 251.319C103.288 251.724 102.759 251.968 102.196 252.004L93.6672 252.569C93.6155 252.572 93.5639 252.574 93.5126 252.574Z" fill="#2F2E41"/>
<path d="M110.008 180.568C106.046 180.568 92.206 176.113 87.4014 174.525C86.6827 175.1 82.7341 178.052 78.125 177.512C75.2811 177.179 72.7775 175.569 70.6836 172.729C66.0599 166.455 71.7708 139.552 77.3759 118.088C78.4996 113.749 81.2621 110.015 85.0827 107.671C88.9032 105.326 93.4843 104.553 97.8629 105.515C101.036 106.216 103.952 107.787 106.281 110.052C108.611 112.318 110.262 115.188 111.05 118.34C112.105 122.634 111.198 127.686 110.535 131.375C110.223 133.109 109.977 134.479 110.061 135.152C110.386 137.753 112.194 178.556 111.032 180.299C110.908 180.485 110.55 180.568 110.008 180.568Z" fill="#F9A826"/>
<path d="M95.5127 180.641C96.1495 180.167 96.6746 179.559 97.0511 178.86C97.4275 178.162 97.6461 177.389 97.6915 176.596C97.7369 175.804 97.6079 175.011 97.3137 174.274C97.0195 173.537 96.5672 172.873 95.9887 172.33L96.234 122.885L84.585 124.825L88.0068 172.817C87.1579 173.849 86.7173 175.157 86.7683 176.492C86.8194 177.827 87.3586 179.097 88.2838 180.062C89.209 181.026 90.4559 181.618 91.7882 181.724C93.1206 181.831 94.4457 181.445 95.5127 180.641Z" fill="#FFB8B8"/>
<path d="M98.207 154.639H85.6597C85.0605 154.637 84.4861 154.4 84.0604 153.978C83.6348 153.557 83.3922 152.985 83.3849 152.386L83.0769 118.38C83.0662 117.204 83.2888 116.038 83.7319 114.949C84.1749 113.859 84.8296 112.869 85.6581 112.034C86.4865 111.199 87.4723 110.537 88.5584 110.085C89.6445 109.634 90.8094 109.402 91.9857 109.404C93.1619 109.405 94.3262 109.64 95.4112 110.094C96.4962 110.548 97.4804 111.213 98.3068 112.049C99.1332 112.886 99.7855 113.878 100.226 114.969C100.666 116.059 100.886 117.226 100.872 118.402L100.482 152.391C100.473 152.989 100.229 153.56 99.804 153.98C99.3786 154.4 98.8051 154.637 98.207 154.639Z" fill="#F9A826"/>
<path d="M95.6913 101.816C90.0068 101.826 84.6441 97.3344 83.659 91.7377C83.3063 89.539 83.4653 87.2886 84.1237 85.1613C84.8385 82.7396 86.0643 80.4992 87.7186 78.5912C89.3728 76.6833 91.417 75.152 93.7133 74.1007C96.0097 73.0493 98.5048 72.5024 101.03 72.4967C103.556 72.491 106.054 73.0267 108.355 74.0676C109.875 74.7555 111.373 75.7436 112.07 77.2601C112.766 78.7766 112.33 80.8962 110.807 81.5785C109.812 82.0245 108.562 81.8055 107.679 82.4456C106.411 83.365 106.737 85.3216 107.304 86.782C107.87 88.2423 108.511 90.0095 107.561 91.2554C106.677 92.4164 104.908 92.3804 103.515 91.9434C102.122 91.5064 100.747 90.7747 99.295 90.9235C97.1768 91.1406 95.6545 93.2469 95.3728 95.3569C95.091 97.4669 95.7543 99.576 96.4092 101.601L95.6913 101.816Z" fill="#2F2E41"/>
<path d="M251.049 114.483C251.049 80.5416 278.573 0 312.525 0C346.477 0 374 80.5416 374 114.483C374 130.782 367.523 146.414 355.994 157.94C344.465 169.465 328.829 175.94 312.525 175.94C296.22 175.94 280.584 169.465 269.055 157.94C257.526 146.414 251.049 130.782 251.049 114.483Z" fill="#F9A826"/>
<path d="M312.525 264C312.391 264 312.262 263.947 312.167 263.852C312.073 263.757 312.019 263.629 312.019 263.495V51.6125C312.019 51.4785 312.073 51.35 312.167 51.2552C312.262 51.1604 312.391 51.1072 312.525 51.1072C312.659 51.1072 312.787 51.1604 312.882 51.2552C312.977 51.35 313.03 51.4785 313.03 51.6125V263.495C313.03 263.629 312.977 263.757 312.882 263.852C312.787 263.947 312.659 264 312.525 264Z" fill="#3F3D56"/>
<path d="M312.525 92.5179C312.458 92.518 312.393 92.505 312.331 92.4795C312.27 92.4541 312.214 92.4169 312.167 92.3699L287.835 68.0456C287.742 67.9506 287.689 67.8223 287.69 67.6889C287.69 67.5554 287.743 67.4275 287.838 67.3332C287.932 67.2388 288.06 67.1856 288.194 67.1852C288.327 67.1848 288.455 67.2372 288.55 67.331L312.882 91.6553C312.953 91.7259 313.001 91.816 313.02 91.914C313.04 92.012 313.03 92.1136 312.992 92.2059C312.953 92.2983 312.889 92.3772 312.805 92.4327C312.722 92.4882 312.625 92.5179 312.525 92.5179V92.5179Z" fill="#3F3D56"/>
<path d="M312.525 134.628C312.425 134.628 312.327 134.598 312.244 134.543C312.161 134.487 312.096 134.409 312.058 134.316C312.02 134.224 312.009 134.122 312.029 134.024C312.048 133.926 312.097 133.836 312.167 133.766L352.915 93.0297C353.01 92.936 353.139 92.8836 353.272 92.8841C353.406 92.8845 353.533 92.9377 353.628 93.0321C353.722 93.1264 353.775 93.2542 353.776 93.3877C353.776 93.5211 353.724 93.6493 353.63 93.7443L312.882 134.48C312.835 134.527 312.78 134.564 312.718 134.59C312.657 134.615 312.591 134.628 312.525 134.628Z" fill="#3F3D56"/>
<path d="M142.398 165.392C150.463 163.57 159.6 169.876 159.883 178.343C159.963 180.724 159.265 183.225 157.432 184.845C155.918 186.183 153.666 186.857 151.71 186.204C147.945 184.946 147.744 179.701 149.764 176.901C152.498 173.108 157.915 172.46 162.214 172.912C167.469 173.463 172.464 175.767 176.655 178.924C185.046 185.245 190.388 194.932 194.713 204.292C199.14 213.893 202.359 224.006 204.297 234.4C204.54 235.705 204.764 237.014 204.967 238.326C205.024 238.519 205.155 238.681 205.331 238.777C205.507 238.874 205.714 238.897 205.907 238.842C206.097 238.782 206.257 238.651 206.353 238.476C206.449 238.301 206.474 238.096 206.423 237.903C204.653 226.561 201.383 215.505 196.7 205.024C192.172 194.881 186.464 184.359 177.383 177.59C172.856 174.215 167.51 171.867 161.853 171.365C157.09 170.942 151.45 171.949 148.489 176.09C146.152 179.357 146.389 184.786 150.005 187.061C151.992 188.312 154.518 188.166 156.582 187.194C157.677 186.653 158.641 185.881 159.408 184.93C160.175 183.98 160.726 182.874 161.023 181.69C162.307 176.988 160.357 171.901 157.015 168.54C153.879 165.377 149.616 163.585 145.161 163.557C144.088 163.568 143.019 163.696 141.974 163.936C141.022 164.152 141.447 165.607 142.398 165.392V165.392Z" fill="#CCCCCC"/>
<path d="M181.292 258.508L176.281 249.953L182.461 246.335L187.472 254.889V254.889C187.952 255.709 188.087 256.685 187.847 257.603C187.607 258.522 187.012 259.308 186.192 259.788C185.373 260.268 184.396 260.402 183.477 260.162C182.558 259.922 181.772 259.327 181.292 258.508Z" fill="#F9A826"/>
<path d="M164.721 240.727C167.155 240.727 169.128 238.754 169.128 236.321C169.128 233.887 167.155 231.915 164.721 231.915C162.287 231.915 160.313 233.887 160.313 236.321C160.313 238.754 162.287 240.727 164.721 240.727Z" fill="#F9A826"/>
<path d="M200.684 258.508L195.672 249.953L201.852 246.335L206.864 254.889C207.343 255.708 207.477 256.684 207.236 257.602C206.996 258.52 206.401 259.305 205.582 259.784C204.763 260.264 203.787 260.399 202.869 260.159C201.95 259.92 201.165 259.326 200.684 258.508Z" fill="#F9A826"/>
<path d="M165.558 245.197C165.561 242.715 166.549 240.335 168.305 238.58C170.06 236.824 172.441 235.837 174.924 235.834H204.572C205.621 235.836 206.628 236.253 207.37 236.995C208.112 237.737 208.529 238.743 208.531 239.792V243.164C208.527 246.186 207.325 249.082 205.188 251.219C203.051 253.355 200.154 254.557 197.131 254.56H174.924C172.441 254.557 170.06 253.57 168.305 251.815C166.549 250.059 165.561 247.679 165.558 245.197Z" fill="#3F3D56"/>
<path d="M172.395 259.611V249.697H179.557V259.611C179.557 260.56 179.18 261.471 178.508 262.142C177.837 262.814 176.926 263.191 175.976 263.191C175.027 263.191 174.116 262.814 173.444 262.142C172.773 261.471 172.395 260.56 172.395 259.611Z" fill="#3F3D56"/>
<path d="M193.178 259.611V249.697H200.34V259.611C200.34 260.081 200.248 260.547 200.068 260.982C199.889 261.417 199.625 261.812 199.292 262.145C198.96 262.478 198.565 262.742 198.13 262.922C197.695 263.102 197.229 263.195 196.759 263.195C196.288 263.195 195.822 263.102 195.387 262.922C194.953 262.742 194.558 262.478 194.225 262.145C193.892 261.812 193.629 261.417 193.449 260.982C193.269 260.547 193.177 260.081 193.178 259.611Z" fill="#3F3D56"/>
<path d="M222.317 220.388C223.05 219.48 224.113 218.899 225.274 218.774C226.434 218.648 227.597 218.988 228.508 219.719C229.418 220.45 230.001 221.512 230.129 222.672C230.256 223.832 229.919 224.995 229.19 225.906L221.945 234.924L215.072 229.406L222.317 220.388Z" fill="#F9A826"/>
<path d="M204.866 238.152L210.67 230.928C212.081 229.176 214.13 228.054 216.367 227.81C218.604 227.566 220.847 228.219 222.603 229.626L224.417 231.082C226.507 232.764 227.844 235.206 228.135 237.873C228.427 240.539 227.648 243.213 225.97 245.306L221.188 251.258C220.66 251.914 219.893 252.334 219.055 252.425C218.217 252.517 217.378 252.272 216.72 251.745L205.353 242.619C204.697 242.091 204.277 241.324 204.186 240.487C204.094 239.649 204.339 238.81 204.866 238.152Z" fill="#3F3D56"/>
<path d="M223.179 219.315C223.429 219.005 223.736 218.747 224.085 218.555C224.434 218.364 224.818 218.244 225.213 218.2C225.609 218.157 226.009 218.192 226.391 218.304C226.773 218.415 227.129 218.601 227.439 218.85C227.75 219.099 228.008 219.407 228.199 219.756C228.39 220.104 228.511 220.487 228.554 220.883C228.597 221.278 228.562 221.678 228.451 222.06C228.339 222.442 228.154 222.798 227.904 223.108L219.797 233.2L215.072 229.406L223.179 219.315Z" fill="#3F3D56"/>
<path d="M211.565 236.182L224.022 246.184C224.93 246.917 225.51 247.98 225.635 249.14C225.76 250.299 225.42 251.462 224.69 252.371C223.959 253.281 222.897 253.863 221.737 253.992C220.577 254.12 219.414 253.783 218.502 253.055L206.046 243.053L211.565 236.182Z" fill="#3F3D56"/>
<path d="M225.232 252.705C225.875 251.904 226.036 250.966 225.591 250.609C225.146 250.252 224.264 250.611 223.621 251.411C222.978 252.212 222.817 253.15 223.262 253.507C223.707 253.864 224.589 253.505 225.232 252.705Z" fill="#F9A826"/>
<path d="M348.553 264H39.4473C39.3287 264 39.2149 263.947 39.131 263.854C39.0471 263.76 39 263.633 39 263.5C39 263.367 39.0471 263.24 39.131 263.146C39.2149 263.053 39.3287 263 39.4473 263H348.553C348.671 263 348.785 263.053 348.869 263.146C348.953 263.24 349 263.367 349 263.5C349 263.633 348.953 263.76 348.869 263.854C348.785 263.947 348.671 264 348.553 264Z" fill="#CCCCCC"/>
</g>
<defs>
<clipPath id="clip0">
<rect width="375" height="264" fill="white" transform="translate(-1)"/>
</clipPath>
</defs>
</svg>
